SplineFontDB: 3.2
FontName: Atari-1029-Regular-UL
FullName: Atari 1029 Regular UL Regular
FamilyName: Atari 1029 Regular UL
Weight: Book
Copyright: Copyright jeffpiep 2020\n"Atari 1029 Regular
Version: 1.0
ItalicAngle: 0
UnderlinePosition: 74.707
UnderlineWidth: 49.8047
Ascent: 800
Descent: 200
InvalidEm: 0
sfntRevision: 0x00010000
LayerCount: 2
Layer: 0 1 "Back" 1
Layer: 1 1 "Fore" 0
XUID: [1021 376 -1330786101 4071]
StyleMap: 0x0040
FSType: 4
OS2Version: 2
OS2_WeightWidthSlopeOnly: 0
OS2_UseTypoMetrics: 0
CreationTime: 1590641428
ModificationTime: 1590641948
PfmFamily: 81
TTFWeight: 400
TTFWidth: 5
LineGap: 0
VLineGap: 0
Panose: 0 0 4 0 0 0 0 0 0 0
OS2TypoAscent: 777
OS2TypoAOffset: 0
OS2TypoDescent: -222
OS2TypoDOffset: 0
OS2TypoLinegap: 0
OS2WinAscent: 777
OS2WinAOffset: 0
OS2WinDescent: 222
OS2WinDOffset: 0
HheadAscent: 777
HheadAOffset: 0
HheadDescent: -222
HheadDOffset: 0
OS2SubXSize: 500
OS2SubYSize: 500
OS2SubXOff: 0
OS2SubYOff: -111
OS2SupXSize: 500
OS2SupYSize: 500
OS2SupXOff: 0
OS2SupYOff: 500
OS2StrikeYSize: 50
OS2StrikeYPos: 200
OS2CapHeight: 1005
OS2XHeight: 783
OS2Vendor: 'FSTR'
OS2CodePages: 00000111.00000000
OS2UnicodeRanges: 80000003.00000000.00000000.00000000
MarkAttachClasses: 1
DEI: 91125
ShortTable: maxp 16
  1
  0
  141
  868
  44
  0
  0
  2
  0
  0
  0
  0
  0
  0
  0
  0
EndShort
LangName: 1033 "Copyright jeffpiep 2020+AAogHAAA-Atari 1029 Regular" "" "Regular" "Atari 1029 Regular UL" "" "Version 1.0" "" "FontStruct is a trademark of FontStruct.com" "https://fontstruct.com" "jeffpiep" "+IBwA-Atari 1029 Regular UL+IB0A was built with FontStruct+AAogHAAA-Atari 1029 Regular" "https://fontstruct.com/fontstructions/show/1766795/atari-1029-regular-1" "https://fontstruct.com/fontstructors/show/1011029/jeffpiep" "Open Font License" "" "" "" "" "" "Five big quacking zephyrs jolt my wax bed"
Encoding: win
UnicodeInterp: none
NameList: AGL For New Fonts
DisplaySize: -48
AntiAlias: 1
FitToEm: 0
WinInfo: 0 38 12
BeginPrivate: 0
EndPrivate

StartChar: space
Encoding: 32 32 0
Width: 600
VWidth: 897
Flags: W
LayerCount: 2
Fore
SplineSet
103 -166 m 1,0,1
 103 -166 l 1,2,-1
 103 -166 l 1,3,4
 103 -166 l 1,5,-1
 103 -166 l 1,0,1
302 -166 m 1,6,7
 302 -166 l 1,8,-1
 302 -166 l 1,9,10
 302 -166 l 1,11,-1
 302 -166 l 1,6,7
502 -166 m 1,12,13
 502 -166 l 1,14,-1
 502 -166 l 1,15,16
 502 -166 l 1,17,-1
 502 -166 l 1,12,13
52 -202 m 1,18,19
 30 -202 30 -202 15 -186 c 128,-1,20
 0 -170 0 -170 0 -150 c 0,21,22
 0 -128 0 -128 15 -114 c 0,23,24
 31 -98 31 -98 52 -96 c 256,25,26
 74 -96 74 -96 90 -114 c 0,27,28
 99 -124 99 -124 103 -134 c 1,29,-1
 103 -134 l 1,30,31
 107 -122 107 -122 115 -114 c 0,32,33
 130 -98 130 -98 152 -96 c 0,34,35
 174 -96 174 -96 189 -114 c 0,36,37
 198 -124 198 -124 202 -134 c 1,38,-1
 202 -134 l 1,39,40
 206 -122 206 -122 215 -114 c 0,41,42
 231 -98 231 -98 252 -96 c 0,43,44
 274 -96 274 -96 290 -114 c 0,45,46
 299 -124 299 -124 302 -134 c 1,47,-1
 302 -134 l 1,48,49
 306 -122 306 -122 315 -114 c 0,50,51
 330 -98 330 -98 353 -96 c 0,52,53
 375 -96 375 -96 390 -114 c 0,54,55
 399 -124 399 -124 402 -134 c 1,56,-1
 402 -134 l 1,57,58
 406 -122 406 -122 415 -114 c 0,59,60
 430 -98 430 -98 452 -96 c 0,61,62
 474 -96 474 -96 490 -114 c 0,63,64
 499 -124 499 -124 502 -134 c 1,65,-1
 502 -134 l 1,66,67
 506 -122 506 -122 515 -114 c 0,68,69
 530 -98 530 -98 553 -96 c 0,70,71
 576 -96 576 -96 590 -114 c 256,72,73
 605.058823529 -128.054901961 605.058823529 -128.054901961 605.058823529 -152.560553633 c 0,74,75
 605.058823529 -172.823529412 605.058823529 -172.823529412 590 -186 c 256,76,77
 575 -200 575 -200 553 -202 c 0,78,79
 531 -202 531 -202 515 -186 c 0,80,81
 506 -176 506 -176 502 -166 c 1,82,83
 498 -178 498 -178 490 -186 c 0,84,85
 475 -200 475 -200 452 -202 c 0,86,87
 430 -202 430 -202 415 -186 c 0,88,89
 406 -176 406 -176 402 -166 c 1,90,91
 398 -178 398 -178 390 -186 c 0,92,93
 375 -200 375 -200 353 -202 c 0,94,95
 331 -202 331 -202 315 -186 c 0,96,97
 306 -176 306 -176 302 -166 c 1,98,99
 298 -178 298 -178 290 -186 c 0,100,101
 275 -200 275 -200 252 -202 c 0,102,103
 230 -202 230 -202 215 -186 c 0,104,105
 206 -176 206 -176 202 -166 c 1,106,-1
 202 -166 l 1,107,108
 198 -178 198 -178 189 -186 c 0,109,110
 174 -200 174 -200 152 -202 c 0,111,112
 130 -202 130 -202 115 -186 c 0,113,114
 106 -176 106 -176 103 -166 c 1,115,116
 99 -178 99 -178 90 -186 c 0,117,118
 74 -200 74 -200 52 -202 c 1,119,-1
 52 -202 l 1,18,19
EndSplineSet
EndChar

StartChar: exclam
Encoding: 33 33 1
Width: 600
VWidth: 897
Flags: W
LayerCount: 2
Fore
SplineSet
103 -166 m 1,0,1
 103 -166 l 1,2,-1
 103 -166 l 1,3,4
 103 -166 l 1,5,-1
 103 -166 l 1,0,1
302 -166 m 1,6,7
 302 -166 l 1,8,-1
 302 -166 l 1,9,10
 302 -166 l 1,11,-1
 302 -166 l 1,6,7
502 -166 m 1,12,13
 502 -166 l 1,14,-1
 502 -166 l 1,15,16
 502 -166 l 1,17,-1
 502 -166 l 1,12,13
52 -202 m 1,18,19
 30 -202 30 -202 15 -186 c 128,-1,20
 0 -170 0 -170 0 -150 c 0,21,22
 0 -128 0 -128 15 -114 c 0,23,24
 31 -98 31 -98 52 -96 c 256,25,26
 74 -96 74 -96 90 -114 c 0,27,28
 99 -124 99 -124 103 -134 c 1,29,-1
 103 -134 l 1,30,31
 107 -122 107 -122 115 -114 c 0,32,33
 130 -98 130 -98 152 -96 c 0,34,35
 174 -96 174 -96 189 -114 c 0,36,37
 198 -124 198 -124 202 -134 c 1,38,-1
 202 -134 l 1,39,40
 206 -122 206 -122 215 -114 c 0,41,42
 231 -98 231 -98 252 -96 c 0,43,44
 274 -96 274 -96 290 -114 c 0,45,46
 299 -124 299 -124 302 -134 c 1,47,-1
 302 -134 l 1,48,49
 306 -122 306 -122 315 -114 c 0,50,51
 330 -98 330 -98 353 -96 c 0,52,53
 375 -96 375 -96 390 -114 c 0,54,55
 399 -124 399 -124 402 -134 c 1,56,-1
 402 -134 l 1,57,58
 406 -122 406 -122 415 -114 c 0,59,60
 430 -98 430 -98 452 -96 c 0,61,62
 474 -96 474 -96 490 -114 c 0,63,64
 499 -124 499 -124 502 -134 c 1,65,-1
 502 -134 l 1,66,67
 506 -122 506 -122 515 -114 c 0,68,69
 530 -98 530 -98 553 -96 c 0,70,71
 576 -96 576 -96 590 -114 c 256,72,73
 605.058823529 -128.054901961 605.058823529 -128.054901961 605.058823529 -152.560553633 c 0,74,75
 605.058823529 -172.823529412 605.058823529 -172.823529412 590 -186 c 256,76,77
 575 -200 575 -200 553 -202 c 0,78,79
 531 -202 531 -202 515 -186 c 0,80,81
 506 -176 506 -176 502 -166 c 1,82,83
 498 -178 498 -178 490 -186 c 0,84,85
 475 -200 475 -200 452 -202 c 0,86,87
 430 -202 430 -202 415 -186 c 0,88,89
 406 -176 406 -176 402 -166 c 1,90,91
 398 -178 398 -178 390 -186 c 0,92,93
 375 -200 375 -200 353 -202 c 0,94,95
 331 -202 331 -202 315 -186 c 0,96,97
 306 -176 306 -176 302 -166 c 1,98,99
 298 -178 298 -178 290 -186 c 0,100,101
 275 -200 275 -200 252 -202 c 0,102,103
 230 -202 230 -202 215 -186 c 0,104,105
 206 -176 206 -176 202 -166 c 1,106,-1
 202 -166 l 1,107,108
 198 -178 198 -178 189 -186 c 0,109,110
 174 -200 174 -200 152 -202 c 0,111,112
 130 -202 130 -202 115 -186 c 0,113,114
 106 -176 106 -176 103 -166 c 1,115,-1
 103 -166 l 1,116,117
 99 -178 99 -178 90 -186 c 0,118,119
 74 -200 74 -200 52 -202 c 1,120,-1
 52 -202 l 1,18,19
252 -2 m 1,121,122
 230 -2 230 -2 215 12 c 0,123,124
 200 28 200 28 200 50 c 256,125,126
 200 72 200 72 215 88 c 0,127,128
 229.222222222 102.222222222 229.222222222 102.222222222 247.395061728 102.222222222 c 0,129,130
 249.666666667 102.222222222 249.666666667 102.222222222 252 102 c 0,131,132
 274 102 274 102 290 88 c 0,133,134
 305 72 305 72 305 50 c 256,135,136
 305 28 305 28 290 12 c 0,137,138
 275 -2 275 -2 252 -2 c 1,139,-1
 252 -2 l 1,121,122
252 298 m 1,140,141
 230 298 230 298 215 312 c 128,-1,142
 200 326 200 326 200 350 c 0,143,144
 200 372 200 372 215 388 c 0,145,146
 224 398 224 398 236 400 c 1,147,-1
 236 400 l 1,148,149
 224 404 224 404 215 412 c 0,150,151
 200 428 200 428 200 450 c 128,-1,152
 200 472 200 472 215 488 c 0,153,154
 224 498 224 498 236 500 c 1,155,-1
 236 500 l 1,156,157
 224 504 224 504 215 512 c 0,158,159
 200 526 200 526 200 550 c 128,-1,160
 200 574 200 574 215 588 c 0,161,162
 224 598 224 598 236 600 c 1,163,-1
 236 600 l 1,164,165
 224 604 224 604 215 614 c 0,166,167
 200 628 200 628 200 650 c 128,-1,168
 200 672 200 672 215 686 c 0,169,170
 231 700 231 700 252 702 c 0,171,172
 274 702 274 702 290 686 c 256,173,174
 305 672 305 672 305 650 c 128,-1,175
 305 628 305 628 290 614 c 0,176,177
 281 606 281 606 269 600 c 1,178,-1
 269 600 l 1,179,180
 281 596 281 596 290 588 c 0,181,182
 305 572 305 572 305 550 c 128,-1,183
 305 528 305 528 290 512 c 0,184,185
 281 504 281 504 269 500 c 1,186,-1
 269 500 l 1,187,188
 281 496 281 496 290 488 c 0,189,190
 305 474 305 474 305 450 c 0,191,192
 305 428 305 428 290 412 c 0,193,194
 281 404 281 404 269 400 c 1,195,-1
 269 400 l 1,196,197
 281 396 281 396 290 388 c 0,198,199
 305 372 305 372 305 350 c 128,-1,200
 305 328 305 328 290 312 c 256,201,202
 275 298 275 298 252 298 c 1,203,-1
 252 298 l 1,140,141
EndSplineSet
EndChar

StartChar: quotedbl
Encoding: 34 34 2
Width: 600
VWidth: 897
Flags: W
LayerCount: 2
Fore
SplineSet
103 -166 m 1,0,1
 103 -166 l 1,2,-1
 103 -166 l 1,3,4
 103 -166 l 1,5,-1
 103 -166 l 1,0,1
302 -166 m 1,6,7
 302 -166 l 1,8,-1
 302 -166 l 1,9,10
 302 -166 l 1,11,-1
 302 -166 l 1,6,7
502 -166 m 1,12,13
 502 -166 l 1,14,-1
 502 -166 l 1,15,16
 502 -166 l 1,17,-1
 502 -166 l 1,12,13
52 -202 m 1,18,19
 30 -202 30 -202 15 -186 c 128,-1,20
 0 -170 0 -170 0 -150 c 0,21,22
 0 -128 0 -128 15 -114 c 0,23,24
 31 -98 31 -98 52 -96 c 256,25,26
 74 -96 74 -96 90 -114 c 0,27,28
 99 -124 99 -124 103 -134 c 1,29,-1
 103 -134 l 1,30,31
 107 -122 107 -122 115 -114 c 0,32,33
 130 -98 130 -98 152 -96 c 0,34,35
 174 -96 174 -96 189 -114 c 0,36,37
 198 -124 198 -124 202 -134 c 1,38,-1
 202 -134 l 1,39,40
 206 -122 206 -122 215 -114 c 0,41,42
 231 -98 231 -98 252 -96 c 0,43,44
 274 -96 274 -96 290 -114 c 0,45,46
 299 -124 299 -124 302 -134 c 1,47,-1
 302 -134 l 1,48,49
 306 -122 306 -122 315 -114 c 0,50,51
 330 -98 330 -98 353 -96 c 0,52,53
 375 -96 375 -96 390 -114 c 0,54,55
 399 -124 399 -124 402 -134 c 1,56,-1
 402 -134 l 1,57,58
 406 -122 406 -122 415 -114 c 0,59,60
 430 -98 430 -98 452 -96 c 0,61,62
 474 -96 474 -96 490 -114 c 0,63,64
 499 -124 499 -124 502 -134 c 1,65,-1
 502 -134 l 1,66,67
 506 -122 506 -122 515 -114 c 0,68,69
 530 -98 530 -98 553 -96 c 0,70,71
 576 -96 576 -96 590 -114 c 256,72,73
 605.058823529 -128.054901961 605.058823529 -128.054901961 605.058823529 -152.560553633 c 0,74,75
 605.058823529 -172.823529412 605.058823529 -172.823529412 590 -186 c 256,76,77
 575 -200 575 -200 553 -202 c 0,78,79
 531 -202 531 -202 515 -186 c 0,80,81
 506 -176 506 -176 502 -166 c 1,82,83
 498 -178 498 -178 490 -186 c 0,84,85
 475 -200 475 -200 452 -202 c 0,86,87
 430 -202 430 -202 415 -186 c 0,88,89
 406 -176 406 -176 402 -166 c 1,90,91
 398 -178 398 -178 390 -186 c 0,92,93
 375 -200 375 -200 353 -202 c 0,94,95
 331 -202 331 -202 315 -186 c 0,96,97
 306 -176 306 -176 302 -166 c 1,98,99
 298 -178 298 -178 290 -186 c 0,100,101
 275 -200 275 -200 252 -202 c 0,102,103
 230 -202 230 -202 215 -186 c 0,104,105
 206 -176 206 -176 202 -166 c 1,106,-1
 202 -166 l 1,107,108
 198 -178 198 -178 189 -186 c 0,109,110
 174 -200 174 -200 152 -202 c 0,111,112
 130 -202 130 -202 115 -186 c 0,113,114
 106 -176 106 -176 103 -166 c 1,115,-1
 103 -166 l 1,116,117
 99 -178 99 -178 90 -186 c 0,118,119
 74 -200 74 -200 52 -202 c 1,120,-1
 52 -202 l 1,18,19
152 398 m 1,121,122
 130 398 130 398 115 412 c 256,123,124
 100 428 100 428 100 450 c 128,-1,125
 100 472 100 472 115 488 c 0,126,127
 124 498 124 498 136 500 c 1,128,-1
 136 500 l 1,129,130
 124 504 124 504 115 512 c 0,131,132
 100 526 100 526 100 550 c 128,-1,133
 100 574 100 574 115 588 c 0,134,135
 124 598 124 598 136 600 c 1,136,-1
 136 600 l 1,137,138
 124 604 124 604 115 614 c 0,139,140
 100 628 100 628 100 650 c 128,-1,141
 100 672 100 672 115 686 c 256,142,143
 130 700 130 700 152 702 c 0,144,145
 174 702 174 702 189 686 c 256,146,147
 204 672 204 672 205 650 c 0,148,149
 205 628 205 628 189 614 c 0,150,151
 180 606 180 606 169 600 c 1,152,-1
 169 600 l 1,153,154
 181 596 181 596 189 588 c 0,155,156
 204 572 204 572 205 550 c 0,157,158
 205 528 205 528 189 512 c 0,159,160
 180 504 180 504 169 500 c 1,161,-1
 169 500 l 1,162,163
 181 496 181 496 189 488 c 0,164,165
 204 474 204 474 205 450 c 0,166,167
 205 428 205 428 189 412 c 256,168,169
 174 398 174 398 152 398 c 1,170,-1
 152 398 l 1,121,122
353 398 m 1,171,172
 331 398 331 398 315 412 c 256,173,174
 300 428 300 428 300 450 c 128,-1,175
 300 472 300 472 315 488 c 0,176,177
 324 498 324 498 336 500 c 1,178,-1
 336 500 l 1,179,180
 324 504 324 504 315 512 c 0,181,182
 300 526 300 526 300 550 c 128,-1,183
 300 574 300 574 315 588 c 0,184,185
 324 598 324 598 336 600 c 1,186,-1
 336 600 l 1,187,188
 324 604 324 604 315 614 c 0,189,190
 300 628 300 628 300 650 c 128,-1,191
 300 672 300 672 315 686 c 256,192,193
 330 700 330 700 353 702 c 0,194,195
 375 702 375 702 390 686 c 256,196,197
 405 672 405 672 405 650 c 128,-1,198
 405 628 405 628 390 614 c 0,199,200
 381 606 381 606 369 600 c 1,201,-1
 369 600 l 1,202,203
 381 596 381 596 390 588 c 0,204,205
 405 572 405 572 405 550 c 128,-1,206
 405 528 405 528 390 512 c 0,207,208
 381 504 381 504 369 500 c 1,209,-1
 369 500 l 1,210,211
 381 496 381 496 390 488 c 0,212,213
 405 474 405 474 405 450 c 0,214,215
 405 428 405 428 390 412 c 256,216,217
 375 398 375 398 353 398 c 1,218,-1
 353 398 l 1,171,172
EndSplineSet
EndChar

StartChar: numbersign
Encoding: 35 35 3
Width: 600
VWidth: 897
Flags: W
LayerCount: 2
Fore
SplineSet
103 -166 m 1,0,1
 103 -166 l 1,2,-1
 103 -166 l 1,3,4
 103 -166 l 1,5,-1
 103 -166 l 1,0,1
302 -166 m 1,6,7
 302 -166 l 1,8,-1
 302 -166 l 1,9,10
 302 -166 l 1,11,-1
 302 -166 l 1,6,7
502 -166 m 1,12,13
 502 -166 l 1,14,-1
 502 -166 l 1,15,16
 502 -166 l 1,17,-1
 502 -166 l 1,12,13
52 -202 m 1,18,19
 30 -202 30 -202 15 -186 c 128,-1,20
 0 -170 0 -170 0 -150 c 0,21,22
 0 -128 0 -128 15 -114 c 0,23,24
 31 -98 31 -98 52 -96 c 256,25,26
 74 -96 74 -96 90 -114 c 0,27,28
 99 -124 99 -124 103 -134 c 1,29,-1
 103 -134 l 1,30,31
 107 -122 107 -122 115 -114 c 0,32,33
 130 -98 130 -98 152 -96 c 0,34,35
 174 -96 174 -96 189 -114 c 0,36,37
 198 -124 198 -124 202 -134 c 1,38,-1
 202 -134 l 1,39,40
 206 -122 206 -122 215 -114 c 0,41,42
 231 -98 231 -98 252 -96 c 0,43,44
 274 -96 274 -96 290 -114 c 0,45,46
 299 -124 299 -124 302 -134 c 1,47,-1
 302 -134 l 1,48,49
 306 -122 306 -122 315 -114 c 0,50,51
 330 -98 330 -98 353 -96 c 0,52,53
 375 -96 375 -96 390 -114 c 0,54,55
 399 -124 399 -124 402 -134 c 1,56,-1
 402 -134 l 1,57,58
 406 -122 406 -122 415 -114 c 0,59,60
 430 -98 430 -98 452 -96 c 0,61,62
 474 -96 474 -96 490 -114 c 0,63,64
 499 -124 499 -124 502 -134 c 1,65,-1
 502 -134 l 1,66,67
 506 -122 506 -122 515 -114 c 0,68,69
 530 -98 530 -98 553 -96 c 0,70,71
 576 -96 576 -96 590 -114 c 256,72,73
 605.058823529 -128.054901961 605.058823529 -128.054901961 605.058823529 -152.560553633 c 0,74,75
 605.058823529 -172.823529412 605.058823529 -172.823529412 590 -186 c 256,76,77
 575 -200 575 -200 553 -202 c 0,78,79
 531 -202 531 -202 515 -186 c 0,80,81
 506 -176 506 -176 502 -166 c 1,82,83
 498 -178 498 -178 490 -186 c 0,84,85
 475 -200 475 -200 452 -202 c 0,86,87
 430 -202 430 -202 415 -186 c 0,88,89
 406 -176 406 -176 402 -166 c 1,90,91
 398 -178 398 -178 390 -186 c 0,92,93
 375 -200 375 -200 353 -202 c 0,94,95
 331 -202 331 -202 315 -186 c 0,96,97
 306 -176 306 -176 302 -166 c 1,98,99
 298 -178 298 -178 290 -186 c 0,100,101
 275 -200 275 -200 252 -202 c 0,102,103
 230 -202 230 -202 215 -186 c 0,104,105
 206 -176 206 -176 202 -166 c 1,106,-1
 202 -166 l 1,107,108
 198 -178 198 -178 189 -186 c 0,109,110
 174 -200 174 -200 152 -202 c 0,111,112
 130 -202 130 -202 115 -186 c 0,113,114
 106 -176 106 -176 103 -166 c 1,115,-1
 103 -166 l 1,116,117
 99 -178 99 -178 90 -186 c 0,118,119
 74 -200 74 -200 52 -202 c 1,120,-1
 52 -202 l 1,18,19
103 234 m 1,121,-1
 103 234 l 1,122,-1
 103 234 l 1,123,-1
 103 234 l 1,124,-1
 103 234 l 1,121,-1
302 234 m 1,125,-1
 302 234 l 1,126,-1
 302 234 l 1,127,-1
 302 234 l 1,128,-1
 302 234 l 1,125,-1
202 266 m 1,129,130
 206 278 206 278 215 288 c 0,131,132
 231 302 231 302 252 302 c 0,133,134
 274 302 274 302 290 288 c 0,135,136
 299 278 299 278 302 266 c 1,137,-1
 302 266 l 1,138,139
 306 278 306 278 315 288 c 128,-1,140
 324 298 324 298 336 300 c 1,141,-1
 336 300 l 1,142,143
 324 304 324 304 315 312 c 0,144,145
 300 326 300 326 300 350 c 0,146,147
 300 372 300 372 315 388 c 0,148,149
 324 398 324 398 336 400 c 1,150,-1
 336 400 l 1,151,152
 324 404 324 404 315 412 c 256,153,154
 306 422 306 422 302 434 c 1,155,-1
 302 434 l 1,156,157
 298 422 298 422 290 412 c 0,158,159
 275 398 275 398 252 398 c 0,160,161
 230 398 230 398 215 412 c 0,162,163
 206 422 206 422 202 434 c 1,164,165
 198 422 198 422 189 412 c 256,166,167
 180 404 180 404 169 400 c 1,168,-1
 169 400 l 1,169,170
 181 396 181 396 189 388 c 0,171,172
 204 372 204 372 205 350 c 0,173,174
 205 328 205 328 189 312 c 0,175,176
 180 304 180 304 169 300 c 1,177,-1
 169 300 l 1,178,179
 181 296 181 296 189 288 c 0,180,181
 198 278 198 278 202 266 c 1,182,-1
 202 266 l 1,129,130
103 434 m 1,183,-1
 103 434 l 1,184,-1
 103 434 l 1,185,-1
 103 434 l 1,186,-1
 103 434 l 1,183,-1
202 434 m 1,187,-1
 202 434 l 1,188,-1
 202 434 l 1,189,-1
 202 434 l 1,190,-1
 202 434 l 1,187,-1
402 434 m 1,191,-1
 402 434 l 1,192,-1
 402 434 l 1,193,-1
 402 434 l 1,194,-1
 402 434 l 1,191,-1
152 -2 m 1,195,196
 130 -2 130 -2 115 12 c 0,197,198
 100 28 100 28 100 50 c 256,199,200
 100 72 100 72 115 88 c 0,201,202
 124 96 124 96 136 100 c 1,203,-1
 136 100 l 1,204,205
 124 104 124 104 115 112 c 0,206,207
 100 128 100 128 100 150 c 128,-1,208
 100 172 100 172 115 186 c 0,209,210
 124 196 124 196 136 200 c 1,211,-1
 136 200 l 1,212,213
 124 204 124 204 115 212 c 0,214,215
 106 222 106 222 103 234 c 1,216,-1
 103 234 l 1,217,218
 99 222 99 222 90 212 c 0,219,220
 74 198 74 198 52 198 c 256,221,222
 30 198 30 198 15 212 c 0,223,224
 0 228 0 228 0 250 c 128,-1,225
 0 272 0 272 15 288 c 0,226,227
 31 302 31 302 52 302 c 256,228,229
 74 302 74 302 90 288 c 0,230,231
 99 278 99 278 103 266 c 1,232,-1
 103 266 l 1,233,234
 107 278 107 278 115 288 c 0,235,236
 124 298 124 298 136 300 c 1,237,-1
 136 300 l 1,238,239
 124 304 124 304 115 312 c 0,240,241
 100 326 100 326 100 350 c 0,242,243
 100 372 100 372 115 388 c 0,244,245
 124 398 124 398 136 400 c 1,246,-1
 136 400 l 1,247,248
 124 404 124 404 115 412 c 256,249,250
 106 422 106 422 103 434 c 1,251,-1
 103 434 l 1,252,253
 99 422 99 422 90 412 c 0,254,255
 74 398 74 398 52 398 c 256,256,257
 30 398 30 398 15 412 c 0,258,259
 0 428 0 428 0 450 c 128,-1,260
 0 472 0 472 15 488 c 0,261,262
 31 502 31 502 52 502 c 256,263,264
 74 502 74 502 90 488 c 0,265,266
 99 478 99 478 103 466 c 1,267,-1
 103 466 l 1,268,269
 107 478 107 478 115 488 c 256,270,271
 124 498 124 498 136 500 c 1,272,-1
 136 500 l 1,273,274
 124 504 124 504 115 512 c 0,275,276
 100 526 100 526 100 550 c 128,-1,277
 100 574 100 574 115 588 c 0,278,279
 124 598 124 598 136 600 c 1,280,-1
 136 600 l 1,281,282
 124 604 124 604 115 614 c 0,283,284
 100 628 100 628 100 650 c 128,-1,285
 100 672 100 672 115 686 c 256,286,287
 130 700 130 700 152 702 c 0,288,289
 174 702 174 702 189 686 c 256,290,291
 204 672 204 672 205 650 c 0,292,293
 205 628 205 628 189 614 c 0,294,295
 180 606 180 606 169 600 c 1,296,-1
 169 600 l 1,297,298
 181 596 181 596 189 588 c 0,299,300
 204 572 204 572 205 550 c 0,301,302
 205 528 205 528 189 512 c 0,303,304
 180 504 180 504 169 500 c 1,305,-1
 169 500 l 1,306,307
 181 496 181 496 189 488 c 256,308,309
 198 478 198 478 202 466 c 1,310,-1
 202 466 l 1,311,312
 206 478 206 478 215 488 c 0,313,314
 231 502 231 502 252 502 c 0,315,316
 274 502 274 502 290 488 c 0,317,318
 299 478 299 478 302 466 c 1,319,-1
 302 466 l 1,320,321
 306 478 306 478 315 488 c 0,322,323
 321 494 321 494 329 498 c 1,324,-1
 300 498 l 1,325,-1
 300 602 l 1,326,-1
 329 602 l 1,327,328
 321 606 321 606 315 614 c 0,329,330
 300 628 300 628 300 650 c 128,-1,331
 300 672 300 672 315 686 c 256,332,333
 330 700 330 700 353 702 c 0,334,335
 375 702 375 702 390 686 c 256,336,337
 405 672 405 672 405 650 c 128,-1,338
 405 628 405 628 390 614 c 0,339,340
 384 608 384 608 375 602 c 1,341,-1
 405 602 l 1,342,-1
 405 498 l 1,343,-1
 375 498 l 1,344,345
 383 494 383 494 390 488 c 0,346,347
 399 478 399 478 402 466 c 1,348,-1
 402 466 l 1,349,350
 406 478 406 478 415 488 c 0,351,352
 430 502 430 502 452 502 c 128,-1,353
 474 502 474 502 490 488 c 256,354,355
 505 474 505 474 505 450 c 0,356,357
 505 428 505 428 490 412 c 256,358,359
 475 398 475 398 452 398 c 0,360,361
 430 398 430 398 415 412 c 0,362,363
 406 422 406 422 402 434 c 1,364,365
 398 422 398 422 390 412 c 256,366,367
 381 404 381 404 369 400 c 1,368,-1
 369 400 l 1,369,370
 381 396 381 396 390 388 c 0,371,372
 405 372 405 372 405 350 c 128,-1,373
 405 328 405 328 390 312 c 0,374,375
 381 304 381 304 369 300 c 1,376,-1
 369 300 l 1,377,378
 381 296 381 296 390 288 c 0,379,380
 399 278 399 278 402 266 c 1,381,-1
 402 266 l 1,382,383
 406 278 406 278 415 288 c 0,384,385
 430 302 430 302 452 302 c 128,-1,386
 474 302 474 302 490 288 c 256,387,388
 505 274 505 274 505 250 c 0,389,390
 505 228 505 228 490 212 c 0,391,392
 475 198 475 198 452 198 c 0,393,394
 430 198 430 198 415 212 c 0,395,396
 406 222 406 222 402 234 c 1,397,398
 398 222 398 222 390 212 c 0,399,400
 381 204 381 204 369 200 c 1,401,-1
 369 200 l 1,402,403
 381 196 381 196 390 186 c 0,404,405
 405 172 405 172 405 150 c 128,-1,406
 405 128 405 128 390 112 c 0,407,408
 381 102 381 102 369 100 c 1,409,-1
 369 100 l 1,410,411
 381 96 381 96 390 88 c 0,412,413
 405 72 405 72 405 50 c 256,414,415
 405 28 405 28 390 12 c 0,416,417
 375 -2 375 -2 353 -2 c 128,-1,418
 331 -2 331 -2 315 12 c 0,419,420
 300 28 300 28 300 50 c 256,421,422
 300 72 300 72 315 88 c 0,423,424
 324 96 324 96 336 100 c 1,425,-1
 336 100 l 1,426,427
 324 104 324 104 315 112 c 0,428,429
 300 128 300 128 300 150 c 128,-1,430
 300 172 300 172 315 186 c 0,431,432
 324 196 324 196 336 200 c 1,433,-1
 336 200 l 1,434,435
 324 204 324 204 315 212 c 0,436,437
 306 222 306 222 302 234 c 1,438,439
 298 222 298 222 290 212 c 0,440,441
 275 198 275 198 252 198 c 0,442,443
 230 198 230 198 215 212 c 0,444,445
 206 222 206 222 202 234 c 1,446,447
 198 222 198 222 189 212 c 0,448,449
 180 204 180 204 169 200 c 1,450,-1
 169 200 l 1,451,452
 181 196 181 196 189 186 c 0,453,454
 204 172 204 172 205 150 c 0,455,456
 205 128 205 128 189 112 c 0,457,458
 180 102 180 102 169 100 c 1,459,-1
 169 100 l 1,460,461
 181 96 181 96 189 88 c 0,462,463
 204 72 204 72 205 50 c 256,464,465
 205 28 205 28 189 12 c 0,466,467
 174 -2 174 -2 152 -2 c 1,468,-1
 152 -2 l 1,195,196
EndSplineSet
EndChar

StartChar: dollar
Encoding: 36 36 4
Width: 600
VWidth: 897
Flags: W
LayerCount: 2
Fore
SplineSet
103 -166 m 1,0,1
 103 -166 l 1,2,-1
 103 -166 l 1,3,4
 103 -166 l 1,5,-1
 103 -166 l 1,0,1
302 -166 m 1,6,7
 302 -166 l 1,8,-1
 302 -166 l 1,9,10
 302 -166 l 1,11,-1
 302 -166 l 1,6,7
502 -166 m 1,12,13
 502 -166 l 1,14,-1
 502 -166 l 1,15,16
 502 -166 l 1,17,-1
 502 -166 l 1,12,13
52 -202 m 1,18,19
 30 -202 30 -202 15 -186 c 128,-1,20
 0 -170 0 -170 0 -150 c 0,21,22
 0 -128 0 -128 15 -114 c 0,23,24
 31 -98 31 -98 52 -96 c 256,25,26
 74 -96 74 -96 90 -114 c 0,27,28
 99 -124 99 -124 103 -134 c 1,29,-1
 103 -134 l 1,30,31
 107 -122 107 -122 115 -114 c 0,32,33
 130 -98 130 -98 152 -96 c 0,34,35
 174 -96 174 -96 189 -114 c 0,36,37
 198 -124 198 -124 202 -134 c 1,38,-1
 202 -134 l 1,39,40
 206 -122 206 -122 215 -114 c 0,41,42
 231 -98 231 -98 252 -96 c 0,43,44
 274 -96 274 -96 290 -114 c 0,45,46
 299 -124 299 -124 302 -134 c 1,47,-1
 302 -134 l 1,48,49
 306 -122 306 -122 315 -114 c 0,50,51
 330 -98 330 -98 353 -96 c 0,52,53
 375 -96 375 -96 390 -114 c 0,54,55
 399 -124 399 -124 402 -134 c 1,56,-1
 402 -134 l 1,57,58
 406 -122 406 -122 415 -114 c 0,59,60
 430 -98 430 -98 452 -96 c 0,61,62
 474 -96 474 -96 490 -114 c 0,63,64
 499 -124 499 -124 502 -134 c 1,65,-1
 502 -134 l 1,66,67
 506 -122 506 -122 515 -114 c 0,68,69
 530 -98 530 -98 553 -96 c 0,70,71
 576 -96 576 -96 590 -114 c 256,72,73
 605.058823529 -128.054901961 605.058823529 -128.054901961 605.058823529 -152.560553633 c 0,74,75
 605.058823529 -172.823529412 605.058823529 -172.823529412 590 -186 c 256,76,77
 575 -200 575 -200 553 -202 c 0,78,79
 531 -202 531 -202 515 -186 c 0,80,81
 506 -176 506 -176 502 -166 c 1,82,83
 498 -178 498 -178 490 -186 c 0,84,85
 475 -200 475 -200 452 -202 c 0,86,87
 430 -202 430 -202 415 -186 c 0,88,89
 406 -176 406 -176 402 -166 c 1,90,91
 398 -178 398 -178 390 -186 c 0,92,93
 375 -200 375 -200 353 -202 c 0,94,95
 331 -202 331 -202 315 -186 c 0,96,97
 306 -176 306 -176 302 -166 c 1,98,99
 298 -178 298 -178 290 -186 c 0,100,101
 275 -200 275 -200 252 -202 c 0,102,103
 230 -202 230 -202 215 -186 c 0,104,105
 206 -176 206 -176 202 -166 c 1,106,-1
 202 -166 l 1,107,108
 198 -178 198 -178 189 -186 c 0,109,110
 174 -200 174 -200 152 -202 c 0,111,112
 130 -202 130 -202 115 -186 c 0,113,114
 106 -176 106 -176 103 -166 c 1,115,-1
 103 -166 l 1,116,117
 99 -178 99 -178 90 -186 c 0,118,119
 74 -200 74 -200 52 -202 c 1,120,-1
 52 -202 l 1,18,19
202 134 m 1,121,-1
 202 134 l 1,122,-1
 202 134 l 1,123,-1
 202 134 l 1,124,-1
 202 134 l 1,121,-1
452 198 m 1,125,126
 430 198 430 198 415 212 c 0,127,128
 400 228 400 228 400 250 c 128,-1,129
 400 272 400 272 415 288 c 256,130,131
 430 302 430 302 452 302 c 128,-1,132
 474 302 474 302 490 288 c 256,133,134
 505 274 505 274 505 250 c 0,135,136
 505 228 505 228 490 212 c 0,137,138
 475 198 475 198 452 198 c 1,139,-1
 452 198 l 1,125,126
202 334 m 1,140,-1
 202 334 l 1,141,-1
 202 334 l 1,142,-1
 202 334 l 1,143,-1
 202 334 l 1,140,-1
302 334 m 1,144,-1
 302 334 l 1,145,-1
 302 334 l 1,146,-1
 302 334 l 1,147,-1
 302 334 l 1,144,-1
52 398 m 1,148,149
 30 398 30 398 15 412 c 0,150,151
 0 428 0 428 0 450 c 128,-1,152
 0 472 0 472 15 488 c 0,153,154
 31 502 31 502 52 502 c 256,155,156
 74 502 74 502 90 488 c 0,157,158
 104.0625 474.875 104.0625 474.875 104.0625 452.9609375 c 0,159,160
 104.0625 428.071428571 104.0625 428.071428571 90 412 c 0,161,162
 74 398 74 398 52 398 c 1,163,-1
 52 398 l 1,148,149
202 534 m 1,164,-1
 202 534 l 1,165,-1
 202 534 l 1,166,-1
 202 534 l 1,167,-1
 202 534 l 1,164,-1
402 534 m 1,168,-1
 402 534 l 1,169,-1
 402 534 l 1,170,-1
 402 534 l 1,171,-1
 402 534 l 1,168,-1
252 -2 m 1,172,173
 230 -2 230 -2 215 12 c 0,174,175
 200 28 200 28 200 50 c 256,176,177
 200 72 200 72 215 88 c 0,178,179
 224 96 224 96 236 100 c 1,180,-1
 236 100 l 1,181,182
 224 104 224 104 215 112 c 0,183,184
 206 122 206 122 202 134 c 1,185,186
 198 122 198 122 189 112 c 0,187,188
 174 98 174 98 152 98 c 128,-1,189
 130 98 130 98 115 112 c 0,190,191
 106 122 106 122 103 134 c 1,192,193
 99 122 99 122 90 112 c 0,194,195
 74 98 74 98 52 98 c 256,196,197
 30 98 30 98 15 112 c 0,198,199
 0 128 0 128 0 150 c 128,-1,200
 0 172 0 172 15 186 c 0,201,202
 31 200 31 200 52 202 c 256,203,204
 74 202 74 202 90 186 c 0,205,206
 99 176 99 176 103 166 c 1,207,-1
 103 166 l 1,208,209
 107 178 107 178 115 186 c 0,210,211
 130 200 130 200 152 202 c 0,212,213
 174 202 174 202 189 186 c 0,214,215
 198 176 198 176 202 166 c 1,216,-1
 202 166 l 1,217,218
 206 178 206 178 215 186 c 0,219,220
 224 196 224 196 236 200 c 1,221,-1
 236 200 l 1,222,223
 224 204 224 204 215 212 c 0,224,225
 200 228 200 228 200 250 c 128,-1,226
 200 272 200 272 215 288 c 0,227,228
 224 298 224 298 236 300 c 1,229,-1
 236 300 l 1,230,231
 224 304 224 304 215 312 c 0,232,233
 206 322 206 322 202 334 c 1,234,-1
 202 334 l 1,235,236
 198 322 198 322 189 312 c 0,237,238
 174 298 174 298 152 298 c 128,-1,239
 130 298 130 298 115 312 c 256,240,241
 100 326 100 326 100 350 c 0,242,243
 100 372 100 372 115 388 c 256,244,245
 130 402 130 402 152 402 c 128,-1,246
 174 402 174 402 189 388 c 0,247,248
 198 378 198 378 202 366 c 1,249,-1
 202 366 l 1,250,251
 206 378 206 378 215 388 c 128,-1,252
 224 398 224 398 236 400 c 1,253,-1
 236 400 l 1,254,255
 224 404 224 404 215 412 c 0,256,257
 200 428 200 428 200 450 c 128,-1,258
 200 472 200 472 215 488 c 0,259,260
 224 498 224 498 236 500 c 1,261,-1
 236 500 l 1,262,263
 224 504 224 504 215 512 c 0,264,265
 206 522 206 522 202 534 c 1,266,267
 198 522 198 522 189 512 c 0,268,269
 174 498 174 498 152 498 c 128,-1,270
 130 498 130 498 115 512 c 256,271,272
 100 526 100 526 100 550 c 128,-1,273
 100 574 100 574 115 588 c 256,274,275
 130 602 130 602 152 602 c 0,276,277
 154.444444444 602.222222222 154.444444444 602.222222222 156.802469136 602.222222222 c 0,278,279
 175.666666667 602.222222222 175.666666667 602.222222222 189 588 c 0,280,281
 198 578 198 578 202 566 c 1,282,-1
 202 566 l 1,283,284
 206 580 206 580 215 588 c 0,285,286
 224 598 224 598 236 600 c 1,287,-1
 236 600 l 1,288,289
 224 604 224 604 215 614 c 0,290,291
 200 628 200 628 200 650 c 128,-1,292
 200 672 200 672 215 686 c 0,293,294
 231 700 231 700 252 702 c 0,295,296
 274 702 274 702 290 686 c 256,297,298
 305 672 305 672 305 650 c 128,-1,299
 305 628 305 628 290 614 c 0,300,301
 281 606 281 606 269 600 c 1,302,-1
 269 600 l 1,303,304
 281 596 281 596 290 588 c 0,305,306
 299 578 299 578 302 566 c 1,307,-1
 302 566 l 1,308,309
 306 580 306 580 315 588 c 0,310,311
 330 602 330 602 353 602 c 0,312,313
 355.444444444 602.222222222 355.444444444 602.222222222 357.802469136 602.222222222 c 0,314,315
 376.666666667 602.222222222 376.666666667 602.222222222 390 588 c 0,316,317
 399 578 399 578 402 566 c 1,318,-1
 402 566 l 1,319,320
 406 580 406 580 415 588 c 0,321,322
 430 602 430 602 452 602 c 0,323,324
 454.444444444 602.222222222 454.444444444 602.222222222 456.814814815 602.222222222 c 0,325,326
 475.777777778 602.222222222 475.777777778 602.222222222 490 588 c 256,327,328
 505 572 505 572 505 550 c 128,-1,329
 505 528 505 528 490 512 c 256,330,331
 475 498 475 498 452 498 c 0,332,333
 430 498 430 498 415 512 c 0,334,335
 406 522 406 522 402 534 c 1,336,337
 398 522 398 522 390 512 c 0,338,339
 375 498 375 498 353 498 c 128,-1,340
 331 498 331 498 315 512 c 0,341,342
 306 522 306 522 302 534 c 1,343,344
 298 522 298 522 290 512 c 0,345,346
 281 504 281 504 269 500 c 1,347,-1
 269 500 l 1,348,349
 281 496 281 496 290 488 c 0,350,351
 305 474 305 474 305 450 c 0,352,353
 305 428 305 428 290 412 c 0,354,355
 281 404 281 404 269 400 c 1,356,-1
 269 400 l 1,357,358
 281 396 281 396 290 388 c 0,359,360
 299 378 299 378 302 366 c 1,361,-1
 302 366 l 1,362,363
 306 378 306 378 315 388 c 0,364,365
 330 402 330 402 353 402 c 0,366,367
 375 402 375 402 390 388 c 256,368,369
 405 372 405 372 405 350 c 128,-1,370
 405 328 405 328 390 312 c 256,371,372
 375 298 375 298 353 298 c 128,-1,373
 331 298 331 298 315 312 c 0,374,375
 306 322 306 322 302 334 c 1,376,377
 298 322 298 322 290 312 c 0,378,379
 281 304 281 304 269 300 c 1,380,-1
 269 300 l 1,381,382
 281 296 281 296 290 288 c 0,383,384
 305 274 305 274 305 250 c 0,385,386
 305 228 305 228 290 212 c 0,387,388
 281 204 281 204 269 200 c 1,389,-1
 269 200 l 1,390,391
 281 196 281 196 290 186 c 128,-1,392
 299 176 299 176 302 166 c 1,393,-1
 302 166 l 1,394,395
 306 178 306 178 315 186 c 0,396,397
 330 200 330 200 353 202 c 0,398,399
 375 202 375 202 390 186 c 256,400,401
 405 172 405 172 405 150 c 128,-1,402
 405 128 405 128 390 112 c 256,403,404
 375 98 375 98 353 98 c 128,-1,405
 331 98 331 98 315 112 c 0,406,407
 306 122 306 122 302 134 c 1,408,409
 298 122 298 122 290 112 c 0,410,411
 281 102 281 102 269 100 c 1,412,-1
 269 100 l 1,413,414
 281 96 281 96 290 88 c 0,415,416
 305 72 305 72 305 50 c 256,417,418
 305 28 305 28 290 12 c 0,419,420
 275 -2 275 -2 252 -2 c 1,421,-1
 252 -2 l 1,172,173
EndSplineSet
EndChar

StartChar: percent
Encoding: 37 37 5
Width: 600
VWidth: 897
Flags: W
LayerCount: 2
Fore
SplineSet
103 -166 m 1,0,1
 103 -166 l 1,2,-1
 103 -166 l 1,3,4
 103 -166 l 1,5,-1
 103 -166 l 1,0,1
302 -166 m 1,6,7
 302 -166 l 1,8,-1
 302 -166 l 1,9,10
 302 -166 l 1,11,-1
 302 -166 l 1,6,7
502 -166 m 1,12,13
 502 -166 l 1,14,-1
 502 -166 l 1,15,16
 502 -166 l 1,17,-1
 502 -166 l 1,12,13
52 -202 m 1,18,19
 30 -202 30 -202 15 -186 c 128,-1,20
 0 -170 0 -170 0 -150 c 0,21,22
 0 -128 0 -128 15 -114 c 0,23,24
 31 -98 31 -98 52 -96 c 256,25,26
 74 -96 74 -96 90 -114 c 0,27,28
 99 -124 99 -124 103 -134 c 1,29,-1
 103 -134 l 1,30,31
 107 -122 107 -122 115 -114 c 0,32,33
 130 -98 130 -98 152 -96 c 0,34,35
 174 -96 174 -96 189 -114 c 0,36,37
 198 -124 198 -124 202 -134 c 1,38,-1
 202 -134 l 1,39,40
 206 -122 206 -122 215 -114 c 0,41,42
 231 -98 231 -98 252 -96 c 0,43,44
 274 -96 274 -96 290 -114 c 0,45,46
 299 -124 299 -124 302 -134 c 1,47,-1
 302 -134 l 1,48,49
 306 -122 306 -122 315 -114 c 0,50,51
 330 -98 330 -98 353 -96 c 0,52,53
 375 -96 375 -96 390 -114 c 0,54,55
 399 -124 399 -124 402 -134 c 1,56,-1
 402 -134 l 1,57,58
 406 -122 406 -122 415 -114 c 0,59,60
 430 -98 430 -98 452 -96 c 0,61,62
 474 -96 474 -96 490 -114 c 0,63,64
 499 -124 499 -124 502 -134 c 1,65,-1
 502 -134 l 1,66,67
 506 -122 506 -122 515 -114 c 0,68,69
 530 -98 530 -98 553 -96 c 0,70,71
 576 -96 576 -96 590 -114 c 256,72,73
 605.058823529 -128.054901961 605.058823529 -128.054901961 605.058823529 -152.560553633 c 0,74,75
 605.058823529 -172.823529412 605.058823529 -172.823529412 590 -186 c 256,76,77
 575 -200 575 -200 553 -202 c 0,78,79
 531 -202 531 -202 515 -186 c 0,80,81
 506 -176 506 -176 502 -166 c 1,82,83
 498 -178 498 -178 490 -186 c 0,84,85
 475 -200 475 -200 452 -202 c 0,86,87
 430 -202 430 -202 415 -186 c 0,88,89
 406 -176 406 -176 402 -166 c 1,90,91
 398 -178 398 -178 390 -186 c 0,92,93
 375 -200 375 -200 353 -202 c 0,94,95
 331 -202 331 -202 315 -186 c 0,96,97
 306 -176 306 -176 302 -166 c 1,98,99
 298 -178 298 -178 290 -186 c 0,100,101
 275 -200 275 -200 252 -202 c 0,102,103
 230 -202 230 -202 215 -186 c 0,104,105
 206 -176 206 -176 202 -166 c 1,106,-1
 202 -166 l 1,107,108
 198 -178 198 -178 189 -186 c 0,109,110
 174 -200 174 -200 152 -202 c 0,111,112
 130 -202 130 -202 115 -186 c 0,113,114
 106 -176 106 -176 103 -166 c 1,115,-1
 103 -166 l 1,116,117
 99 -178 99 -178 90 -186 c 0,118,119
 74 -200 74 -200 52 -202 c 1,120,-1
 52 -202 l 1,18,19
402 134 m 1,121,-1
 402 134 l 1,122,-1
 402 134 l 1,123,-1
 402 134 l 1,124,-1
 402 134 l 1,121,-1
52 98 m 1,125,126
 30 98 30 98 15 112 c 0,127,128
 0 128 0 128 0 150 c 128,-1,129
 0 172 0 172 15 186 c 0,130,131
 31 200 31 200 52 202 c 256,132,133
 74 202 74 202 90 186 c 0,134,135
 104.0625 172.875 104.0625 172.875 104.0625 152.71875 c 0,136,137
 104.0625 128.071428571 104.0625 128.071428571 90 112 c 0,138,139
 74 98 74 98 52 98 c 1,140,-1
 52 98 l 1,125,126
402 166 m 1,141,142
 406 178 406 178 415 186 c 256,143,144
 424 196 424 196 436 200 c 1,145,-1
 436 200 l 1,146,147
 424 204 424 204 415 212 c 0,148,149
 406 222 406 222 402 234 c 1,150,151
 398 222 398 222 390 212 c 0,152,153
 381 204 381 204 369 200 c 1,154,-1
 369 200 l 1,155,156
 381 196 381 196 390 186 c 256,157,158
 399 176 399 176 402 166 c 1,159,-1
 402 166 l 1,141,142
402 234 m 1,160,-1
 402 234 l 1,161,-1
 402 234 l 1,162,-1
 402 234 l 1,163,-1
 402 234 l 1,160,-1
152 198 m 1,164,165
 130 198 130 198 115 212 c 0,166,167
 100 228 100 228 100 250 c 128,-1,168
 100 272 100 272 115 288 c 256,169,170
 130 302 130 302 152 302 c 128,-1,171
 174 302 174 302 189 288 c 256,172,173
 204 274 204 274 205 250 c 0,174,175
 205 228 205 228 189 212 c 0,176,177
 174 198 174 198 152 198 c 1,178,-1
 152 198 l 1,164,165
353 98 m 1,179,180
 331 98 331 98 315 112 c 256,181,182
 300 128 300 128 300 150 c 128,-1,183
 300 172 300 172 315 186 c 0,184,185
 324 196 324 196 336 200 c 1,186,-1
 336 200 l 1,187,188
 324 204 324 204 315 212 c 0,189,190
 300 228 300 228 300 250 c 128,-1,191
 300 272 300 272 315 288 c 256,192,193
 330 302 330 302 353 302 c 0,194,195
 375 302 375 302 390 288 c 0,196,197
 399 278 399 278 402 266 c 1,198,-1
 402 266 l 1,199,200
 406 278 406 278 415 288 c 0,201,202
 430 302 430 302 452 302 c 128,-1,203
 474 302 474 302 490 288 c 256,204,205
 505 274 505 274 505 250 c 0,206,207
 505 228 505 228 490 212 c 0,208,209
 481 204 481 204 469 200 c 1,210,-1
 469 200 l 1,211,212
 481 196 481 196 490 186 c 0,213,214
 505 172 505 172 505 150 c 128,-1,215
 505 128 505 128 490 112 c 256,216,217
 475 98 475 98 452 98 c 0,218,219
 430 98 430 98 415 112 c 0,220,221
 406 122 406 122 402 134 c 1,222,-1
 402 134 l 1,223,224
 398 122 398 122 390 112 c 0,225,226
 375 98 375 98 353 98 c 1,227,-1
 353 98 l 1,179,180
252 298 m 1,228,229
 230 298 230 298 215 312 c 128,-1,230
 200 326 200 326 200 350 c 0,231,232
 200 372 200 372 215 388 c 0,233,234
 231 402 231 402 252 402 c 0,235,236
 274 402 274 402 290 388 c 256,237,238
 305 372 305 372 305 350 c 128,-1,239
 305 328 305 328 290 312 c 256,240,241
 275 298 275 298 252 298 c 1,242,-1
 252 298 l 1,228,229
103 434 m 1,243,-1
 103 434 l 1,244,-1
 103 434 l 1,245,-1
 103 434 l 1,246,-1
 103 434 l 1,243,-1
353 398 m 1,247,248
 331 398 331 398 315 412 c 256,249,250
 300 428 300 428 300 450 c 128,-1,251
 300 472 300 472 315 488 c 256,252,253
 330 502 330 502 353 502 c 0,254,255
 375 502 375 502 390 488 c 256,256,257
 405 474 405 474 405 450 c 0,258,259
 405 428 405 428 390 412 c 256,260,261
 375 398 375 398 353 398 c 1,262,-1
 353 398 l 1,247,248
103 466 m 1,263,264
 107 478 107 478 115 488 c 256,265,266
 124 498 124 498 136 500 c 1,267,-1
 136 500 l 1,268,269
 124 504 124 504 115 512 c 256,270,271
 106 522 106 522 103 534 c 1,272,273
 99 522 99 522 90 512 c 0,274,275
 81 504 81 504 69 500 c 1,276,-1
 69 500 l 1,277,278
 81 496 81 496 90 488 c 0,279,280
 99 478 99 478 103 466 c 1,281,-1
 103 466 l 1,263,264
103 534 m 1,282,-1
 103 534 l 1,283,-1
 103 534 l 1,284,-1
 103 534 l 1,285,-1
 103 534 l 1,282,-1
52 398 m 1,286,287
 30 398 30 398 15 412 c 0,288,289
 0 428 0 428 0 450 c 128,-1,290
 0 472 0 472 15 488 c 0,291,292
 24 498 24 498 36 500 c 1,293,-1
 36 500 l 1,294,295
 24 504 24 504 15 512 c 0,296,297
 0 526 0 526 0 550 c 128,-1,298
 0 574 0 574 15 588 c 0,299,300
 31 602 31 602 52 602 c 256,301,302
 54.4444444444 602.222222222 54.4444444444 602.222222222 56.8148148148 602.222222222 c 0,303,304
 75.7777777778 602.222222222 75.7777777778 602.222222222 90 588 c 0,305,306
 99 578 99 578 103 566 c 1,307,-1
 103 566 l 1,308,309
 107 580 107 580 115 588 c 0,310,311
 130 602 130 602 152 602 c 0,312,313
 154.444444444 602.222222222 154.444444444 602.222222222 156.802469136 602.222222222 c 0,314,315
 175.666666667 602.222222222 175.666666667 602.222222222 189 588 c 256,316,317
 204 572 204 572 205 550 c 0,318,319
 205 528 205 528 189 512 c 0,320,321
 180 504 180 504 169 500 c 1,322,-1
 169 500 l 1,323,324
 181 496 181 496 189 488 c 0,325,326
 204 474 204 474 205 450 c 0,327,328
 205 428 205 428 189 412 c 256,329,330
 174 398 174 398 152 398 c 128,-1,331
 130 398 130 398 115 412 c 0,332,333
 106 422 106 422 103 434 c 1,334,-1
 103 434 l 1,335,336
 99 422 99 422 90 412 c 0,337,338
 74 398 74 398 52 398 c 1,339,-1
 52 398 l 1,286,287
452 498 m 1,340,341
 430 498 430 498 415 512 c 256,342,343
 400 526 400 526 400 550 c 128,-1,344
 400 574 400 574 415 588 c 256,345,346
 430 602 430 602 452 602 c 0,347,348
 454.444444444 602.222222222 454.444444444 602.222222222 456.814814815 602.222222222 c 0,349,350
 475.777777778 602.222222222 475.777777778 602.222222222 490 588 c 256,351,352
 505 572 505 572 505 550 c 128,-1,353
 505 528 505 528 490 512 c 256,354,355
 475 498 475 498 452 498 c 1,356,-1
 452 498 l 1,340,341
EndSplineSet
EndChar

StartChar: ampersand
Encoding: 38 38 6
Width: 600
VWidth: 897
Flags: W
LayerCount: 2
Fore
SplineSet
103 -166 m 1,0,1
 103 -166 l 1,2,-1
 103 -166 l 1,3,4
 103 -166 l 1,5,-1
 103 -166 l 1,0,1
302 -166 m 1,6,7
 302 -166 l 1,8,-1
 302 -166 l 1,9,10
 302 -166 l 1,11,-1
 302 -166 l 1,6,7
502 -166 m 1,12,13
 502 -166 l 1,14,-1
 502 -166 l 1,15,16
 502 -166 l 1,17,-1
 502 -166 l 1,12,13
52 -202 m 1,18,19
 30 -202 30 -202 15 -186 c 128,-1,20
 0 -170 0 -170 0 -150 c 0,21,22
 0 -128 0 -128 15 -114 c 0,23,24
 31 -98 31 -98 52 -96 c 256,25,26
 74 -96 74 -96 90 -114 c 0,27,28
 99 -124 99 -124 103 -134 c 1,29,-1
 103 -134 l 1,30,31
 107 -122 107 -122 115 -114 c 0,32,33
 130 -98 130 -98 152 -96 c 0,34,35
 174 -96 174 -96 189 -114 c 0,36,37
 198 -124 198 -124 202 -134 c 1,38,-1
 202 -134 l 1,39,40
 206 -122 206 -122 215 -114 c 0,41,42
 231 -98 231 -98 252 -96 c 0,43,44
 274 -96 274 -96 290 -114 c 0,45,46
 299 -124 299 -124 302 -134 c 1,47,-1
 302 -134 l 1,48,49
 306 -122 306 -122 315 -114 c 0,50,51
 330 -98 330 -98 353 -96 c 0,52,53
 375 -96 375 -96 390 -114 c 0,54,55
 399 -124 399 -124 402 -134 c 1,56,-1
 402 -134 l 1,57,58
 406 -122 406 -122 415 -114 c 0,59,60
 430 -98 430 -98 452 -96 c 0,61,62
 474 -96 474 -96 490 -114 c 0,63,64
 499 -124 499 -124 502 -134 c 1,65,-1
 502 -134 l 1,66,67
 506 -122 506 -122 515 -114 c 0,68,69
 530 -98 530 -98 553 -96 c 0,70,71
 576 -96 576 -96 590 -114 c 256,72,73
 605.058823529 -128.054901961 605.058823529 -128.054901961 605.058823529 -152.560553633 c 0,74,75
 605.058823529 -172.823529412 605.058823529 -172.823529412 590 -186 c 256,76,77
 575 -200 575 -200 553 -202 c 0,78,79
 531 -202 531 -202 515 -186 c 0,80,81
 506 -176 506 -176 502 -166 c 1,82,83
 498 -178 498 -178 490 -186 c 0,84,85
 475 -200 475 -200 452 -202 c 0,86,87
 430 -202 430 -202 415 -186 c 0,88,89
 406 -176 406 -176 402 -166 c 1,90,91
 398 -178 398 -178 390 -186 c 0,92,93
 375 -200 375 -200 353 -202 c 0,94,95
 331 -202 331 -202 315 -186 c 0,96,97
 306 -176 306 -176 302 -166 c 1,98,99
 298 -178 298 -178 290 -186 c 0,100,101
 275 -200 275 -200 252 -202 c 0,102,103
 230 -202 230 -202 215 -186 c 0,104,105
 206 -176 206 -176 202 -166 c 1,106,-1
 202 -166 l 1,107,108
 198 -178 198 -178 189 -186 c 0,109,110
 174 -200 174 -200 152 -202 c 0,111,112
 130 -202 130 -202 115 -186 c 0,113,114
 106 -176 106 -176 103 -166 c 1,115,-1
 103 -166 l 1,116,117
 99 -178 99 -178 90 -186 c 0,118,119
 74 -200 74 -200 52 -202 c 1,120,-1
 52 -202 l 1,18,19
202 34 m 1,121,-1
 202 34 l 1,122,-1
 202 34 l 1,123,-1
 202 34 l 1,124,-1
 202 34 l 1,121,-1
152 -2 m 1,125,126
 130 -2 130 -2 115 12 c 0,127,128
 100 28 100 28 100 50 c 256,129,130
 100 72 100 72 115 88 c 0,131,132
 128.333333333 102.222222222 128.333333333 102.222222222 147.197530864 102.222222222 c 0,133,134
 149.555555556 102.222222222 149.555555556 102.222222222 152 102 c 0,135,136
 174 102 174 102 189 88 c 0,137,138
 198 78 198 78 202 66 c 1,139,-1
 202 66 l 1,140,141
 206 78 206 78 215 88 c 0,142,143
 229.222222222 102.222222222 229.222222222 102.222222222 247.395061728 102.222222222 c 0,144,145
 249.666666667 102.222222222 249.666666667 102.222222222 252 102 c 0,146,147
 274 102 274 102 290 88 c 0,148,149
 305 72 305 72 305 50 c 256,150,151
 305 28 305 28 290 12 c 0,152,153
 275 -2 275 -2 252 -2 c 0,154,155
 230 -2 230 -2 215 12 c 0,156,157
 206 22 206 22 202 34 c 1,158,159
 198 22 198 22 189 12 c 0,160,161
 174 -2 174 -2 152 -2 c 1,162,-1
 152 -2 l 1,125,126
452 -2 m 1,163,164
 430 -2 430 -2 415 12 c 0,165,166
 400 28 400 28 400 50 c 256,167,168
 400 72 400 72 415 88 c 0,169,170
 428.333333333 102.222222222 428.333333333 102.222222222 447.197530864 102.222222222 c 0,171,172
 449.555555556 102.222222222 449.555555556 102.222222222 452 102 c 0,173,174
 474 102 474 102 490 88 c 0,175,176
 505 72 505 72 505 50 c 256,177,178
 505 28 505 28 490 12 c 0,179,180
 475 -2 475 -2 452 -2 c 1,181,-1
 452 -2 l 1,163,164
353 98 m 1,182,183
 331 98 331 98 315 112 c 256,184,185
 300 128 300 128 300 150 c 128,-1,186
 300 172 300 172 315 186 c 256,187,188
 330 200 330 200 353 202 c 0,189,190
 375 202 375 202 390 186 c 256,191,192
 405 172 405 172 405 150 c 128,-1,193
 405 128 405 128 390 112 c 256,194,195
 375 98 375 98 353 98 c 1,196,-1
 353 98 l 1,182,183
52 98 m 1,197,198
 30 98 30 98 15 112 c 0,199,200
 0 128 0 128 0 150 c 128,-1,201
 0 172 0 172 15 186 c 0,202,203
 24 196 24 196 36 200 c 1,204,-1
 36 200 l 1,205,206
 24 204 24 204 15 212 c 0,207,208
 0 228 0 228 0 250 c 128,-1,209
 0 272 0 272 15 288 c 0,210,211
 31 302 31 302 52 302 c 256,212,213
 74 302 74 302 90 288 c 0,214,215
 104.0625 274.875 104.0625 274.875 104.0625 252.9609375 c 0,216,217
 104.0625 228.071428571 104.0625 228.071428571 90 212 c 0,218,219
 81 204 81 204 69 200 c 1,220,-1
 69 200 l 1,221,222
 81 196 81 196 90 186 c 0,223,224
 104.0625 172.875 104.0625 172.875 104.0625 152.71875 c 0,225,226
 104.0625 128.071428571 104.0625 128.071428571 90 112 c 0,227,228
 74 98 74 98 52 98 c 1,229,-1
 52 98 l 1,197,198
252 198 m 1,230,231
 230 198 230 198 215 212 c 0,232,233
 200 228 200 228 200 250 c 128,-1,234
 200 272 200 272 215 288 c 0,235,236
 231 302 231 302 252 302 c 0,237,238
 274 302 274 302 290 288 c 256,239,240
 305 274 305 274 305 250 c 0,241,242
 305 228 305 228 290 212 c 0,243,244
 275 198 275 198 252 198 c 1,245,-1
 252 198 l 1,230,231
452 198 m 1,246,247
 430 198 430 198 415 212 c 0,248,249
 400 228 400 228 400 250 c 128,-1,250
 400 272 400 272 415 288 c 256,251,252
 430 302 430 302 452 302 c 128,-1,253
 474 302 474 302 490 288 c 256,254,255
 505 274 505 274 505 250 c 0,256,257
 505 228 505 228 490 212 c 0,258,259
 475 198 475 198 452 198 c 1,260,-1
 452 198 l 1,246,247
152 298 m 1,261,262
 130 298 130 298 115 312 c 256,263,264
 100 326 100 326 100 350 c 0,265,266
 100 372 100 372 115 388 c 256,267,268
 130 402 130 402 152 402 c 128,-1,269
 174 402 174 402 189 388 c 256,270,271
 204 372 204 372 205 350 c 0,272,273
 205 328 205 328 189 312 c 256,274,275
 174 298 174 298 152 298 c 1,276,-1
 152 298 l 1,261,262
52 398 m 1,277,278
 30 398 30 398 15 412 c 0,279,280
 0 428 0 428 0 450 c 128,-1,281
 0 472 0 472 15 488 c 0,282,283
 24 498 24 498 36 500 c 1,284,-1
 36 500 l 1,285,286
 24 504 24 504 15 512 c 0,287,288
 0 526 0 526 0 550 c 128,-1,289
 0 574 0 574 15 588 c 0,290,291
 31 602 31 602 52 602 c 256,292,293
 54.4444444444 602.222222222 54.4444444444 602.222222222 56.8148148148 602.222222222 c 0,294,295
 75.7777777778 602.222222222 75.7777777778 602.222222222 90 588 c 0,296,297
 104.0625 573 104.0625 573 104.0625 552.7265625 c 0,298,299
 104.0625 528.071428571 104.0625 528.071428571 90 512 c 0,300,301
 81 504 81 504 69 500 c 1,302,-1
 69 500 l 1,303,304
 81 496 81 496 90 488 c 0,305,306
 104.0625 474.875 104.0625 474.875 104.0625 452.9609375 c 0,307,308
 104.0625 428.071428571 104.0625 428.071428571 90 412 c 0,309,310
 74 398 74 398 52 398 c 1,311,-1
 52 398 l 1,277,278
252 398 m 1,312,313
 230 398 230 398 215 412 c 0,314,315
 200 428 200 428 200 450 c 128,-1,316
 200 472 200 472 215 488 c 0,317,318
 224 498 224 498 236 500 c 1,319,-1
 236 500 l 1,320,321
 224 504 224 504 215 512 c 0,322,323
 200 526 200 526 200 550 c 128,-1,324
 200 574 200 574 215 588 c 0,325,326
 231 602 231 602 252 602 c 0,327,328
 254.444444444 602.222222222 254.444444444 602.222222222 256.814814815 602.222222222 c 0,329,330
 275.777777778 602.222222222 275.777777778 602.222222222 290 588 c 256,331,332
 305 572 305 572 305 550 c 128,-1,333
 305 528 305 528 290 512 c 0,334,335
 281 504 281 504 269 500 c 1,336,-1
 269 500 l 1,337,338
 281 496 281 496 290 488 c 0,339,340
 305 474 305 474 305 450 c 0,341,342
 305 428 305 428 290 412 c 256,343,344
 275 398 275 398 252 398 c 1,345,-1
 252 398 l 1,312,313
152 598 m 1,346,347
 130 598 130 598 115 614 c 256,348,349
 100 628 100 628 100 650 c 128,-1,350
 100 672 100 672 115 686 c 256,351,352
 130 700 130 700 152 702 c 0,353,354
 174 702 174 702 189 686 c 256,355,356
 204 672 204 672 205 650 c 0,357,358
 205 628 205 628 189 614 c 256,359,360
 174 600 174 600 152 598 c 1,361,-1
 152 598 l 1,346,347
EndSplineSet
EndChar

StartChar: quotesingle
Encoding: 39 39 7
Width: 600
VWidth: 897
Flags: W
LayerCount: 2
Fore
SplineSet
103 -166 m 1,0,1
 103 -166 l 1,2,-1
 103 -166 l 1,3,4
 103 -166 l 1,5,-1
 103 -166 l 1,0,1
302 -166 m 1,6,7
 302 -166 l 1,8,-1
 302 -166 l 1,9,10
 302 -166 l 1,11,-1
 302 -166 l 1,6,7
502 -166 m 1,12,13
 502 -166 l 1,14,-1
 502 -166 l 1,15,16
 502 -166 l 1,17,-1
 502 -166 l 1,12,13
52 -202 m 1,18,19
 30 -202 30 -202 15 -186 c 128,-1,20
 0 -170 0 -170 0 -150 c 0,21,22
 0 -128 0 -128 15 -114 c 0,23,24
 31 -98 31 -98 52 -96 c 256,25,26
 74 -96 74 -96 90 -114 c 0,27,28
 99 -124 99 -124 103 -134 c 1,29,-1
 103 -134 l 1,30,31
 107 -122 107 -122 115 -114 c 0,32,33
 130 -98 130 -98 152 -96 c 0,34,35
 174 -96 174 -96 189 -114 c 0,36,37
 198 -124 198 -124 202 -134 c 1,38,-1
 202 -134 l 1,39,40
 206 -122 206 -122 215 -114 c 0,41,42
 231 -98 231 -98 252 -96 c 0,43,44
 274 -96 274 -96 290 -114 c 0,45,46
 299 -124 299 -124 302 -134 c 1,47,-1
 302 -134 l 1,48,49
 306 -122 306 -122 315 -114 c 0,50,51
 330 -98 330 -98 353 -96 c 0,52,53
 375 -96 375 -96 390 -114 c 0,54,55
 399 -124 399 -124 402 -134 c 1,56,-1
 402 -134 l 1,57,58
 406 -122 406 -122 415 -114 c 0,59,60
 430 -98 430 -98 452 -96 c 0,61,62
 474 -96 474 -96 490 -114 c 0,63,64
 499 -124 499 -124 502 -134 c 1,65,-1
 502 -134 l 1,66,67
 506 -122 506 -122 515 -114 c 0,68,69
 530 -98 530 -98 553 -96 c 0,70,71
 576 -96 576 -96 590 -114 c 256,72,73
 605.058823529 -128.054901961 605.058823529 -128.054901961 605.058823529 -152.560553633 c 0,74,75
 605.058823529 -172.823529412 605.058823529 -172.823529412 590 -186 c 256,76,77
 575 -200 575 -200 553 -202 c 0,78,79
 531 -202 531 -202 515 -186 c 0,80,81
 506 -176 506 -176 502 -166 c 1,82,83
 498 -178 498 -178 490 -186 c 0,84,85
 475 -200 475 -200 452 -202 c 0,86,87
 430 -202 430 -202 415 -186 c 0,88,89
 406 -176 406 -176 402 -166 c 1,90,91
 398 -178 398 -178 390 -186 c 0,92,93
 375 -200 375 -200 353 -202 c 0,94,95
 331 -202 331 -202 315 -186 c 0,96,97
 306 -176 306 -176 302 -166 c 1,98,99
 298 -178 298 -178 290 -186 c 0,100,101
 275 -200 275 -200 252 -202 c 0,102,103
 230 -202 230 -202 215 -186 c 0,104,105
 206 -176 206 -176 202 -166 c 1,106,-1
 202 -166 l 1,107,108
 198 -178 198 -178 189 -186 c 0,109,110
 174 -200 174 -200 152 -202 c 0,111,112
 130 -202 130 -202 115 -186 c 0,113,114
 106 -176 106 -176 103 -166 c 1,115,-1
 103 -166 l 1,116,117
 99 -178 99 -178 90 -186 c 0,118,119
 74 -200 74 -200 52 -202 c 1,120,-1
 52 -202 l 1,18,19
152 398 m 1,121,122
 130 398 130 398 115 412 c 256,123,124
 100 428 100 428 100 450 c 128,-1,125
 100 472 100 472 115 488 c 256,126,127
 130 502 130 502 152 502 c 128,-1,128
 174 502 174 502 189 488 c 256,129,130
 204 474 204 474 205 450 c 0,131,132
 205 428 205 428 189 412 c 256,133,134
 174 398 174 398 152 398 c 1,135,-1
 152 398 l 1,121,122
252 498 m 1,136,137
 230 498 230 498 215 512 c 128,-1,138
 200 526 200 526 200 550 c 128,-1,139
 200 574 200 574 215 588 c 0,140,141
 224 598 224 598 236 600 c 1,142,-1
 236 600 l 1,143,144
 224 604 224 604 215 614 c 0,145,146
 200 628 200 628 200 650 c 128,-1,147
 200 672 200 672 215 686 c 0,148,149
 231 700 231 700 252 702 c 0,150,151
 274 702 274 702 290 686 c 256,152,153
 305 672 305 672 305 650 c 128,-1,154
 305 628 305 628 290 614 c 0,155,156
 281 606 281 606 269 600 c 1,157,-1
 269 600 l 1,158,159
 281 596 281 596 290 588 c 0,160,161
 305 572 305 572 305 550 c 128,-1,162
 305 528 305 528 290 512 c 256,163,164
 275 498 275 498 252 498 c 1,165,-1
 252 498 l 1,136,137
EndSplineSet
EndChar

StartChar: parenleft
Encoding: 40 40 8
Width: 600
VWidth: 897
Flags: W
LayerCount: 2
Fore
SplineSet
103 -166 m 1,0,1
 103 -166 l 1,2,-1
 103 -166 l 1,3,4
 103 -166 l 1,5,-1
 103 -166 l 1,0,1
302 -166 m 1,6,7
 302 -166 l 1,8,-1
 302 -166 l 1,9,10
 302 -166 l 1,11,-1
 302 -166 l 1,6,7
502 -166 m 1,12,13
 502 -166 l 1,14,-1
 502 -166 l 1,15,16
 502 -166 l 1,17,-1
 502 -166 l 1,12,13
52 -202 m 1,18,19
 30 -202 30 -202 15 -186 c 128,-1,20
 0 -170 0 -170 0 -150 c 0,21,22
 0 -128 0 -128 15 -114 c 0,23,24
 31 -98 31 -98 52 -96 c 256,25,26
 74 -96 74 -96 90 -114 c 0,27,28
 99 -124 99 -124 103 -134 c 1,29,-1
 103 -134 l 1,30,31
 107 -122 107 -122 115 -114 c 0,32,33
 130 -98 130 -98 152 -96 c 0,34,35
 174 -96 174 -96 189 -114 c 0,36,37
 198 -124 198 -124 202 -134 c 1,38,-1
 202 -134 l 1,39,40
 206 -122 206 -122 215 -114 c 0,41,42
 231 -98 231 -98 252 -96 c 0,43,44
 274 -96 274 -96 290 -114 c 0,45,46
 299 -124 299 -124 302 -134 c 1,47,-1
 302 -134 l 1,48,49
 306 -122 306 -122 315 -114 c 0,50,51
 330 -98 330 -98 353 -96 c 0,52,53
 375 -96 375 -96 390 -114 c 0,54,55
 399 -124 399 -124 402 -134 c 1,56,-1
 402 -134 l 1,57,58
 406 -122 406 -122 415 -114 c 0,59,60
 430 -98 430 -98 452 -96 c 0,61,62
 474 -96 474 -96 490 -114 c 0,63,64
 499 -124 499 -124 502 -134 c 1,65,-1
 502 -134 l 1,66,67
 506 -122 506 -122 515 -114 c 0,68,69
 530 -98 530 -98 553 -96 c 0,70,71
 576 -96 576 -96 590 -114 c 256,72,73
 605.058823529 -128.054901961 605.058823529 -128.054901961 605.058823529 -152.560553633 c 0,74,75
 605.058823529 -172.823529412 605.058823529 -172.823529412 590 -186 c 256,76,77
 575 -200 575 -200 553 -202 c 0,78,79
 531 -202 531 -202 515 -186 c 0,80,81
 506 -176 506 -176 502 -166 c 1,82,83
 498 -178 498 -178 490 -186 c 0,84,85
 475 -200 475 -200 452 -202 c 0,86,87
 430 -202 430 -202 415 -186 c 0,88,89
 406 -176 406 -176 402 -166 c 1,90,91
 398 -178 398 -178 390 -186 c 0,92,93
 375 -200 375 -200 353 -202 c 0,94,95
 331 -202 331 -202 315 -186 c 0,96,97
 306 -176 306 -176 302 -166 c 1,98,99
 298 -178 298 -178 290 -186 c 0,100,101
 275 -200 275 -200 252 -202 c 0,102,103
 230 -202 230 -202 215 -186 c 0,104,105
 206 -176 206 -176 202 -166 c 1,106,-1
 202 -166 l 1,107,108
 198 -178 198 -178 189 -186 c 0,109,110
 174 -200 174 -200 152 -202 c 0,111,112
 130 -202 130 -202 115 -186 c 0,113,114
 106 -176 106 -176 103 -166 c 1,115,-1
 103 -166 l 1,116,117
 99 -178 99 -178 90 -186 c 0,118,119
 74 -200 74 -200 52 -202 c 1,120,-1
 52 -202 l 1,18,19
353 -2 m 1,121,122
 331 -2 331 -2 315 12 c 0,123,124
 300 28 300 28 300 50 c 256,125,126
 300 72 300 72 315 88 c 0,127,128
 328.333333333 102.222222222 328.333333333 102.222222222 347.987654321 102.222222222 c 0,129,130
 350.444444444 102.222222222 350.444444444 102.222222222 353 102 c 0,131,132
 375 102 375 102 390 88 c 0,133,134
 405 72 405 72 405 50 c 256,135,136
 405 28 405 28 390 12 c 0,137,138
 375 -2 375 -2 353 -2 c 1,139,-1
 353 -2 l 1,121,122
252 98 m 1,140,141
 230 98 230 98 215 112 c 0,142,143
 200 128 200 128 200 150 c 128,-1,144
 200 172 200 172 215 186 c 0,145,146
 231 200 231 200 252 202 c 0,147,148
 274 202 274 202 290 186 c 256,149,150
 305 172 305 172 305 150 c 128,-1,151
 305 128 305 128 290 112 c 256,152,153
 275 98 275 98 252 98 c 1,154,-1
 252 98 l 1,140,141
152 198 m 1,155,156
 130 198 130 198 115 212 c 0,157,158
 100 228 100 228 100 250 c 128,-1,159
 100 272 100 272 115 288 c 0,160,161
 124 298 124 298 136 300 c 1,162,-1
 136 300 l 1,163,164
 124 304 124 304 115 312 c 0,165,166
 100 326 100 326 100 350 c 0,167,168
 100 372 100 372 115 388 c 0,169,170
 124 398 124 398 136 400 c 1,171,-1
 136 400 l 1,172,173
 124 404 124 404 115 412 c 0,174,175
 100 428 100 428 100 450 c 128,-1,176
 100 472 100 472 115 488 c 256,177,178
 130 502 130 502 152 502 c 128,-1,179
 174 502 174 502 189 488 c 256,180,181
 204 474 204 474 205 450 c 0,182,183
 205 428 205 428 189 412 c 0,184,185
 180 404 180 404 169 400 c 1,186,-1
 169 400 l 1,187,188
 181 396 181 396 189 388 c 0,189,190
 204 372 204 372 205 350 c 0,191,192
 205 328 205 328 189 312 c 0,193,194
 180 304 180 304 169 300 c 1,195,-1
 169 300 l 1,196,197
 181 296 181 296 189 288 c 0,198,199
 204 274 204 274 205 250 c 0,200,201
 205 228 205 228 189 212 c 0,202,203
 174 198 174 198 152 198 c 1,204,-1
 152 198 l 1,155,156
252 498 m 1,205,206
 230 498 230 498 215 512 c 128,-1,207
 200 526 200 526 200 550 c 128,-1,208
 200 574 200 574 215 588 c 0,209,210
 231 602 231 602 252 602 c 0,211,212
 254.444444444 602.222222222 254.444444444 602.222222222 256.814814815 602.222222222 c 0,213,214
 275.777777778 602.222222222 275.777777778 602.222222222 290 588 c 256,215,216
 305 572 305 572 305 550 c 128,-1,217
 305 528 305 528 290 512 c 256,218,219
 275 498 275 498 252 498 c 1,220,-1
 252 498 l 1,205,206
353 598 m 1,221,222
 331 598 331 598 315 614 c 256,223,224
 300 628 300 628 300 650 c 128,-1,225
 300 672 300 672 315 686 c 256,226,227
 330 700 330 700 353 702 c 0,228,229
 375 702 375 702 390 686 c 256,230,231
 405 672 405 672 405 650 c 128,-1,232
 405 628 405 628 390 614 c 256,233,234
 375 600 375 600 353 598 c 1,235,-1
 353 598 l 1,221,222
EndSplineSet
EndChar

StartChar: parenright
Encoding: 41 41 9
Width: 600
VWidth: 897
Flags: W
LayerCount: 2
Fore
SplineSet
103 -166 m 1,0,1
 103 -166 l 1,2,-1
 103 -166 l 1,3,4
 103 -166 l 1,5,-1
 103 -166 l 1,0,1
302 -166 m 1,6,7
 302 -166 l 1,8,-1
 302 -166 l 1,9,10
 302 -166 l 1,11,-1
 302 -166 l 1,6,7
502 -166 m 1,12,13
 502 -166 l 1,14,-1
 502 -166 l 1,15,16
 502 -166 l 1,17,-1
 502 -166 l 1,12,13
52 -202 m 1,18,19
 30 -202 30 -202 15 -186 c 128,-1,20
 0 -170 0 -170 0 -150 c 0,21,22
 0 -128 0 -128 15 -114 c 0,23,24
 31 -98 31 -98 52 -96 c 256,25,26
 74 -96 74 -96 90 -114 c 0,27,28
 99 -124 99 -124 103 -134 c 1,29,-1
 103 -134 l 1,30,31
 107 -122 107 -122 115 -114 c 0,32,33
 130 -98 130 -98 152 -96 c 0,34,35
 174 -96 174 -96 189 -114 c 0,36,37
 198 -124 198 -124 202 -134 c 1,38,-1
 202 -134 l 1,39,40
 206 -122 206 -122 215 -114 c 0,41,42
 231 -98 231 -98 252 -96 c 0,43,44
 274 -96 274 -96 290 -114 c 0,45,46
 299 -124 299 -124 302 -134 c 1,47,-1
 302 -134 l 1,48,49
 306 -122 306 -122 315 -114 c 0,50,51
 330 -98 330 -98 353 -96 c 0,52,53
 375 -96 375 -96 390 -114 c 0,54,55
 399 -124 399 -124 402 -134 c 1,56,-1
 402 -134 l 1,57,58
 406 -122 406 -122 415 -114 c 0,59,60
 430 -98 430 -98 452 -96 c 0,61,62
 474 -96 474 -96 490 -114 c 0,63,64
 499 -124 499 -124 502 -134 c 1,65,-1
 502 -134 l 1,66,67
 506 -122 506 -122 515 -114 c 0,68,69
 530 -98 530 -98 553 -96 c 0,70,71
 576 -96 576 -96 590 -114 c 256,72,73
 605.058823529 -128.054901961 605.058823529 -128.054901961 605.058823529 -152.560553633 c 0,74,75
 605.058823529 -172.823529412 605.058823529 -172.823529412 590 -186 c 256,76,77
 575 -200 575 -200 553 -202 c 0,78,79
 531 -202 531 -202 515 -186 c 0,80,81
 506 -176 506 -176 502 -166 c 1,82,83
 498 -178 498 -178 490 -186 c 0,84,85
 475 -200 475 -200 452 -202 c 0,86,87
 430 -202 430 -202 415 -186 c 0,88,89
 406 -176 406 -176 402 -166 c 1,90,91
 398 -178 398 -178 390 -186 c 0,92,93
 375 -200 375 -200 353 -202 c 0,94,95
 331 -202 331 -202 315 -186 c 0,96,97
 306 -176 306 -176 302 -166 c 1,98,99
 298 -178 298 -178 290 -186 c 0,100,101
 275 -200 275 -200 252 -202 c 0,102,103
 230 -202 230 -202 215 -186 c 0,104,105
 206 -176 206 -176 202 -166 c 1,106,-1
 202 -166 l 1,107,108
 198 -178 198 -178 189 -186 c 0,109,110
 174 -200 174 -200 152 -202 c 0,111,112
 130 -202 130 -202 115 -186 c 0,113,114
 106 -176 106 -176 103 -166 c 1,115,-1
 103 -166 l 1,116,117
 99 -178 99 -178 90 -186 c 0,118,119
 74 -200 74 -200 52 -202 c 1,120,-1
 52 -202 l 1,18,19
152 -2 m 1,121,122
 130 -2 130 -2 115 12 c 0,123,124
 100 28 100 28 100 50 c 256,125,126
 100 72 100 72 115 88 c 0,127,128
 128.333333333 102.222222222 128.333333333 102.222222222 147.197530864 102.222222222 c 0,129,130
 149.555555556 102.222222222 149.555555556 102.222222222 152 102 c 0,131,132
 174 102 174 102 189 88 c 0,133,134
 204 72 204 72 205 50 c 256,135,136
 205 28 205 28 189 12 c 0,137,138
 174 -2 174 -2 152 -2 c 1,139,-1
 152 -2 l 1,121,122
252 98 m 1,140,141
 230 98 230 98 215 112 c 0,142,143
 200 128 200 128 200 150 c 128,-1,144
 200 172 200 172 215 186 c 0,145,146
 231 200 231 200 252 202 c 0,147,148
 274 202 274 202 290 186 c 256,149,150
 305 172 305 172 305 150 c 128,-1,151
 305 128 305 128 290 112 c 256,152,153
 275 98 275 98 252 98 c 1,154,-1
 252 98 l 1,140,141
353 198 m 1,155,156
 331 198 331 198 315 212 c 0,157,158
 300 228 300 228 300 250 c 128,-1,159
 300 272 300 272 315 288 c 0,160,161
 324 298 324 298 336 300 c 1,162,-1
 336 300 l 1,163,164
 324 304 324 304 315 312 c 0,165,166
 300 326 300 326 300 350 c 0,167,168
 300 372 300 372 315 388 c 0,169,170
 324 398 324 398 336 400 c 1,171,-1
 336 400 l 1,172,173
 324 404 324 404 315 412 c 0,174,175
 300 428 300 428 300 450 c 128,-1,176
 300 472 300 472 315 488 c 256,177,178
 330 502 330 502 353 502 c 0,179,180
 375 502 375 502 390 488 c 256,181,182
 405 474 405 474 405 450 c 0,183,184
 405 428 405 428 390 412 c 0,185,186
 381 404 381 404 369 400 c 1,187,-1
 369 400 l 1,188,189
 381 396 381 396 390 388 c 0,190,191
 405 372 405 372 405 350 c 128,-1,192
 405 328 405 328 390 312 c 0,193,194
 381 304 381 304 369 300 c 1,195,-1
 369 300 l 1,196,197
 381 296 381 296 390 288 c 0,198,199
 405 274 405 274 405 250 c 0,200,201
 405 228 405 228 390 212 c 0,202,203
 375 198 375 198 353 198 c 1,204,-1
 353 198 l 1,155,156
252 498 m 1,205,206
 230 498 230 498 215 512 c 128,-1,207
 200 526 200 526 200 550 c 128,-1,208
 200 574 200 574 215 588 c 0,209,210
 231 602 231 602 252 602 c 0,211,212
 254.444444444 602.222222222 254.444444444 602.222222222 256.814814815 602.222222222 c 0,213,214
 275.777777778 602.222222222 275.777777778 602.222222222 290 588 c 256,215,216
 305 572 305 572 305 550 c 128,-1,217
 305 528 305 528 290 512 c 256,218,219
 275 498 275 498 252 498 c 1,220,-1
 252 498 l 1,205,206
152 598 m 1,221,222
 130 598 130 598 115 614 c 256,223,224
 100 628 100 628 100 650 c 128,-1,225
 100 672 100 672 115 686 c 256,226,227
 130 700 130 700 152 702 c 0,228,229
 174 702 174 702 189 686 c 256,230,231
 204 672 204 672 205 650 c 0,232,233
 205 628 205 628 189 614 c 256,234,235
 174 600 174 600 152 598 c 1,236,-1
 152 598 l 1,221,222
EndSplineSet
EndChar

StartChar: asterisk
Encoding: 42 42 10
Width: 600
VWidth: 897
Flags: W
LayerCount: 2
Fore
SplineSet
103 -166 m 1,0,1
 103 -166 l 1,2,-1
 103 -166 l 1,3,4
 103 -166 l 1,5,-1
 103 -166 l 1,0,1
302 -166 m 1,6,7
 302 -166 l 1,8,-1
 302 -166 l 1,9,10
 302 -166 l 1,11,-1
 302 -166 l 1,6,7
502 -166 m 1,12,13
 502 -166 l 1,14,-1
 502 -166 l 1,15,16
 502 -166 l 1,17,-1
 502 -166 l 1,12,13
52 -202 m 1,18,19
 30 -202 30 -202 15 -186 c 128,-1,20
 0 -170 0 -170 0 -150 c 0,21,22
 0 -128 0 -128 15 -114 c 0,23,24
 31 -98 31 -98 52 -96 c 256,25,26
 74 -96 74 -96 90 -114 c 0,27,28
 99 -124 99 -124 103 -134 c 1,29,-1
 103 -134 l 1,30,31
 107 -122 107 -122 115 -114 c 0,32,33
 130 -98 130 -98 152 -96 c 0,34,35
 174 -96 174 -96 189 -114 c 0,36,37
 198 -124 198 -124 202 -134 c 1,38,-1
 202 -134 l 1,39,40
 206 -122 206 -122 215 -114 c 0,41,42
 231 -98 231 -98 252 -96 c 0,43,44
 274 -96 274 -96 290 -114 c 0,45,46
 299 -124 299 -124 302 -134 c 1,47,-1
 302 -134 l 1,48,49
 306 -122 306 -122 315 -114 c 0,50,51
 330 -98 330 -98 353 -96 c 0,52,53
 375 -96 375 -96 390 -114 c 0,54,55
 399 -124 399 -124 402 -134 c 1,56,-1
 402 -134 l 1,57,58
 406 -122 406 -122 415 -114 c 0,59,60
 430 -98 430 -98 452 -96 c 0,61,62
 474 -96 474 -96 490 -114 c 0,63,64
 499 -124 499 -124 502 -134 c 1,65,-1
 502 -134 l 1,66,67
 506 -122 506 -122 515 -114 c 0,68,69
 530 -98 530 -98 553 -96 c 0,70,71
 576 -96 576 -96 590 -114 c 256,72,73
 605.058823529 -128.054901961 605.058823529 -128.054901961 605.058823529 -152.560553633 c 0,74,75
 605.058823529 -172.823529412 605.058823529 -172.823529412 590 -186 c 256,76,77
 575 -200 575 -200 553 -202 c 0,78,79
 531 -202 531 -202 515 -186 c 0,80,81
 506 -176 506 -176 502 -166 c 1,82,83
 498 -178 498 -178 490 -186 c 0,84,85
 475 -200 475 -200 452 -202 c 0,86,87
 430 -202 430 -202 415 -186 c 0,88,89
 406 -176 406 -176 402 -166 c 1,90,91
 398 -178 398 -178 390 -186 c 0,92,93
 375 -200 375 -200 353 -202 c 0,94,95
 331 -202 331 -202 315 -186 c 0,96,97
 306 -176 306 -176 302 -166 c 1,98,99
 298 -178 298 -178 290 -186 c 0,100,101
 275 -200 275 -200 252 -202 c 0,102,103
 230 -202 230 -202 215 -186 c 0,104,105
 206 -176 206 -176 202 -166 c 1,106,-1
 202 -166 l 1,107,108
 198 -178 198 -178 189 -186 c 0,109,110
 174 -200 174 -200 152 -202 c 0,111,112
 130 -202 130 -202 115 -186 c 0,113,114
 106 -176 106 -176 103 -166 c 1,115,-1
 103 -166 l 1,116,117
 99 -178 99 -178 90 -186 c 0,118,119
 74 -200 74 -200 52 -202 c 1,120,-1
 52 -202 l 1,18,19
52 98 m 1,121,122
 30 98 30 98 15 112 c 0,123,124
 0 128 0 128 0 150 c 128,-1,125
 0 172 0 172 15 186 c 0,126,127
 31 200 31 200 52 202 c 256,128,129
 74 202 74 202 90 186 c 0,130,131
 104.0625 172.875 104.0625 172.875 104.0625 152.71875 c 0,132,133
 104.0625 128.071428571 104.0625 128.071428571 90 112 c 0,134,135
 74 98 74 98 52 98 c 1,136,-1
 52 98 l 1,121,122
452 98 m 1,137,138
 430 98 430 98 415 112 c 256,139,140
 400 128 400 128 400 150 c 128,-1,141
 400 172 400 172 415 186 c 256,142,143
 430 200 430 200 452 202 c 0,144,145
 474 202 474 202 490 186 c 256,146,147
 505 172 505 172 505 150 c 128,-1,148
 505 128 505 128 490 112 c 256,149,150
 475 98 475 98 452 98 c 1,151,-1
 452 98 l 1,137,138
202 234 m 1,152,-1
 202 234 l 1,153,-1
 202 234 l 1,154,-1
 202 234 l 1,155,-1
 202 234 l 1,152,-1
202 434 m 1,156,-1
 202 434 l 1,157,-1
 202 434 l 1,158,-1
 202 434 l 1,159,-1
 202 434 l 1,156,-1
52 498 m 1,160,161
 30 498 30 498 15 512 c 128,-1,162
 0 526 0 526 0 550 c 128,-1,163
 0 574 0 574 15 588 c 0,164,165
 31 602 31 602 52 602 c 256,166,167
 54.4444444444 602.222222222 54.4444444444 602.222222222 56.8148148148 602.222222222 c 0,168,169
 75.7777777778 602.222222222 75.7777777778 602.222222222 90 588 c 0,170,171
 104.0625 573 104.0625 573 104.0625 552.7265625 c 0,172,173
 104.0625 528.071428571 104.0625 528.071428571 90 512 c 0,174,175
 74 498 74 498 52 498 c 1,176,-1
 52 498 l 1,160,161
452 498 m 1,177,178
 430 498 430 498 415 512 c 256,179,180
 400 526 400 526 400 550 c 128,-1,181
 400 574 400 574 415 588 c 256,182,183
 430 602 430 602 452 602 c 0,184,185
 454.444444444 602.222222222 454.444444444 602.222222222 456.814814815 602.222222222 c 0,186,187
 475.777777778 602.222222222 475.777777778 602.222222222 490 588 c 256,188,189
 505 572 505 572 505 550 c 128,-1,190
 505 528 505 528 490 512 c 256,191,192
 475 498 475 498 452 498 c 1,193,-1
 452 498 l 1,177,178
252 -2 m 1,194,195
 230 -2 230 -2 215 12 c 0,196,197
 200 28 200 28 200 50 c 256,198,199
 200 72 200 72 215 88 c 0,200,201
 224 96 224 96 236 100 c 1,202,-1
 236 100 l 1,203,204
 224 104 224 104 215 112 c 0,205,206
 200 128 200 128 200 150 c 128,-1,207
 200 172 200 172 215 186 c 0,208,209
 224 196 224 196 236 200 c 1,210,-1
 236 200 l 1,211,212
 224 204 224 204 215 212 c 0,213,214
 206 222 206 222 202 234 c 1,215,216
 198 222 198 222 189 212 c 0,217,218
 174 198 174 198 152 198 c 128,-1,219
 130 198 130 198 115 212 c 0,220,221
 100 228 100 228 100 250 c 128,-1,222
 100 272 100 272 115 288 c 256,223,224
 130 302 130 302 152 302 c 128,-1,225
 174 302 174 302 189 288 c 0,226,227
 198 278 198 278 202 266 c 1,228,-1
 202 266 l 1,229,230
 206 278 206 278 215 288 c 128,-1,231
 224 298 224 298 236 300 c 1,232,-1
 236 300 l 1,233,234
 224 304 224 304 215 312 c 0,235,236
 200 326 200 326 200 350 c 0,237,238
 200 372 200 372 215 388 c 0,239,240
 224 398 224 398 236 400 c 1,241,-1
 236 400 l 1,242,243
 224 404 224 404 215 412 c 0,244,245
 206 422 206 422 202 434 c 1,246,247
 198 422 198 422 189 412 c 0,248,249
 174 398 174 398 152 398 c 128,-1,250
 130 398 130 398 115 412 c 256,251,252
 100 428 100 428 100 450 c 128,-1,253
 100 472 100 472 115 488 c 256,254,255
 130 502 130 502 152 502 c 128,-1,256
 174 502 174 502 189 488 c 0,257,258
 198 478 198 478 202 466 c 1,259,-1
 202 466 l 1,260,261
 206 478 206 478 215 488 c 128,-1,262
 224 498 224 498 236 500 c 1,263,-1
 236 500 l 1,264,265
 224 504 224 504 215 512 c 0,266,267
 200 526 200 526 200 550 c 128,-1,268
 200 574 200 574 215 588 c 0,269,270
 224 598 224 598 236 600 c 1,271,-1
 236 600 l 1,272,273
 224 604 224 604 215 614 c 0,274,275
 200 628 200 628 200 650 c 128,-1,276
 200 672 200 672 215 686 c 0,277,278
 231 700 231 700 252 702 c 0,279,280
 274 702 274 702 290 686 c 256,281,282
 305 672 305 672 305 650 c 128,-1,283
 305 628 305 628 290 614 c 0,284,285
 281 606 281 606 269 600 c 1,286,-1
 269 600 l 1,287,288
 281 596 281 596 290 588 c 0,289,290
 305 572 305 572 305 550 c 128,-1,291
 305 528 305 528 290 512 c 0,292,293
 281 504 281 504 269 500 c 1,294,-1
 269 500 l 1,295,296
 281 496 281 496 290 488 c 0,297,298
 299 478 299 478 302 466 c 1,299,-1
 302 466 l 1,300,301
 306 478 306 478 315 488 c 0,302,303
 330 502 330 502 353 502 c 0,304,305
 375 502 375 502 390 488 c 256,306,307
 405 474 405 474 405 450 c 0,308,309
 405 428 405 428 390 412 c 256,310,311
 375 398 375 398 353 398 c 128,-1,312
 331 398 331 398 315 412 c 0,313,314
 306 422 306 422 302 434 c 1,315,316
 298 422 298 422 290 412 c 0,317,318
 281 404 281 404 269 400 c 1,319,-1
 269 400 l 1,320,321
 281 396 281 396 290 388 c 0,322,323
 305 372 305 372 305 350 c 128,-1,324
 305 328 305 328 290 312 c 0,325,326
 281 304 281 304 269 300 c 1,327,-1
 269 300 l 1,328,329
 281 296 281 296 290 288 c 0,330,331
 299 278 299 278 302 266 c 1,332,-1
 302 266 l 1,333,334
 306 278 306 278 315 288 c 0,335,336
 330 302 330 302 353 302 c 0,337,338
 375 302 375 302 390 288 c 256,339,340
 405 274 405 274 405 250 c 0,341,342
 405 228 405 228 390 212 c 0,343,344
 375 198 375 198 353 198 c 128,-1,345
 331 198 331 198 315 212 c 0,346,347
 306 222 306 222 302 234 c 1,348,349
 298 222 298 222 290 212 c 0,350,351
 281 204 281 204 269 200 c 1,352,-1
 269 200 l 1,353,354
 281 196 281 196 290 186 c 0,355,356
 305 172 305 172 305 150 c 128,-1,357
 305 128 305 128 290 112 c 0,358,359
 281 102 281 102 269 100 c 1,360,-1
 269 100 l 1,361,362
 281 96 281 96 290 88 c 0,363,364
 305 72 305 72 305 50 c 256,365,366
 305 28 305 28 290 12 c 0,367,368
 275 -2 275 -2 252 -2 c 1,369,-1
 252 -2 l 1,194,195
EndSplineSet
EndChar

StartChar: plus
Encoding: 43 43 11
Width: 600
VWidth: 897
Flags: W
LayerCount: 2
Fore
SplineSet
103 -166 m 1,0,1
 103 -166 l 1,2,-1
 103 -166 l 1,3,4
 103 -166 l 1,5,-1
 103 -166 l 1,0,1
302 -166 m 1,6,7
 302 -166 l 1,8,-1
 302 -166 l 1,9,10
 302 -166 l 1,11,-1
 302 -166 l 1,6,7
502 -166 m 1,12,13
 502 -166 l 1,14,-1
 502 -166 l 1,15,16
 502 -166 l 1,17,-1
 502 -166 l 1,12,13
52 -202 m 1,18,19
 30 -202 30 -202 15 -186 c 128,-1,20
 0 -170 0 -170 0 -150 c 0,21,22
 0 -128 0 -128 15 -114 c 0,23,24
 31 -98 31 -98 52 -96 c 256,25,26
 74 -96 74 -96 90 -114 c 0,27,28
 99 -124 99 -124 103 -134 c 1,29,-1
 103 -134 l 1,30,31
 107 -122 107 -122 115 -114 c 0,32,33
 130 -98 130 -98 152 -96 c 0,34,35
 174 -96 174 -96 189 -114 c 0,36,37
 198 -124 198 -124 202 -134 c 1,38,-1
 202 -134 l 1,39,40
 206 -122 206 -122 215 -114 c 0,41,42
 231 -98 231 -98 252 -96 c 0,43,44
 274 -96 274 -96 290 -114 c 0,45,46
 299 -124 299 -124 302 -134 c 1,47,-1
 302 -134 l 1,48,49
 306 -122 306 -122 315 -114 c 0,50,51
 330 -98 330 -98 353 -96 c 0,52,53
 375 -96 375 -96 390 -114 c 0,54,55
 399 -124 399 -124 402 -134 c 1,56,-1
 402 -134 l 1,57,58
 406 -122 406 -122 415 -114 c 0,59,60
 430 -98 430 -98 452 -96 c 0,61,62
 474 -96 474 -96 490 -114 c 0,63,64
 499 -124 499 -124 502 -134 c 1,65,-1
 502 -134 l 1,66,67
 506 -122 506 -122 515 -114 c 0,68,69
 530 -98 530 -98 553 -96 c 0,70,71
 576 -96 576 -96 590 -114 c 256,72,73
 605.058823529 -128.054901961 605.058823529 -128.054901961 605.058823529 -152.560553633 c 0,74,75
 605.058823529 -172.823529412 605.058823529 -172.823529412 590 -186 c 256,76,77
 575 -200 575 -200 553 -202 c 0,78,79
 531 -202 531 -202 515 -186 c 0,80,81
 506 -176 506 -176 502 -166 c 1,82,83
 498 -178 498 -178 490 -186 c 0,84,85
 475 -200 475 -200 452 -202 c 0,86,87
 430 -202 430 -202 415 -186 c 0,88,89
 406 -176 406 -176 402 -166 c 1,90,91
 398 -178 398 -178 390 -186 c 0,92,93
 375 -200 375 -200 353 -202 c 0,94,95
 331 -202 331 -202 315 -186 c 0,96,97
 306 -176 306 -176 302 -166 c 1,98,99
 298 -178 298 -178 290 -186 c 0,100,101
 275 -200 275 -200 252 -202 c 0,102,103
 230 -202 230 -202 215 -186 c 0,104,105
 206 -176 206 -176 202 -166 c 1,106,-1
 202 -166 l 1,107,108
 198 -178 198 -178 189 -186 c 0,109,110
 174 -200 174 -200 152 -202 c 0,111,112
 130 -202 130 -202 115 -186 c 0,113,114
 106 -176 106 -176 103 -166 c 1,115,-1
 103 -166 l 1,116,117
 99 -178 99 -178 90 -186 c 0,118,119
 74 -200 74 -200 52 -202 c 1,120,-1
 52 -202 l 1,18,19
103 334 m 1,121,-1
 103 334 l 1,122,-1
 103 334 l 1,123,-1
 103 334 l 1,124,-1
 103 334 l 1,121,-1
302 334 m 1,125,-1
 302 334 l 1,126,-1
 302 334 l 1,127,-1
 302 334 l 1,128,-1
 302 334 l 1,125,-1
252 98 m 1,129,130
 230 98 230 98 215 112 c 0,131,132
 200 128 200 128 200 150 c 128,-1,133
 200 172 200 172 215 186 c 0,134,135
 224 196 224 196 236 200 c 1,136,-1
 236 200 l 1,137,138
 224 204 224 204 215 212 c 0,139,140
 200 228 200 228 200 250 c 128,-1,141
 200 272 200 272 215 288 c 0,142,143
 224 298 224 298 236 300 c 1,144,-1
 236 300 l 1,145,146
 224 304 224 304 215 312 c 0,147,148
 206 322 206 322 202 334 c 1,149,150
 198 322 198 322 189 312 c 0,151,152
 174 298 174 298 152 298 c 128,-1,153
 130 298 130 298 115 312 c 0,154,155
 106 322 106 322 103 334 c 1,156,-1
 103 334 l 1,157,158
 99 322 99 322 90 312 c 0,159,160
 74 298 74 298 52 298 c 256,161,162
 30 298 30 298 15 312 c 128,-1,163
 0 326 0 326 0 350 c 0,164,165
 0 372 0 372 15 388 c 0,166,167
 31 402 31 402 52 402 c 256,168,169
 74 402 74 402 90 388 c 0,170,171
 99 378 99 378 103 366 c 1,172,-1
 103 366 l 1,173,174
 107 378 107 378 115 388 c 0,175,176
 130 402 130 402 152 402 c 128,-1,177
 174 402 174 402 189 388 c 0,178,179
 198 378 198 378 202 366 c 1,180,-1
 202 366 l 1,181,182
 206 378 206 378 215 388 c 128,-1,183
 224 398 224 398 236 400 c 1,184,-1
 236 400 l 1,185,186
 224 404 224 404 215 412 c 0,187,188
 200 428 200 428 200 450 c 128,-1,189
 200 472 200 472 215 488 c 0,190,191
 224 498 224 498 236 500 c 1,192,-1
 236 500 l 1,193,194
 224 504 224 504 215 512 c 0,195,196
 200 526 200 526 200 550 c 128,-1,197
 200 574 200 574 215 588 c 0,198,199
 231 602 231 602 252 602 c 0,200,201
 254.444444444 602.222222222 254.444444444 602.222222222 256.814814815 602.222222222 c 0,202,203
 275.777777778 602.222222222 275.777777778 602.222222222 290 588 c 256,204,205
 305 572 305 572 305 550 c 128,-1,206
 305 528 305 528 290 512 c 0,207,208
 281 504 281 504 269 500 c 1,209,-1
 269 500 l 1,210,211
 281 496 281 496 290 488 c 0,212,213
 305 474 305 474 305 450 c 0,214,215
 305 428 305 428 290 412 c 0,216,217
 281 404 281 404 269 400 c 1,218,-1
 269 400 l 1,219,220
 281 396 281 396 290 388 c 0,221,222
 299 378 299 378 302 366 c 1,223,-1
 302 366 l 1,224,225
 306 378 306 378 315 388 c 0,226,227
 330 402 330 402 353 402 c 0,228,229
 375 402 375 402 390 388 c 0,230,231
 399 378 399 378 402 366 c 1,232,-1
 402 366 l 1,233,234
 406 378 406 378 415 388 c 0,235,236
 430 402 430 402 452 402 c 128,-1,237
 474 402 474 402 490 388 c 256,238,239
 505 372 505 372 505 350 c 128,-1,240
 505 328 505 328 490 312 c 256,241,242
 475 298 475 298 452 298 c 0,243,244
 430 298 430 298 415 312 c 0,245,246
 406 322 406 322 402 334 c 1,247,248
 398 322 398 322 390 312 c 0,249,250
 375 298 375 298 353 298 c 128,-1,251
 331 298 331 298 315 312 c 0,252,253
 306 322 306 322 302 334 c 1,254,255
 298 322 298 322 290 312 c 0,256,257
 281 304 281 304 269 300 c 1,258,-1
 269 300 l 1,259,260
 281 296 281 296 290 288 c 0,261,262
 305 274 305 274 305 250 c 0,263,264
 305 228 305 228 290 212 c 0,265,266
 281 204 281 204 269 200 c 1,267,-1
 269 200 l 1,268,269
 281 196 281 196 290 186 c 0,270,271
 305 172 305 172 305 150 c 128,-1,272
 305 128 305 128 290 112 c 256,273,274
 275 98 275 98 252 98 c 1,275,-1
 252 98 l 1,129,130
EndSplineSet
EndChar

StartChar: comma
Encoding: 44 44 12
Width: 600
VWidth: 897
Flags: W
LayerCount: 2
Fore
SplineSet
103 -166 m 1,0,1
 103 -166 l 1,2,-1
 103 -166 l 1,3,4
 103 -166 l 1,5,-1
 103 -166 l 1,0,1
302 -166 m 1,6,7
 302 -166 l 1,8,-1
 302 -166 l 1,9,10
 302 -166 l 1,11,-1
 302 -166 l 1,6,7
502 -166 m 1,12,13
 502 -166 l 1,14,-1
 502 -166 l 1,15,16
 502 -166 l 1,17,-1
 502 -166 l 1,12,13
52 -202 m 1,18,19
 30 -202 30 -202 15 -186 c 128,-1,20
 0 -170 0 -170 0 -150 c 0,21,22
 0 -128 0 -128 15 -114 c 0,23,24
 31 -98 31 -98 52 -96 c 256,25,26
 74 -96 74 -96 90 -114 c 0,27,28
 99 -124 99 -124 103 -134 c 1,29,-1
 103 -134 l 1,30,31
 107 -122 107 -122 115 -114 c 0,32,33
 130 -98 130 -98 152 -96 c 0,34,35
 174 -96 174 -96 189 -114 c 0,36,37
 198 -124 198 -124 202 -134 c 1,38,-1
 202 -134 l 1,39,40
 206 -122 206 -122 215 -114 c 0,41,42
 231 -98 231 -98 252 -96 c 0,43,44
 274 -96 274 -96 290 -114 c 0,45,46
 299 -124 299 -124 302 -134 c 1,47,-1
 302 -134 l 1,48,49
 306 -122 306 -122 315 -114 c 0,50,51
 330 -98 330 -98 353 -96 c 0,52,53
 375 -96 375 -96 390 -114 c 0,54,55
 399 -124 399 -124 402 -134 c 1,56,-1
 402 -134 l 1,57,58
 406 -122 406 -122 415 -114 c 0,59,60
 430 -98 430 -98 452 -96 c 0,61,62
 474 -96 474 -96 490 -114 c 0,63,64
 499 -124 499 -124 502 -134 c 1,65,-1
 502 -134 l 1,66,67
 506 -122 506 -122 515 -114 c 0,68,69
 530 -98 530 -98 553 -96 c 0,70,71
 576 -96 576 -96 590 -114 c 256,72,73
 605.058823529 -128.054901961 605.058823529 -128.054901961 605.058823529 -152.560553633 c 0,74,75
 605.058823529 -172.823529412 605.058823529 -172.823529412 590 -186 c 256,76,77
 575 -200 575 -200 553 -202 c 0,78,79
 531 -202 531 -202 515 -186 c 0,80,81
 506 -176 506 -176 502 -166 c 1,82,83
 498 -178 498 -178 490 -186 c 0,84,85
 475 -200 475 -200 452 -202 c 0,86,87
 430 -202 430 -202 415 -186 c 0,88,89
 406 -176 406 -176 402 -166 c 1,90,91
 398 -178 398 -178 390 -186 c 0,92,93
 375 -200 375 -200 353 -202 c 0,94,95
 331 -202 331 -202 315 -186 c 0,96,97
 306 -176 306 -176 302 -166 c 1,98,99
 298 -178 298 -178 290 -186 c 0,100,101
 275 -200 275 -200 252 -202 c 0,102,103
 230 -202 230 -202 215 -186 c 0,104,105
 206 -176 206 -176 202 -166 c 1,106,-1
 202 -166 l 1,107,108
 198 -178 198 -178 189 -186 c 0,109,110
 174 -200 174 -200 152 -202 c 0,111,112
 130 -202 130 -202 115 -186 c 0,113,114
 106 -176 106 -176 103 -166 c 1,115,-1
 103 -166 l 1,116,117
 99 -178 99 -178 90 -186 c 0,118,119
 74 -200 74 -200 52 -202 c 1,120,-1
 52 -202 l 1,18,19
152 -2 m 1,121,122
 130 -2 130 -2 115 12 c 0,123,124
 100 28 100 28 100 50 c 256,125,126
 100 72 100 72 115 88 c 0,127,128
 128.333333333 102.222222222 128.333333333 102.222222222 147.197530864 102.222222222 c 0,129,130
 149.555555556 102.222222222 149.555555556 102.222222222 152 102 c 0,131,132
 174 102 174 102 189 88 c 0,133,134
 204 72 204 72 205 50 c 256,135,136
 205 28 205 28 189 12 c 0,137,138
 174 -2 174 -2 152 -2 c 1,139,-1
 152 -2 l 1,121,122
252 98 m 1,140,141
 230 98 230 98 215 112 c 0,142,143
 200 128 200 128 200 150 c 128,-1,144
 200 172 200 172 215 186 c 0,145,146
 224 196 224 196 236 200 c 1,147,-1
 236 200 l 1,148,149
 224 204 224 204 215 212 c 0,150,151
 200 228 200 228 200 250 c 128,-1,152
 200 272 200 272 215 288 c 0,153,154
 231 302 231 302 252 302 c 0,155,156
 274 302 274 302 290 288 c 256,157,158
 305 274 305 274 305 250 c 0,159,160
 305 228 305 228 290 212 c 0,161,162
 281 204 281 204 269 200 c 1,163,-1
 269 200 l 1,164,165
 281 196 281 196 290 186 c 0,166,167
 305 172 305 172 305 150 c 128,-1,168
 305 128 305 128 290 112 c 256,169,170
 275 98 275 98 252 98 c 1,171,-1
 252 98 l 1,140,141
EndSplineSet
EndChar

StartChar: hyphen
Encoding: 45 45 13
Width: 600
VWidth: 897
Flags: W
LayerCount: 2
Fore
SplineSet
103 -166 m 1,0,1
 103 -166 l 1,2,-1
 103 -166 l 1,3,4
 103 -166 l 1,5,-1
 103 -166 l 1,0,1
302 -166 m 1,6,7
 302 -166 l 1,8,-1
 302 -166 l 1,9,10
 302 -166 l 1,11,-1
 302 -166 l 1,6,7
502 -166 m 1,12,13
 502 -166 l 1,14,-1
 502 -166 l 1,15,16
 502 -166 l 1,17,-1
 502 -166 l 1,12,13
52 -202 m 1,18,19
 30 -202 30 -202 15 -186 c 128,-1,20
 0 -170 0 -170 0 -150 c 0,21,22
 0 -128 0 -128 15 -114 c 0,23,24
 31 -98 31 -98 52 -96 c 256,25,26
 74 -96 74 -96 90 -114 c 0,27,28
 99 -124 99 -124 103 -134 c 1,29,-1
 103 -134 l 1,30,31
 107 -122 107 -122 115 -114 c 0,32,33
 130 -98 130 -98 152 -96 c 0,34,35
 174 -96 174 -96 189 -114 c 0,36,37
 198 -124 198 -124 202 -134 c 1,38,-1
 202 -134 l 1,39,40
 206 -122 206 -122 215 -114 c 0,41,42
 231 -98 231 -98 252 -96 c 0,43,44
 274 -96 274 -96 290 -114 c 0,45,46
 299 -124 299 -124 302 -134 c 1,47,-1
 302 -134 l 1,48,49
 306 -122 306 -122 315 -114 c 0,50,51
 330 -98 330 -98 353 -96 c 0,52,53
 375 -96 375 -96 390 -114 c 0,54,55
 399 -124 399 -124 402 -134 c 1,56,-1
 402 -134 l 1,57,58
 406 -122 406 -122 415 -114 c 0,59,60
 430 -98 430 -98 452 -96 c 0,61,62
 474 -96 474 -96 490 -114 c 0,63,64
 499 -124 499 -124 502 -134 c 1,65,-1
 502 -134 l 1,66,67
 506 -122 506 -122 515 -114 c 0,68,69
 530 -98 530 -98 553 -96 c 0,70,71
 576 -96 576 -96 590 -114 c 256,72,73
 605.058823529 -128.054901961 605.058823529 -128.054901961 605.058823529 -152.560553633 c 0,74,75
 605.058823529 -172.823529412 605.058823529 -172.823529412 590 -186 c 256,76,77
 575 -200 575 -200 553 -202 c 0,78,79
 531 -202 531 -202 515 -186 c 0,80,81
 506 -176 506 -176 502 -166 c 1,82,83
 498 -178 498 -178 490 -186 c 0,84,85
 475 -200 475 -200 452 -202 c 0,86,87
 430 -202 430 -202 415 -186 c 0,88,89
 406 -176 406 -176 402 -166 c 1,90,91
 398 -178 398 -178 390 -186 c 0,92,93
 375 -200 375 -200 353 -202 c 0,94,95
 331 -202 331 -202 315 -186 c 0,96,97
 306 -176 306 -176 302 -166 c 1,98,99
 298 -178 298 -178 290 -186 c 0,100,101
 275 -200 275 -200 252 -202 c 0,102,103
 230 -202 230 -202 215 -186 c 0,104,105
 206 -176 206 -176 202 -166 c 1,106,-1
 202 -166 l 1,107,108
 198 -178 198 -178 189 -186 c 0,109,110
 174 -200 174 -200 152 -202 c 0,111,112
 130 -202 130 -202 115 -186 c 0,113,114
 106 -176 106 -176 103 -166 c 1,115,-1
 103 -166 l 1,116,117
 99 -178 99 -178 90 -186 c 0,118,119
 74 -200 74 -200 52 -202 c 1,120,-1
 52 -202 l 1,18,19
103 334 m 1,121,-1
 103 334 l 1,122,-1
 103 334 l 1,123,-1
 103 334 l 1,124,-1
 103 334 l 1,121,-1
302 334 m 1,125,-1
 302 334 l 1,126,-1
 302 334 l 1,127,-1
 302 334 l 1,128,-1
 302 334 l 1,125,-1
52 298 m 1,129,130
 30 298 30 298 15 312 c 128,-1,131
 0 326 0 326 0 350 c 0,132,133
 0 372 0 372 15 388 c 0,134,135
 31 402 31 402 52 402 c 256,136,137
 74 402 74 402 90 388 c 0,138,139
 99 378 99 378 103 366 c 1,140,-1
 103 366 l 1,141,142
 107 378 107 378 115 388 c 0,143,144
 130 402 130 402 152 402 c 128,-1,145
 174 402 174 402 189 388 c 0,146,147
 198 378 198 378 202 366 c 1,148,-1
 202 366 l 1,149,150
 206 378 206 378 215 388 c 0,151,152
 231 402 231 402 252 402 c 0,153,154
 274 402 274 402 290 388 c 0,155,156
 299 378 299 378 302 366 c 1,157,-1
 302 366 l 1,158,159
 306 378 306 378 315 388 c 0,160,161
 330 402 330 402 353 402 c 0,162,163
 375 402 375 402 390 388 c 0,164,165
 399 378 399 378 402 366 c 1,166,-1
 402 366 l 1,167,168
 406 378 406 378 415 388 c 0,169,170
 430 402 430 402 452 402 c 128,-1,171
 474 402 474 402 490 388 c 256,172,173
 505 372 505 372 505 350 c 128,-1,174
 505 328 505 328 490 312 c 256,175,176
 475 298 475 298 452 298 c 0,177,178
 430 298 430 298 415 312 c 0,179,180
 406 322 406 322 402 334 c 1,181,182
 398 322 398 322 390 312 c 0,183,184
 375 298 375 298 353 298 c 128,-1,185
 331 298 331 298 315 312 c 0,186,187
 306 322 306 322 302 334 c 1,188,189
 298 322 298 322 290 312 c 0,190,191
 275 298 275 298 252 298 c 0,192,193
 230 298 230 298 215 312 c 0,194,195
 206 322 206 322 202 334 c 1,196,-1
 202 334 l 1,197,198
 198 322 198 322 189 312 c 0,199,200
 174 298 174 298 152 298 c 128,-1,201
 130 298 130 298 115 312 c 0,202,203
 106 322 106 322 103 334 c 1,204,-1
 103 334 l 1,205,206
 99 322 99 322 90 312 c 0,207,208
 74 298 74 298 52 298 c 1,209,-1
 52 298 l 1,129,130
EndSplineSet
EndChar

StartChar: period
Encoding: 46 46 14
Width: 600
VWidth: 897
Flags: W
LayerCount: 2
Fore
SplineSet
103 -166 m 1,0,1
 103 -166 l 1,2,-1
 103 -166 l 1,3,4
 103 -166 l 1,5,-1
 103 -166 l 1,0,1
302 -166 m 1,6,7
 302 -166 l 1,8,-1
 302 -166 l 1,9,10
 302 -166 l 1,11,-1
 302 -166 l 1,6,7
502 -166 m 1,12,13
 502 -166 l 1,14,-1
 502 -166 l 1,15,16
 502 -166 l 1,17,-1
 502 -166 l 1,12,13
52 -202 m 1,18,19
 30 -202 30 -202 15 -186 c 128,-1,20
 0 -170 0 -170 0 -150 c 0,21,22
 0 -128 0 -128 15 -114 c 0,23,24
 31 -98 31 -98 52 -96 c 256,25,26
 74 -96 74 -96 90 -114 c 0,27,28
 99 -124 99 -124 103 -134 c 1,29,-1
 103 -134 l 1,30,31
 107 -122 107 -122 115 -114 c 0,32,33
 130 -98 130 -98 152 -96 c 0,34,35
 174 -96 174 -96 189 -114 c 0,36,37
 198 -124 198 -124 202 -134 c 1,38,-1
 202 -134 l 1,39,40
 206 -122 206 -122 215 -114 c 0,41,42
 231 -98 231 -98 252 -96 c 0,43,44
 274 -96 274 -96 290 -114 c 0,45,46
 299 -124 299 -124 302 -134 c 1,47,-1
 302 -134 l 1,48,49
 306 -122 306 -122 315 -114 c 0,50,51
 330 -98 330 -98 353 -96 c 0,52,53
 375 -96 375 -96 390 -114 c 0,54,55
 399 -124 399 -124 402 -134 c 1,56,-1
 402 -134 l 1,57,58
 406 -122 406 -122 415 -114 c 0,59,60
 430 -98 430 -98 452 -96 c 0,61,62
 474 -96 474 -96 490 -114 c 0,63,64
 499 -124 499 -124 502 -134 c 1,65,-1
 502 -134 l 1,66,67
 506 -122 506 -122 515 -114 c 0,68,69
 530 -98 530 -98 553 -96 c 0,70,71
 576 -96 576 -96 590 -114 c 256,72,73
 605.058823529 -128.054901961 605.058823529 -128.054901961 605.058823529 -152.560553633 c 0,74,75
 605.058823529 -172.823529412 605.058823529 -172.823529412 590 -186 c 256,76,77
 575 -200 575 -200 553 -202 c 0,78,79
 531 -202 531 -202 515 -186 c 0,80,81
 506 -176 506 -176 502 -166 c 1,82,83
 498 -178 498 -178 490 -186 c 0,84,85
 475 -200 475 -200 452 -202 c 0,86,87
 430 -202 430 -202 415 -186 c 0,88,89
 406 -176 406 -176 402 -166 c 1,90,91
 398 -178 398 -178 390 -186 c 0,92,93
 375 -200 375 -200 353 -202 c 0,94,95
 331 -202 331 -202 315 -186 c 0,96,97
 306 -176 306 -176 302 -166 c 1,98,99
 298 -178 298 -178 290 -186 c 0,100,101
 275 -200 275 -200 252 -202 c 0,102,103
 230 -202 230 -202 215 -186 c 0,104,105
 206 -176 206 -176 202 -166 c 1,106,-1
 202 -166 l 1,107,108
 198 -178 198 -178 189 -186 c 0,109,110
 174 -200 174 -200 152 -202 c 0,111,112
 130 -202 130 -202 115 -186 c 0,113,114
 106 -176 106 -176 103 -166 c 1,115,-1
 103 -166 l 1,116,117
 99 -178 99 -178 90 -186 c 0,118,119
 74 -200 74 -200 52 -202 c 1,120,-1
 52 -202 l 1,18,19
202 34 m 1,121,-1
 202 34 l 1,122,-1
 202 34 l 1,123,-1
 202 34 l 1,124,-1
 202 34 l 1,121,-1
202 66 m 1,125,126
 206 78 206 78 215 88 c 0,127,128
 224 96 224 96 236 100 c 1,129,-1
 236 100 l 1,130,131
 224 104 224 104 215 112 c 0,132,133
 206 122 206 122 202 134 c 1,134,-1
 202 134 l 1,135,136
 198 122 198 122 189 112 c 256,137,138
 180 102 180 102 169 100 c 1,139,-1
 169 100 l 1,140,141
 181 96 181 96 189 88 c 0,142,143
 198 78 198 78 202 66 c 1,144,-1
 202 66 l 1,125,126
202 134 m 1,145,-1
 202 134 l 1,146,-1
 202 134 l 1,147,-1
 202 134 l 1,148,-1
 202 134 l 1,145,-1
152 -2 m 1,149,150
 130 -2 130 -2 115 12 c 0,151,152
 100 28 100 28 100 50 c 256,153,154
 100 72 100 72 115 88 c 0,155,156
 124 96 124 96 136 100 c 1,157,-1
 136 100 l 1,158,159
 124 104 124 104 115 112 c 0,160,161
 100 128 100 128 100 150 c 128,-1,162
 100 172 100 172 115 186 c 256,163,164
 130 200 130 200 152 202 c 0,165,166
 174 202 174 202 189 186 c 0,167,168
 198 176 198 176 202 166 c 1,169,-1
 202 166 l 1,170,171
 206 178 206 178 215 186 c 0,172,173
 231 200 231 200 252 202 c 0,174,175
 274 202 274 202 290 186 c 256,176,177
 305 172 305 172 305 150 c 128,-1,178
 305 128 305 128 290 112 c 0,179,180
 281 102 281 102 269 100 c 1,181,-1
 269 100 l 1,182,183
 281 96 281 96 290 88 c 0,184,185
 305 72 305 72 305 50 c 256,186,187
 305 28 305 28 290 12 c 0,188,189
 275 -2 275 -2 252 -2 c 0,190,191
 230 -2 230 -2 215 12 c 0,192,193
 206 22 206 22 202 34 c 1,194,195
 198 22 198 22 189 12 c 0,196,197
 174 -2 174 -2 152 -2 c 1,198,-1
 152 -2 l 1,149,150
EndSplineSet
EndChar

StartChar: slash
Encoding: 47 47 15
Width: 600
VWidth: 897
Flags: W
LayerCount: 2
Fore
SplineSet
103 -166 m 1,0,1
 103 -166 l 1,2,-1
 103 -166 l 1,3,4
 103 -166 l 1,5,-1
 103 -166 l 1,0,1
302 -166 m 1,6,7
 302 -166 l 1,8,-1
 302 -166 l 1,9,10
 302 -166 l 1,11,-1
 302 -166 l 1,6,7
502 -166 m 1,12,13
 502 -166 l 1,14,-1
 502 -166 l 1,15,16
 502 -166 l 1,17,-1
 502 -166 l 1,12,13
52 -202 m 1,18,19
 30 -202 30 -202 15 -186 c 128,-1,20
 0 -170 0 -170 0 -150 c 0,21,22
 0 -128 0 -128 15 -114 c 0,23,24
 31 -98 31 -98 52 -96 c 256,25,26
 74 -96 74 -96 90 -114 c 0,27,28
 99 -124 99 -124 103 -134 c 1,29,-1
 103 -134 l 1,30,31
 107 -122 107 -122 115 -114 c 0,32,33
 130 -98 130 -98 152 -96 c 0,34,35
 174 -96 174 -96 189 -114 c 0,36,37
 198 -124 198 -124 202 -134 c 1,38,-1
 202 -134 l 1,39,40
 206 -122 206 -122 215 -114 c 0,41,42
 231 -98 231 -98 252 -96 c 0,43,44
 274 -96 274 -96 290 -114 c 0,45,46
 299 -124 299 -124 302 -134 c 1,47,-1
 302 -134 l 1,48,49
 306 -122 306 -122 315 -114 c 0,50,51
 330 -98 330 -98 353 -96 c 0,52,53
 375 -96 375 -96 390 -114 c 0,54,55
 399 -124 399 -124 402 -134 c 1,56,-1
 402 -134 l 1,57,58
 406 -122 406 -122 415 -114 c 0,59,60
 430 -98 430 -98 452 -96 c 0,61,62
 474 -96 474 -96 490 -114 c 0,63,64
 499 -124 499 -124 502 -134 c 1,65,-1
 502 -134 l 1,66,67
 506 -122 506 -122 515 -114 c 0,68,69
 530 -98 530 -98 553 -96 c 0,70,71
 576 -96 576 -96 590 -114 c 256,72,73
 605.058823529 -128.054901961 605.058823529 -128.054901961 605.058823529 -152.560553633 c 0,74,75
 605.058823529 -172.823529412 605.058823529 -172.823529412 590 -186 c 256,76,77
 575 -200 575 -200 553 -202 c 0,78,79
 531 -202 531 -202 515 -186 c 0,80,81
 506 -176 506 -176 502 -166 c 1,82,83
 498 -178 498 -178 490 -186 c 0,84,85
 475 -200 475 -200 452 -202 c 0,86,87
 430 -202 430 -202 415 -186 c 0,88,89
 406 -176 406 -176 402 -166 c 1,90,91
 398 -178 398 -178 390 -186 c 0,92,93
 375 -200 375 -200 353 -202 c 0,94,95
 331 -202 331 -202 315 -186 c 0,96,97
 306 -176 306 -176 302 -166 c 1,98,99
 298 -178 298 -178 290 -186 c 0,100,101
 275 -200 275 -200 252 -202 c 0,102,103
 230 -202 230 -202 215 -186 c 0,104,105
 206 -176 206 -176 202 -166 c 1,106,-1
 202 -166 l 1,107,108
 198 -178 198 -178 189 -186 c 0,109,110
 174 -200 174 -200 152 -202 c 0,111,112
 130 -202 130 -202 115 -186 c 0,113,114
 106 -176 106 -176 103 -166 c 1,115,-1
 103 -166 l 1,116,117
 99 -178 99 -178 90 -186 c 0,118,119
 74 -200 74 -200 52 -202 c 1,120,-1
 52 -202 l 1,18,19
52 98 m 1,121,122
 30 98 30 98 15 112 c 0,123,124
 0 128 0 128 0 150 c 128,-1,125
 0 172 0 172 15 186 c 0,126,127
 31 200 31 200 52 202 c 256,128,129
 74 202 74 202 90 186 c 0,130,131
 104.0625 172.875 104.0625 172.875 104.0625 152.71875 c 0,132,133
 104.0625 128.071428571 104.0625 128.071428571 90 112 c 0,134,135
 74 98 74 98 52 98 c 1,136,-1
 52 98 l 1,121,122
152 198 m 1,137,138
 130 198 130 198 115 212 c 0,139,140
 100 228 100 228 100 250 c 128,-1,141
 100 272 100 272 115 288 c 256,142,143
 130 302 130 302 152 302 c 128,-1,144
 174 302 174 302 189 288 c 256,145,146
 204 274 204 274 205 250 c 0,147,148
 205 228 205 228 189 212 c 0,149,150
 174 198 174 198 152 198 c 1,151,-1
 152 198 l 1,137,138
252 298 m 1,152,153
 230 298 230 298 215 312 c 128,-1,154
 200 326 200 326 200 350 c 0,155,156
 200 372 200 372 215 388 c 0,157,158
 231 402 231 402 252 402 c 0,159,160
 274 402 274 402 290 388 c 256,161,162
 305 372 305 372 305 350 c 128,-1,163
 305 328 305 328 290 312 c 256,164,165
 275 298 275 298 252 298 c 1,166,-1
 252 298 l 1,152,153
353 398 m 1,167,168
 331 398 331 398 315 412 c 256,169,170
 300 428 300 428 300 450 c 128,-1,171
 300 472 300 472 315 488 c 256,172,173
 330 502 330 502 353 502 c 0,174,175
 375 502 375 502 390 488 c 256,176,177
 405 474 405 474 405 450 c 0,178,179
 405 428 405 428 390 412 c 256,180,181
 375 398 375 398 353 398 c 1,182,-1
 353 398 l 1,167,168
452 498 m 1,183,184
 430 498 430 498 415 512 c 256,185,186
 400 526 400 526 400 550 c 128,-1,187
 400 574 400 574 415 588 c 256,188,189
 430 602 430 602 452 602 c 0,190,191
 454.444444444 602.222222222 454.444444444 602.222222222 456.814814815 602.222222222 c 0,192,193
 475.777777778 602.222222222 475.777777778 602.222222222 490 588 c 256,194,195
 505 572 505 572 505 550 c 128,-1,196
 505 528 505 528 490 512 c 256,197,198
 475 498 475 498 452 498 c 1,199,-1
 452 498 l 1,183,184
EndSplineSet
EndChar

StartChar: zero
Encoding: 48 48 16
Width: 600
VWidth: 897
Flags: W
LayerCount: 2
Fore
SplineSet
103 -166 m 1,0,1
 103 -166 l 1,2,-1
 103 -166 l 1,3,4
 103 -166 l 1,5,-1
 103 -166 l 1,0,1
302 -166 m 1,6,7
 302 -166 l 1,8,-1
 302 -166 l 1,9,10
 302 -166 l 1,11,-1
 302 -166 l 1,6,7
502 -166 m 1,12,13
 502 -166 l 1,14,-1
 502 -166 l 1,15,16
 502 -166 l 1,17,-1
 502 -166 l 1,12,13
52 -202 m 1,18,19
 30 -202 30 -202 15 -186 c 128,-1,20
 0 -170 0 -170 0 -150 c 0,21,22
 0 -128 0 -128 15 -114 c 0,23,24
 31 -98 31 -98 52 -96 c 256,25,26
 74 -96 74 -96 90 -114 c 0,27,28
 99 -124 99 -124 103 -134 c 1,29,-1
 103 -134 l 1,30,31
 107 -122 107 -122 115 -114 c 0,32,33
 130 -98 130 -98 152 -96 c 0,34,35
 174 -96 174 -96 189 -114 c 0,36,37
 198 -124 198 -124 202 -134 c 1,38,-1
 202 -134 l 1,39,40
 206 -122 206 -122 215 -114 c 0,41,42
 231 -98 231 -98 252 -96 c 0,43,44
 274 -96 274 -96 290 -114 c 0,45,46
 299 -124 299 -124 302 -134 c 1,47,-1
 302 -134 l 1,48,49
 306 -122 306 -122 315 -114 c 0,50,51
 330 -98 330 -98 353 -96 c 0,52,53
 375 -96 375 -96 390 -114 c 0,54,55
 399 -124 399 -124 402 -134 c 1,56,-1
 402 -134 l 1,57,58
 406 -122 406 -122 415 -114 c 0,59,60
 430 -98 430 -98 452 -96 c 0,61,62
 474 -96 474 -96 490 -114 c 0,63,64
 499 -124 499 -124 502 -134 c 1,65,-1
 502 -134 l 1,66,67
 506 -122 506 -122 515 -114 c 0,68,69
 530 -98 530 -98 553 -96 c 0,70,71
 576 -96 576 -96 590 -114 c 256,72,73
 605.058823529 -128.054901961 605.058823529 -128.054901961 605.058823529 -152.560553633 c 0,74,75
 605.058823529 -172.823529412 605.058823529 -172.823529412 590 -186 c 256,76,77
 575 -200 575 -200 553 -202 c 0,78,79
 531 -202 531 -202 515 -186 c 0,80,81
 506 -176 506 -176 502 -166 c 1,82,83
 498 -178 498 -178 490 -186 c 0,84,85
 475 -200 475 -200 452 -202 c 0,86,87
 430 -202 430 -202 415 -186 c 0,88,89
 406 -176 406 -176 402 -166 c 1,90,91
 398 -178 398 -178 390 -186 c 0,92,93
 375 -200 375 -200 353 -202 c 0,94,95
 331 -202 331 -202 315 -186 c 0,96,97
 306 -176 306 -176 302 -166 c 1,98,99
 298 -178 298 -178 290 -186 c 0,100,101
 275 -200 275 -200 252 -202 c 0,102,103
 230 -202 230 -202 215 -186 c 0,104,105
 206 -176 206 -176 202 -166 c 1,106,-1
 202 -166 l 1,107,108
 198 -178 198 -178 189 -186 c 0,109,110
 174 -200 174 -200 152 -202 c 0,111,112
 130 -202 130 -202 115 -186 c 0,113,114
 106 -176 106 -176 103 -166 c 1,115,-1
 103 -166 l 1,116,117
 99 -178 99 -178 90 -186 c 0,118,119
 74 -200 74 -200 52 -202 c 1,120,-1
 52 -202 l 1,18,19
202 34 m 1,121,-1
 202 34 l 1,122,-1
 202 34 l 1,123,-1
 202 34 l 1,124,-1
 202 34 l 1,121,-1
152 -2 m 1,125,126
 130 -2 130 -2 115 12 c 0,127,128
 100 28 100 28 100 50 c 256,129,130
 100 72 100 72 115 88 c 0,131,132
 128.333333333 102.222222222 128.333333333 102.222222222 147.197530864 102.222222222 c 0,133,134
 149.555555556 102.222222222 149.555555556 102.222222222 152 102 c 0,135,136
 174 102 174 102 189 88 c 0,137,138
 198 78 198 78 202 66 c 1,139,-1
 202 66 l 1,140,141
 206 78 206 78 215 88 c 0,142,143
 229.222222222 102.222222222 229.222222222 102.222222222 247.395061728 102.222222222 c 0,144,145
 249.666666667 102.222222222 249.666666667 102.222222222 252 102 c 0,146,147
 274 102 274 102 290 88 c 0,148,149
 299 78 299 78 302 66 c 1,150,-1
 302 66 l 1,151,152
 306 78 306 78 315 88 c 0,153,154
 328.333333333 102.222222222 328.333333333 102.222222222 347.987654321 102.222222222 c 0,155,156
 350.444444444 102.222222222 350.444444444 102.222222222 353 102 c 0,157,158
 375 102 375 102 390 88 c 0,159,160
 405 72 405 72 405 50 c 256,161,162
 405 28 405 28 390 12 c 0,163,164
 375 -2 375 -2 353 -2 c 128,-1,165
 331 -2 331 -2 315 12 c 0,166,167
 306 22 306 22 302 34 c 1,168,169
 298 22 298 22 290 12 c 0,170,171
 275 -2 275 -2 252 -2 c 0,172,173
 230 -2 230 -2 215 12 c 0,174,175
 206 22 206 22 202 34 c 1,176,177
 198 22 198 22 189 12 c 0,178,179
 174 -2 174 -2 152 -2 c 1,180,-1
 152 -2 l 1,125,126
103 234 m 1,181,-1
 103 234 l 1,182,-1
 103 234 l 1,183,-1
 103 234 l 1,184,-1
 103 234 l 1,181,-1
252 298 m 1,185,186
 230 298 230 298 215 312 c 128,-1,187
 200 326 200 326 200 350 c 0,188,189
 200 372 200 372 215 388 c 0,190,191
 231 402 231 402 252 402 c 0,192,193
 274 402 274 402 290 388 c 256,194,195
 305 372 305 372 305 350 c 128,-1,196
 305 328 305 328 290 312 c 256,197,198
 275 298 275 298 252 298 c 1,199,-1
 252 298 l 1,185,186
402 434 m 1,200,-1
 402 434 l 1,201,-1
 402 434 l 1,202,-1
 402 434 l 1,203,-1
 402 434 l 1,200,-1
52 98 m 1,204,205
 30 98 30 98 15 112 c 0,206,207
 0 128 0 128 0 150 c 128,-1,208
 0 172 0 172 15 186 c 0,209,210
 24 196 24 196 36 200 c 1,211,-1
 36 200 l 1,212,213
 24 204 24 204 15 212 c 0,214,215
 0 228 0 228 0 250 c 128,-1,216
 0 272 0 272 15 288 c 0,217,218
 24 298 24 298 36 300 c 1,219,-1
 36 300 l 1,220,221
 24 304 24 304 15 312 c 0,222,223
 0 326 0 326 0 350 c 0,224,225
 0 372 0 372 15 388 c 0,226,227
 24 398 24 398 36 400 c 1,228,-1
 36 400 l 1,229,230
 24 404 24 404 15 412 c 0,231,232
 0 428 0 428 0 450 c 128,-1,233
 0 472 0 472 15 488 c 0,234,235
 24 498 24 498 36 500 c 1,236,-1
 36 500 l 1,237,238
 24 504 24 504 15 512 c 0,239,240
 0 526 0 526 0 550 c 128,-1,241
 0 574 0 574 15 588 c 0,242,243
 31 602 31 602 52 602 c 256,244,245
 54.4444444444 602.222222222 54.4444444444 602.222222222 56.8148148148 602.222222222 c 0,246,247
 75.7777777778 602.222222222 75.7777777778 602.222222222 90 588 c 0,248,249
 104.0625 573 104.0625 573 104.0625 552.7265625 c 0,250,251
 104.0625 528.071428571 104.0625 528.071428571 90 512 c 0,252,253
 81 504 81 504 69 500 c 1,254,-1
 69 500 l 1,255,256
 81 496 81 496 90 488 c 0,257,258
 104.0625 474.875 104.0625 474.875 104.0625 452.9609375 c 0,259,260
 104.0625 428.071428571 104.0625 428.071428571 90 412 c 0,261,262
 81 404 81 404 69 400 c 1,263,-1
 69 400 l 1,264,265
 81 396 81 396 90 388 c 0,266,267
 104.0625 373 104.0625 373 104.0625 352.7265625 c 0,268,269
 104.0625 328.071428571 104.0625 328.071428571 90 312 c 0,270,271
 81 304 81 304 69 300 c 1,272,-1
 69 300 l 1,273,274
 81 296 81 296 90 288 c 0,275,276
 99 278 99 278 103 266 c 1,277,-1
 103 266 l 1,278,279
 107 278 107 278 115 288 c 0,280,281
 130 302 130 302 152 302 c 128,-1,282
 174 302 174 302 189 288 c 256,283,284
 204 274 204 274 205 250 c 0,285,286
 205 228 205 228 189 212 c 0,287,288
 174 198 174 198 152 198 c 128,-1,289
 130 198 130 198 115 212 c 0,290,291
 106 222 106 222 103 234 c 1,292,293
 99 222 99 222 90 212 c 0,294,295
 81 204 81 204 69 200 c 1,296,-1
 69 200 l 1,297,298
 81 196 81 196 90 186 c 0,299,300
 104.0625 172.875 104.0625 172.875 104.0625 152.71875 c 0,301,302
 104.0625 128.071428571 104.0625 128.071428571 90 112 c 0,303,304
 74 98 74 98 52 98 c 1,305,-1
 52 98 l 1,204,205
452 98 m 1,306,307
 430 98 430 98 415 112 c 256,308,309
 400 128 400 128 400 150 c 128,-1,310
 400 172 400 172 415 186 c 0,311,312
 424 196 424 196 436 200 c 1,313,-1
 436 200 l 1,314,315
 424 204 424 204 415 212 c 0,316,317
 400 228 400 228 400 250 c 128,-1,318
 400 272 400 272 415 288 c 0,319,320
 424 298 424 298 436 300 c 1,321,-1
 436 300 l 1,322,323
 424 304 424 304 415 312 c 0,324,325
 400 326 400 326 400 350 c 0,326,327
 400 372 400 372 415 388 c 0,328,329
 424 398 424 398 436 400 c 1,330,-1
 436 400 l 1,331,332
 424 404 424 404 415 412 c 256,333,334
 406 422 406 422 402 434 c 1,335,336
 398 422 398 422 390 412 c 0,337,338
 375 398 375 398 353 398 c 128,-1,339
 331 398 331 398 315 412 c 256,340,341
 300 428 300 428 300 450 c 128,-1,342
 300 472 300 472 315 488 c 256,343,344
 330 502 330 502 353 502 c 0,345,346
 375 502 375 502 390 488 c 0,347,348
 399 478 399 478 402 466 c 1,349,-1
 402 466 l 1,350,351
 406 478 406 478 415 488 c 256,352,353
 424 498 424 498 436 500 c 1,354,-1
 436 500 l 1,355,356
 424 504 424 504 415 512 c 0,357,358
 400 526 400 526 400 550 c 128,-1,359
 400 574 400 574 415 588 c 256,360,361
 430 602 430 602 452 602 c 0,362,363
 454.444444444 602.222222222 454.444444444 602.222222222 456.814814815 602.222222222 c 0,364,365
 475.777777778 602.222222222 475.777777778 602.222222222 490 588 c 256,366,367
 505 572 505 572 505 550 c 128,-1,368
 505 528 505 528 490 512 c 0,369,370
 481 504 481 504 469 500 c 1,371,-1
 469 500 l 1,372,373
 481 496 481 496 490 488 c 0,374,375
 505 474 505 474 505 450 c 0,376,377
 505 428 505 428 490 412 c 0,378,379
 481 404 481 404 469 400 c 1,380,-1
 469 400 l 1,381,382
 481 396 481 396 490 388 c 0,383,384
 505 372 505 372 505 350 c 128,-1,385
 505 328 505 328 490 312 c 0,386,387
 481 304 481 304 469 300 c 1,388,-1
 469 300 l 1,389,390
 481 296 481 296 490 288 c 0,391,392
 505 274 505 274 505 250 c 0,393,394
 505 228 505 228 490 212 c 0,395,396
 481 204 481 204 469 200 c 1,397,-1
 469 200 l 1,398,399
 481 196 481 196 490 186 c 0,400,401
 505 172 505 172 505 150 c 128,-1,402
 505 128 505 128 490 112 c 256,403,404
 475 98 475 98 452 98 c 1,405,-1
 452 98 l 1,306,307
202 634 m 1,406,-1
 202 634 l 1,407,-1
 202 634 l 1,408,-1
 202 634 l 1,409,-1
 202 634 l 1,406,-1
152 598 m 1,410,411
 130 598 130 598 115 614 c 256,412,413
 100 628 100 628 100 650 c 128,-1,414
 100 672 100 672 115 686 c 256,415,416
 130 700 130 700 152 702 c 0,417,418
 174 702 174 702 189 686 c 0,419,420
 198 676 198 676 202 666 c 1,421,-1
 202 666 l 1,422,423
 206 678 206 678 215 686 c 0,424,425
 231 700 231 700 252 702 c 0,426,427
 274 702 274 702 290 686 c 0,428,429
 299 676 299 676 302 666 c 1,430,-1
 302 666 l 1,431,432
 306 678 306 678 315 686 c 0,433,434
 330 700 330 700 353 702 c 0,435,436
 375 702 375 702 390 686 c 256,437,438
 405 672 405 672 405 650 c 128,-1,439
 405 628 405 628 390 614 c 256,440,441
 375 600 375 600 353 598 c 0,442,443
 331 598 331 598 315 614 c 0,444,445
 306 624 306 624 302 634 c 1,446,447
 298 622 298 622 290 614 c 0,448,449
 275 600 275 600 252 598 c 0,450,451
 230 598 230 598 215 614 c 0,452,453
 206 624 206 624 202 634 c 1,454,455
 198 622 198 622 189 614 c 0,456,457
 174 600 174 600 152 598 c 1,458,-1
 152 598 l 1,410,411
EndSplineSet
EndChar

StartChar: one
Encoding: 49 49 17
Width: 600
VWidth: 897
Flags: W
LayerCount: 2
Fore
SplineSet
103 -166 m 1,0,1
 103 -166 l 1,2,-1
 103 -166 l 1,3,4
 103 -166 l 1,5,-1
 103 -166 l 1,0,1
302 -166 m 1,6,7
 302 -166 l 1,8,-1
 302 -166 l 1,9,10
 302 -166 l 1,11,-1
 302 -166 l 1,6,7
502 -166 m 1,12,13
 502 -166 l 1,14,-1
 502 -166 l 1,15,16
 502 -166 l 1,17,-1
 502 -166 l 1,12,13
52 -202 m 1,18,19
 30 -202 30 -202 15 -186 c 128,-1,20
 0 -170 0 -170 0 -150 c 0,21,22
 0 -128 0 -128 15 -114 c 0,23,24
 31 -98 31 -98 52 -96 c 256,25,26
 74 -96 74 -96 90 -114 c 0,27,28
 99 -124 99 -124 103 -134 c 1,29,-1
 103 -134 l 1,30,31
 107 -122 107 -122 115 -114 c 0,32,33
 130 -98 130 -98 152 -96 c 0,34,35
 174 -96 174 -96 189 -114 c 0,36,37
 198 -124 198 -124 202 -134 c 1,38,-1
 202 -134 l 1,39,40
 206 -122 206 -122 215 -114 c 0,41,42
 231 -98 231 -98 252 -96 c 0,43,44
 274 -96 274 -96 290 -114 c 0,45,46
 299 -124 299 -124 302 -134 c 1,47,-1
 302 -134 l 1,48,49
 306 -122 306 -122 315 -114 c 0,50,51
 330 -98 330 -98 353 -96 c 0,52,53
 375 -96 375 -96 390 -114 c 0,54,55
 399 -124 399 -124 402 -134 c 1,56,-1
 402 -134 l 1,57,58
 406 -122 406 -122 415 -114 c 0,59,60
 430 -98 430 -98 452 -96 c 0,61,62
 474 -96 474 -96 490 -114 c 0,63,64
 499 -124 499 -124 502 -134 c 1,65,-1
 502 -134 l 1,66,67
 506 -122 506 -122 515 -114 c 0,68,69
 530 -98 530 -98 553 -96 c 0,70,71
 576 -96 576 -96 590 -114 c 256,72,73
 605.058823529 -128.054901961 605.058823529 -128.054901961 605.058823529 -152.560553633 c 0,74,75
 605.058823529 -172.823529412 605.058823529 -172.823529412 590 -186 c 256,76,77
 575 -200 575 -200 553 -202 c 0,78,79
 531 -202 531 -202 515 -186 c 0,80,81
 506 -176 506 -176 502 -166 c 1,82,83
 498 -178 498 -178 490 -186 c 0,84,85
 475 -200 475 -200 452 -202 c 0,86,87
 430 -202 430 -202 415 -186 c 0,88,89
 406 -176 406 -176 402 -166 c 1,90,91
 398 -178 398 -178 390 -186 c 0,92,93
 375 -200 375 -200 353 -202 c 0,94,95
 331 -202 331 -202 315 -186 c 0,96,97
 306 -176 306 -176 302 -166 c 1,98,99
 298 -178 298 -178 290 -186 c 0,100,101
 275 -200 275 -200 252 -202 c 0,102,103
 230 -202 230 -202 215 -186 c 0,104,105
 206 -176 206 -176 202 -166 c 1,106,-1
 202 -166 l 1,107,108
 198 -178 198 -178 189 -186 c 0,109,110
 174 -200 174 -200 152 -202 c 0,111,112
 130 -202 130 -202 115 -186 c 0,113,114
 106 -176 106 -176 103 -166 c 1,115,-1
 103 -166 l 1,116,117
 99 -178 99 -178 90 -186 c 0,118,119
 74 -200 74 -200 52 -202 c 1,120,-1
 52 -202 l 1,18,19
202 34 m 1,121,-1
 202 34 l 1,122,-1
 202 34 l 1,123,-1
 202 34 l 1,124,-1
 202 34 l 1,121,-1
202 534 m 1,125,-1
 202 534 l 1,126,-1
 202 534 l 1,127,-1
 202 534 l 1,128,-1
 202 534 l 1,125,-1
152 -2 m 1,129,130
 130 -2 130 -2 115 12 c 0,131,132
 100 28 100 28 100 50 c 256,133,134
 100 72 100 72 115 88 c 0,135,136
 128.333333333 102.222222222 128.333333333 102.222222222 147.197530864 102.222222222 c 0,137,138
 149.555555556 102.222222222 149.555555556 102.222222222 152 102 c 0,139,140
 174 102 174 102 189 88 c 0,141,142
 198 78 198 78 202 66 c 1,143,-1
 202 66 l 1,144,145
 206 78 206 78 215 88 c 0,146,147
 224 96 224 96 236 100 c 1,148,-1
 236 100 l 1,149,150
 224 104 224 104 215 112 c 0,151,152
 200 128 200 128 200 150 c 128,-1,153
 200 172 200 172 215 186 c 0,154,155
 224 196 224 196 236 200 c 1,156,-1
 236 200 l 1,157,158
 224 204 224 204 215 212 c 0,159,160
 200 228 200 228 200 250 c 128,-1,161
 200 272 200 272 215 288 c 0,162,163
 224 298 224 298 236 300 c 1,164,-1
 236 300 l 1,165,166
 224 304 224 304 215 312 c 0,167,168
 200 326 200 326 200 350 c 0,169,170
 200 372 200 372 215 388 c 0,171,172
 224 398 224 398 236 400 c 1,173,-1
 236 400 l 1,174,175
 224 404 224 404 215 412 c 0,176,177
 200 428 200 428 200 450 c 128,-1,178
 200 472 200 472 215 488 c 0,179,180
 224 498 224 498 236 500 c 1,181,-1
 236 500 l 1,182,183
 224 504 224 504 215 512 c 0,184,185
 206 522 206 522 202 534 c 1,186,-1
 202 534 l 1,187,188
 198 522 198 522 189 512 c 0,189,190
 174 498 174 498 152 498 c 128,-1,191
 130 498 130 498 115 512 c 256,192,193
 100 526 100 526 100 550 c 128,-1,194
 100 574 100 574 115 588 c 256,195,196
 130 602 130 602 152 602 c 0,197,198
 154.444444444 602.222222222 154.444444444 602.222222222 156.802469136 602.222222222 c 0,199,200
 175.666666667 602.222222222 175.666666667 602.222222222 189 588 c 0,201,202
 198 578 198 578 202 566 c 1,203,-1
 202 566 l 1,204,205
 206 580 206 580 215 588 c 0,206,207
 224 598 224 598 236 600 c 1,208,-1
 236 600 l 1,209,210
 224 604 224 604 215 614 c 0,211,212
 200 628 200 628 200 650 c 128,-1,213
 200 672 200 672 215 686 c 0,214,215
 231 700 231 700 252 702 c 0,216,217
 274 702 274 702 290 686 c 256,218,219
 305 672 305 672 305 650 c 128,-1,220
 305 628 305 628 290 614 c 0,221,222
 281 606 281 606 269 600 c 1,223,-1
 269 600 l 1,224,225
 281 596 281 596 290 588 c 0,226,227
 305 572 305 572 305 550 c 128,-1,228
 305 528 305 528 290 512 c 0,229,230
 281 504 281 504 269 500 c 1,231,-1
 269 500 l 1,232,233
 281 496 281 496 290 488 c 0,234,235
 305 474 305 474 305 450 c 0,236,237
 305 428 305 428 290 412 c 0,238,239
 281 404 281 404 269 400 c 1,240,-1
 269 400 l 1,241,242
 281 396 281 396 290 388 c 0,243,244
 305 372 305 372 305 350 c 128,-1,245
 305 328 305 328 290 312 c 0,246,247
 281 304 281 304 269 300 c 1,248,-1
 269 300 l 1,249,250
 281 296 281 296 290 288 c 0,251,252
 305 274 305 274 305 250 c 0,253,254
 305 228 305 228 290 212 c 0,255,256
 281 204 281 204 269 200 c 1,257,-1
 269 200 l 1,258,259
 281 196 281 196 290 186 c 0,260,261
 305 172 305 172 305 150 c 128,-1,262
 305 128 305 128 290 112 c 0,263,264
 281 102 281 102 269 100 c 1,265,-1
 269 100 l 1,266,267
 281 96 281 96 290 88 c 0,268,269
 299 78 299 78 302 66 c 1,270,-1
 302 66 l 1,271,272
 306 78 306 78 315 88 c 0,273,274
 328.333333333 102.222222222 328.333333333 102.222222222 347.987654321 102.222222222 c 0,275,276
 350.444444444 102.222222222 350.444444444 102.222222222 353 102 c 0,277,278
 375 102 375 102 390 88 c 0,279,280
 405 72 405 72 405 50 c 256,281,282
 405 28 405 28 390 12 c 0,283,284
 375 -2 375 -2 353 -2 c 128,-1,285
 331 -2 331 -2 315 12 c 0,286,287
 306 22 306 22 302 34 c 1,288,289
 298 22 298 22 290 12 c 0,290,291
 275 -2 275 -2 252 -2 c 0,292,293
 230 -2 230 -2 215 12 c 0,294,295
 206 22 206 22 202 34 c 1,296,297
 198 22 198 22 189 12 c 0,298,299
 174 -2 174 -2 152 -2 c 1,300,-1
 152 -2 l 1,129,130
EndSplineSet
EndChar

StartChar: two
Encoding: 50 50 18
Width: 600
VWidth: 897
Flags: W
LayerCount: 2
Fore
SplineSet
103 -166 m 1,0,1
 103 -166 l 1,2,-1
 103 -166 l 1,3,4
 103 -166 l 1,5,-1
 103 -166 l 1,0,1
302 -166 m 1,6,7
 302 -166 l 1,8,-1
 302 -166 l 1,9,10
 302 -166 l 1,11,-1
 302 -166 l 1,6,7
502 -166 m 1,12,13
 502 -166 l 1,14,-1
 502 -166 l 1,15,16
 502 -166 l 1,17,-1
 502 -166 l 1,12,13
52 -202 m 1,18,19
 30 -202 30 -202 15 -186 c 128,-1,20
 0 -170 0 -170 0 -150 c 0,21,22
 0 -128 0 -128 15 -114 c 0,23,24
 31 -98 31 -98 52 -96 c 256,25,26
 74 -96 74 -96 90 -114 c 0,27,28
 99 -124 99 -124 103 -134 c 1,29,-1
 103 -134 l 1,30,31
 107 -122 107 -122 115 -114 c 0,32,33
 130 -98 130 -98 152 -96 c 0,34,35
 174 -96 174 -96 189 -114 c 0,36,37
 198 -124 198 -124 202 -134 c 1,38,-1
 202 -134 l 1,39,40
 206 -122 206 -122 215 -114 c 0,41,42
 231 -98 231 -98 252 -96 c 0,43,44
 274 -96 274 -96 290 -114 c 0,45,46
 299 -124 299 -124 302 -134 c 1,47,-1
 302 -134 l 1,48,49
 306 -122 306 -122 315 -114 c 0,50,51
 330 -98 330 -98 353 -96 c 0,52,53
 375 -96 375 -96 390 -114 c 0,54,55
 399 -124 399 -124 402 -134 c 1,56,-1
 402 -134 l 1,57,58
 406 -122 406 -122 415 -114 c 0,59,60
 430 -98 430 -98 452 -96 c 0,61,62
 474 -96 474 -96 490 -114 c 0,63,64
 499 -124 499 -124 502 -134 c 1,65,-1
 502 -134 l 1,66,67
 506 -122 506 -122 515 -114 c 0,68,69
 530 -98 530 -98 553 -96 c 0,70,71
 576 -96 576 -96 590 -114 c 256,72,73
 605.058823529 -128.054901961 605.058823529 -128.054901961 605.058823529 -152.560553633 c 0,74,75
 605.058823529 -172.823529412 605.058823529 -172.823529412 590 -186 c 256,76,77
 575 -200 575 -200 553 -202 c 0,78,79
 531 -202 531 -202 515 -186 c 0,80,81
 506 -176 506 -176 502 -166 c 1,82,83
 498 -178 498 -178 490 -186 c 0,84,85
 475 -200 475 -200 452 -202 c 0,86,87
 430 -202 430 -202 415 -186 c 0,88,89
 406 -176 406 -176 402 -166 c 1,90,91
 398 -178 398 -178 390 -186 c 0,92,93
 375 -200 375 -200 353 -202 c 0,94,95
 331 -202 331 -202 315 -186 c 0,96,97
 306 -176 306 -176 302 -166 c 1,98,99
 298 -178 298 -178 290 -186 c 0,100,101
 275 -200 275 -200 252 -202 c 0,102,103
 230 -202 230 -202 215 -186 c 0,104,105
 206 -176 206 -176 202 -166 c 1,106,-1
 202 -166 l 1,107,108
 198 -178 198 -178 189 -186 c 0,109,110
 174 -200 174 -200 152 -202 c 0,111,112
 130 -202 130 -202 115 -186 c 0,113,114
 106 -176 106 -176 103 -166 c 1,115,-1
 103 -166 l 1,116,117
 99 -178 99 -178 90 -186 c 0,118,119
 74 -200 74 -200 52 -202 c 1,120,-1
 52 -202 l 1,18,19
103 34 m 1,121,-1
 103 34 l 1,122,-1
 103 34 l 1,123,-1
 103 34 l 1,124,-1
 103 34 l 1,121,-1
302 34 m 1,125,-1
 302 34 l 1,126,-1
 302 34 l 1,127,-1
 302 34 l 1,128,-1
 302 34 l 1,125,-1
52 -2 m 1,129,130
 30 -2 30 -2 15 12 c 0,131,132
 0 28 0 28 0 50 c 256,133,134
 0 72 0 72 15 88 c 0,135,136
 29.2222222222 102.222222222 29.2222222222 102.222222222 47.3950617284 102.222222222 c 0,137,138
 49.6666666667 102.222222222 49.6666666667 102.222222222 52 102 c 256,139,140
 74 102 74 102 90 88 c 0,141,142
 99 78 99 78 103 66 c 1,143,-1
 103 66 l 1,144,145
 107 78 107 78 115 88 c 0,146,147
 124 96 124 96 136 100 c 1,148,-1
 136 100 l 1,149,150
 124 104 124 104 115 112 c 0,151,152
 100 128 100 128 100 150 c 128,-1,153
 100 172 100 172 115 186 c 256,154,155
 130 200 130 200 152 202 c 0,156,157
 174 202 174 202 189 186 c 256,158,159
 204 172 204 172 205 150 c 0,160,161
 205 128 205 128 189 112 c 0,162,163
 180 102 180 102 169 100 c 1,164,-1
 169 100 l 1,165,166
 181 96 181 96 189 88 c 0,167,168
 198 78 198 78 202 66 c 1,169,-1
 202 66 l 1,170,171
 206 78 206 78 215 88 c 0,172,173
 229.222222222 102.222222222 229.222222222 102.222222222 247.395061728 102.222222222 c 0,174,175
 249.666666667 102.222222222 249.666666667 102.222222222 252 102 c 0,176,177
 274 102 274 102 290 88 c 0,178,179
 299 78 299 78 302 66 c 1,180,-1
 302 66 l 1,181,182
 306 78 306 78 315 88 c 0,183,184
 328.333333333 102.222222222 328.333333333 102.222222222 347.987654321 102.222222222 c 0,185,186
 350.444444444 102.222222222 350.444444444 102.222222222 353 102 c 0,187,188
 375 102 375 102 390 88 c 0,189,190
 399 78 399 78 402 66 c 1,191,-1
 402 66 l 1,192,193
 406 78 406 78 415 88 c 0,194,195
 428.333333333 102.222222222 428.333333333 102.222222222 447.197530864 102.222222222 c 0,196,197
 449.555555556 102.222222222 449.555555556 102.222222222 452 102 c 0,198,199
 474 102 474 102 490 88 c 0,200,201
 505 72 505 72 505 50 c 256,202,203
 505 28 505 28 490 12 c 0,204,205
 475 -2 475 -2 452 -2 c 0,206,207
 430 -2 430 -2 415 12 c 0,208,209
 406 22 406 22 402 34 c 1,210,211
 398 22 398 22 390 12 c 0,212,213
 375 -2 375 -2 353 -2 c 128,-1,214
 331 -2 331 -2 315 12 c 0,215,216
 306 22 306 22 302 34 c 1,217,218
 298 22 298 22 290 12 c 0,219,220
 275 -2 275 -2 252 -2 c 0,221,222
 230 -2 230 -2 215 12 c 0,223,224
 206 22 206 22 202 34 c 1,225,226
 198 22 198 22 189 12 c 0,227,228
 174 -2 174 -2 152 -2 c 128,-1,229
 130 -2 130 -2 115 12 c 0,230,231
 106 22 106 22 103 34 c 1,232,-1
 103 34 l 1,233,234
 99 22 99 22 90 12 c 0,235,236
 74 -2 74 -2 52 -2 c 1,237,-1
 52 -2 l 1,129,130
252 198 m 1,238,239
 230 198 230 198 215 212 c 0,240,241
 200 228 200 228 200 250 c 128,-1,242
 200 272 200 272 215 288 c 0,243,244
 231 302 231 302 252 302 c 0,245,246
 274 302 274 302 290 288 c 256,247,248
 305 274 305 274 305 250 c 0,249,250
 305 228 305 228 290 212 c 0,251,252
 275 198 275 198 252 198 c 1,253,-1
 252 198 l 1,238,239
353 298 m 1,254,255
 331 298 331 298 315 312 c 256,256,257
 300 326 300 326 300 350 c 0,258,259
 300 372 300 372 315 388 c 256,260,261
 330 402 330 402 353 402 c 0,262,263
 375 402 375 402 390 388 c 256,264,265
 405 372 405 372 405 350 c 128,-1,266
 405 328 405 328 390 312 c 256,267,268
 375 298 375 298 353 298 c 1,269,-1
 353 298 l 1,254,255
52 498 m 1,270,271
 30 498 30 498 15 512 c 128,-1,272
 0 526 0 526 0 550 c 128,-1,273
 0 574 0 574 15 588 c 0,274,275
 31 602 31 602 52 602 c 256,276,277
 54.4444444444 602.222222222 54.4444444444 602.222222222 56.8148148148 602.222222222 c 0,278,279
 75.7777777778 602.222222222 75.7777777778 602.222222222 90 588 c 0,280,281
 104.0625 573 104.0625 573 104.0625 552.7265625 c 0,282,283
 104.0625 528.071428571 104.0625 528.071428571 90 512 c 0,284,285
 74 498 74 498 52 498 c 1,286,-1
 52 498 l 1,270,271
452 398 m 1,287,288
 430 398 430 398 415 412 c 256,289,290
 400 428 400 428 400 450 c 128,-1,291
 400 472 400 472 415 488 c 0,292,293
 424 498 424 498 436 500 c 1,294,-1
 436 500 l 1,295,296
 424 504 424 504 415 512 c 0,297,298
 400 526 400 526 400 550 c 128,-1,299
 400 574 400 574 415 588 c 256,300,301
 430 602 430 602 452 602 c 0,302,303
 454.444444444 602.222222222 454.444444444 602.222222222 456.814814815 602.222222222 c 0,304,305
 475.777777778 602.222222222 475.777777778 602.222222222 490 588 c 256,306,307
 505 572 505 572 505 550 c 128,-1,308
 505 528 505 528 490 512 c 0,309,310
 481 504 481 504 469 500 c 1,311,-1
 469 500 l 1,312,313
 481 496 481 496 490 488 c 0,314,315
 505 474 505 474 505 450 c 0,316,317
 505 428 505 428 490 412 c 256,318,319
 475 398 475 398 452 398 c 1,320,-1
 452 398 l 1,287,288
202 634 m 1,321,-1
 202 634 l 1,322,-1
 202 634 l 1,323,-1
 202 634 l 1,324,-1
 202 634 l 1,321,-1
302 634 m 1,325,-1
 302 634 l 1,326,-1
 302 634 l 1,327,-1
 302 634 l 1,328,-1
 302 634 l 1,325,-1
152 598 m 1,329,330
 130 598 130 598 115 614 c 256,331,332
 100 628 100 628 100 650 c 128,-1,333
 100 672 100 672 115 686 c 256,334,335
 130 700 130 700 152 702 c 0,336,337
 174 702 174 702 189 686 c 0,338,339
 198 676 198 676 202 666 c 1,340,-1
 202 666 l 1,341,342
 206 678 206 678 215 686 c 0,343,344
 231 700 231 700 252 702 c 0,345,346
 274 702 274 702 290 686 c 0,347,348
 299 676 299 676 302 666 c 1,349,-1
 302 666 l 1,350,351
 306 678 306 678 315 686 c 0,352,353
 330 700 330 700 353 702 c 0,354,355
 375 702 375 702 390 686 c 256,356,357
 405 672 405 672 405 650 c 128,-1,358
 405 628 405 628 390 614 c 256,359,360
 375 600 375 600 353 598 c 0,361,362
 331 598 331 598 315 614 c 0,363,364
 306 624 306 624 302 634 c 1,365,366
 298 622 298 622 290 614 c 0,367,368
 275 600 275 600 252 598 c 0,369,370
 230 598 230 598 215 614 c 0,371,372
 206 624 206 624 202 634 c 1,373,374
 198 622 198 622 189 614 c 0,375,376
 174 600 174 600 152 598 c 1,377,-1
 152 598 l 1,329,330
EndSplineSet
EndChar

StartChar: three
Encoding: 51 51 19
Width: 600
VWidth: 897
Flags: W
LayerCount: 2
Fore
SplineSet
103 -166 m 1,0,1
 103 -166 l 1,2,-1
 103 -166 l 1,3,4
 103 -166 l 1,5,-1
 103 -166 l 1,0,1
302 -166 m 1,6,7
 302 -166 l 1,8,-1
 302 -166 l 1,9,10
 302 -166 l 1,11,-1
 302 -166 l 1,6,7
502 -166 m 1,12,13
 502 -166 l 1,14,-1
 502 -166 l 1,15,16
 502 -166 l 1,17,-1
 502 -166 l 1,12,13
52 -202 m 1,18,19
 30 -202 30 -202 15 -186 c 128,-1,20
 0 -170 0 -170 0 -150 c 0,21,22
 0 -128 0 -128 15 -114 c 0,23,24
 31 -98 31 -98 52 -96 c 256,25,26
 74 -96 74 -96 90 -114 c 0,27,28
 99 -124 99 -124 103 -134 c 1,29,-1
 103 -134 l 1,30,31
 107 -122 107 -122 115 -114 c 0,32,33
 130 -98 130 -98 152 -96 c 0,34,35
 174 -96 174 -96 189 -114 c 0,36,37
 198 -124 198 -124 202 -134 c 1,38,-1
 202 -134 l 1,39,40
 206 -122 206 -122 215 -114 c 0,41,42
 231 -98 231 -98 252 -96 c 0,43,44
 274 -96 274 -96 290 -114 c 0,45,46
 299 -124 299 -124 302 -134 c 1,47,-1
 302 -134 l 1,48,49
 306 -122 306 -122 315 -114 c 0,50,51
 330 -98 330 -98 353 -96 c 0,52,53
 375 -96 375 -96 390 -114 c 0,54,55
 399 -124 399 -124 402 -134 c 1,56,-1
 402 -134 l 1,57,58
 406 -122 406 -122 415 -114 c 0,59,60
 430 -98 430 -98 452 -96 c 0,61,62
 474 -96 474 -96 490 -114 c 0,63,64
 499 -124 499 -124 502 -134 c 1,65,-1
 502 -134 l 1,66,67
 506 -122 506 -122 515 -114 c 0,68,69
 530 -98 530 -98 553 -96 c 0,70,71
 576 -96 576 -96 590 -114 c 256,72,73
 605.058823529 -128.054901961 605.058823529 -128.054901961 605.058823529 -152.560553633 c 0,74,75
 605.058823529 -172.823529412 605.058823529 -172.823529412 590 -186 c 256,76,77
 575 -200 575 -200 553 -202 c 0,78,79
 531 -202 531 -202 515 -186 c 0,80,81
 506 -176 506 -176 502 -166 c 1,82,83
 498 -178 498 -178 490 -186 c 0,84,85
 475 -200 475 -200 452 -202 c 0,86,87
 430 -202 430 -202 415 -186 c 0,88,89
 406 -176 406 -176 402 -166 c 1,90,91
 398 -178 398 -178 390 -186 c 0,92,93
 375 -200 375 -200 353 -202 c 0,94,95
 331 -202 331 -202 315 -186 c 0,96,97
 306 -176 306 -176 302 -166 c 1,98,99
 298 -178 298 -178 290 -186 c 0,100,101
 275 -200 275 -200 252 -202 c 0,102,103
 230 -202 230 -202 215 -186 c 0,104,105
 206 -176 206 -176 202 -166 c 1,106,-1
 202 -166 l 1,107,108
 198 -178 198 -178 189 -186 c 0,109,110
 174 -200 174 -200 152 -202 c 0,111,112
 130 -202 130 -202 115 -186 c 0,113,114
 106 -176 106 -176 103 -166 c 1,115,-1
 103 -166 l 1,116,117
 99 -178 99 -178 90 -186 c 0,118,119
 74 -200 74 -200 52 -202 c 1,120,-1
 52 -202 l 1,18,19
202 34 m 1,121,-1
 202 34 l 1,122,-1
 202 34 l 1,123,-1
 202 34 l 1,124,-1
 202 34 l 1,121,-1
152 -2 m 1,125,126
 130 -2 130 -2 115 12 c 0,127,128
 100 28 100 28 100 50 c 256,129,130
 100 72 100 72 115 88 c 0,131,132
 128.333333333 102.222222222 128.333333333 102.222222222 147.197530864 102.222222222 c 0,133,134
 149.555555556 102.222222222 149.555555556 102.222222222 152 102 c 0,135,136
 174 102 174 102 189 88 c 0,137,138
 198 78 198 78 202 66 c 1,139,-1
 202 66 l 1,140,141
 206 78 206 78 215 88 c 0,142,143
 229.222222222 102.222222222 229.222222222 102.222222222 247.395061728 102.222222222 c 0,144,145
 249.666666667 102.222222222 249.666666667 102.222222222 252 102 c 0,146,147
 274 102 274 102 290 88 c 0,148,149
 299 78 299 78 302 66 c 1,150,-1
 302 66 l 1,151,152
 306 78 306 78 315 88 c 0,153,154
 328.333333333 102.222222222 328.333333333 102.222222222 347.987654321 102.222222222 c 0,155,156
 350.444444444 102.222222222 350.444444444 102.222222222 353 102 c 0,157,158
 375 102 375 102 390 88 c 0,159,160
 405 72 405 72 405 50 c 256,161,162
 405 28 405 28 390 12 c 0,163,164
 375 -2 375 -2 353 -2 c 128,-1,165
 331 -2 331 -2 315 12 c 0,166,167
 306 22 306 22 302 34 c 1,168,169
 298 22 298 22 290 12 c 0,170,171
 275 -2 275 -2 252 -2 c 0,172,173
 230 -2 230 -2 215 12 c 0,174,175
 206 22 206 22 202 34 c 1,176,177
 198 22 198 22 189 12 c 0,178,179
 174 -2 174 -2 152 -2 c 1,180,-1
 152 -2 l 1,125,126
52 98 m 1,181,182
 30 98 30 98 15 112 c 0,183,184
 0 128 0 128 0 150 c 128,-1,185
 0 172 0 172 15 186 c 0,186,187
 31 200 31 200 52 202 c 256,188,189
 74 202 74 202 90 186 c 0,190,191
 104.0625 172.875 104.0625 172.875 104.0625 152.71875 c 0,192,193
 104.0625 128.071428571 104.0625 128.071428571 90 112 c 0,194,195
 74 98 74 98 52 98 c 1,196,-1
 52 98 l 1,181,182
452 98 m 1,197,198
 430 98 430 98 415 112 c 256,199,200
 400 128 400 128 400 150 c 128,-1,201
 400 172 400 172 415 186 c 0,202,203
 424 196 424 196 436 200 c 1,204,-1
 436 200 l 1,205,206
 424 204 424 204 415 212 c 0,207,208
 400 228 400 228 400 250 c 128,-1,209
 400 272 400 272 415 288 c 256,210,211
 430 302 430 302 452 302 c 128,-1,212
 474 302 474 302 490 288 c 256,213,214
 505 274 505 274 505 250 c 0,215,216
 505 228 505 228 490 212 c 0,217,218
 481 204 481 204 469 200 c 1,219,-1
 469 200 l 1,220,221
 481 196 481 196 490 186 c 0,222,223
 505 172 505 172 505 150 c 128,-1,224
 505 128 505 128 490 112 c 256,225,226
 475 98 475 98 452 98 c 1,227,-1
 452 98 l 1,197,198
353 298 m 1,228,229
 331 298 331 298 315 312 c 256,230,231
 300 326 300 326 300 350 c 0,232,233
 300 372 300 372 315 388 c 256,234,235
 330 402 330 402 353 402 c 0,236,237
 375 402 375 402 390 388 c 256,238,239
 405 372 405 372 405 350 c 128,-1,240
 405 328 405 328 390 312 c 256,241,242
 375 298 375 298 353 298 c 1,243,-1
 353 298 l 1,228,229
252 398 m 1,244,245
 230 398 230 398 215 412 c 0,246,247
 200 428 200 428 200 450 c 128,-1,248
 200 472 200 472 215 488 c 0,249,250
 231 502 231 502 252 502 c 0,251,252
 274 502 274 502 290 488 c 256,253,254
 305 474 305 474 305 450 c 0,255,256
 305 428 305 428 290 412 c 256,257,258
 275 398 275 398 252 398 c 1,259,-1
 252 398 l 1,244,245
202 634 m 1,260,-1
 202 634 l 1,261,-1
 202 634 l 1,262,-1
 202 634 l 1,263,-1
 202 634 l 1,260,-1
402 634 m 1,264,-1
 402 634 l 1,265,-1
 402 634 l 1,266,-1
 402 634 l 1,267,-1
 402 634 l 1,264,-1
353 498 m 1,268,269
 331 498 331 498 315 512 c 256,270,271
 300 526 300 526 300 550 c 128,-1,272
 300 574 300 574 315 588 c 0,273,274
 324 598 324 598 336 600 c 1,275,-1
 336 600 l 1,276,277
 324 604 324 604 315 614 c 256,278,279
 306 624 306 624 302 634 c 1,280,281
 298 622 298 622 290 614 c 0,282,283
 275 600 275 600 252 598 c 0,284,285
 230 598 230 598 215 614 c 0,286,287
 206 624 206 624 202 634 c 1,288,289
 198 622 198 622 189 614 c 0,290,291
 174 600 174 600 152 598 c 0,292,293
 130 598 130 598 115 614 c 0,294,295
 106 624 106 624 103 634 c 1,296,-1
 103 634 l 1,297,298
 99 622 99 622 90 614 c 0,299,300
 74 600 74 600 52 598 c 256,301,302
 30 598 30 598 15 614 c 0,303,304
 0 628 0 628 0 650 c 128,-1,305
 0 672 0 672 15 686 c 0,306,307
 31 700 31 700 52 702 c 256,308,309
 74 702 74 702 90 686 c 0,310,311
 99 676 99 676 103 666 c 1,312,-1
 103 666 l 1,313,314
 107 678 107 678 115 686 c 0,315,316
 130 700 130 700 152 702 c 0,317,318
 174 702 174 702 189 686 c 0,319,320
 198 676 198 676 202 666 c 1,321,-1
 202 666 l 1,322,323
 206 678 206 678 215 686 c 0,324,325
 231 700 231 700 252 702 c 0,326,327
 274 702 274 702 290 686 c 0,328,329
 299 676 299 676 302 666 c 1,330,-1
 302 666 l 1,331,332
 306 678 306 678 315 686 c 0,333,334
 330 700 330 700 353 702 c 0,335,336
 375 702 375 702 390 686 c 0,337,338
 399 676 399 676 402 666 c 1,339,-1
 402 666 l 1,340,341
 406 678 406 678 415 686 c 0,342,343
 430 700 430 700 452 702 c 0,344,345
 474 702 474 702 490 686 c 256,346,347
 505 672 505 672 505 650 c 128,-1,348
 505 628 505 628 490 614 c 256,349,350
 475 600 475 600 452 598 c 0,351,352
 430 598 430 598 415 614 c 0,353,354
 406 624 406 624 402 634 c 1,355,356
 398 622 398 622 390 614 c 256,357,358
 381 606 381 606 369 600 c 1,359,-1
 369 600 l 1,360,361
 381 596 381 596 390 588 c 0,362,363
 405 572 405 572 405 550 c 128,-1,364
 405 528 405 528 390 512 c 256,365,366
 375 498 375 498 353 498 c 1,367,-1
 353 498 l 1,268,269
EndSplineSet
EndChar

StartChar: four
Encoding: 52 52 20
Width: 600
VWidth: 897
Flags: W
LayerCount: 2
Fore
SplineSet
103 -166 m 1,0,1
 103 -166 l 1,2,-1
 103 -166 l 1,3,4
 103 -166 l 1,5,-1
 103 -166 l 1,0,1
302 -166 m 1,6,7
 302 -166 l 1,8,-1
 302 -166 l 1,9,10
 302 -166 l 1,11,-1
 302 -166 l 1,6,7
502 -166 m 1,12,13
 502 -166 l 1,14,-1
 502 -166 l 1,15,16
 502 -166 l 1,17,-1
 502 -166 l 1,12,13
52 -202 m 1,18,19
 30 -202 30 -202 15 -186 c 128,-1,20
 0 -170 0 -170 0 -150 c 0,21,22
 0 -128 0 -128 15 -114 c 0,23,24
 31 -98 31 -98 52 -96 c 256,25,26
 74 -96 74 -96 90 -114 c 0,27,28
 99 -124 99 -124 103 -134 c 1,29,-1
 103 -134 l 1,30,31
 107 -122 107 -122 115 -114 c 0,32,33
 130 -98 130 -98 152 -96 c 0,34,35
 174 -96 174 -96 189 -114 c 0,36,37
 198 -124 198 -124 202 -134 c 1,38,-1
 202 -134 l 1,39,40
 206 -122 206 -122 215 -114 c 0,41,42
 231 -98 231 -98 252 -96 c 0,43,44
 274 -96 274 -96 290 -114 c 0,45,46
 299 -124 299 -124 302 -134 c 1,47,-1
 302 -134 l 1,48,49
 306 -122 306 -122 315 -114 c 0,50,51
 330 -98 330 -98 353 -96 c 0,52,53
 375 -96 375 -96 390 -114 c 0,54,55
 399 -124 399 -124 402 -134 c 1,56,-1
 402 -134 l 1,57,58
 406 -122 406 -122 415 -114 c 0,59,60
 430 -98 430 -98 452 -96 c 0,61,62
 474 -96 474 -96 490 -114 c 0,63,64
 499 -124 499 -124 502 -134 c 1,65,-1
 502 -134 l 1,66,67
 506 -122 506 -122 515 -114 c 0,68,69
 530 -98 530 -98 553 -96 c 0,70,71
 576 -96 576 -96 590 -114 c 256,72,73
 605.058823529 -128.054901961 605.058823529 -128.054901961 605.058823529 -152.560553633 c 0,74,75
 605.058823529 -172.823529412 605.058823529 -172.823529412 590 -186 c 256,76,77
 575 -200 575 -200 553 -202 c 0,78,79
 531 -202 531 -202 515 -186 c 0,80,81
 506 -176 506 -176 502 -166 c 1,82,83
 498 -178 498 -178 490 -186 c 0,84,85
 475 -200 475 -200 452 -202 c 0,86,87
 430 -202 430 -202 415 -186 c 0,88,89
 406 -176 406 -176 402 -166 c 1,90,91
 398 -178 398 -178 390 -186 c 0,92,93
 375 -200 375 -200 353 -202 c 0,94,95
 331 -202 331 -202 315 -186 c 0,96,97
 306 -176 306 -176 302 -166 c 1,98,99
 298 -178 298 -178 290 -186 c 0,100,101
 275 -200 275 -200 252 -202 c 0,102,103
 230 -202 230 -202 215 -186 c 0,104,105
 206 -176 206 -176 202 -166 c 1,106,-1
 202 -166 l 1,107,108
 198 -178 198 -178 189 -186 c 0,109,110
 174 -200 174 -200 152 -202 c 0,111,112
 130 -202 130 -202 115 -186 c 0,113,114
 106 -176 106 -176 103 -166 c 1,115,-1
 103 -166 l 1,116,117
 99 -178 99 -178 90 -186 c 0,118,119
 74 -200 74 -200 52 -202 c 1,120,-1
 52 -202 l 1,18,19
103 234 m 1,121,-1
 103 234 l 1,122,-1
 103 234 l 1,123,-1
 103 234 l 1,124,-1
 103 234 l 1,121,-1
302 234 m 1,125,-1
 302 234 l 1,126,-1
 302 234 l 1,127,-1
 302 234 l 1,128,-1
 302 234 l 1,125,-1
152 398 m 1,129,130
 130 398 130 398 115 412 c 256,131,132
 100 428 100 428 100 450 c 128,-1,133
 100 472 100 472 115 488 c 256,134,135
 130 502 130 502 152 502 c 128,-1,136
 174 502 174 502 189 488 c 256,137,138
 204 474 204 474 205 450 c 0,139,140
 205 428 205 428 189 412 c 256,141,142
 174 398 174 398 152 398 c 1,143,-1
 152 398 l 1,129,130
302 534 m 1,144,-1
 302 534 l 1,145,-1
 302 534 l 1,146,-1
 302 534 l 1,147,-1
 302 534 l 1,144,-1
353 -2 m 1,148,149
 331 -2 331 -2 315 12 c 0,150,151
 300 28 300 28 300 50 c 256,152,153
 300 72 300 72 315 88 c 0,154,155
 324 96 324 96 336 100 c 1,156,-1
 336 100 l 1,157,158
 324 104 324 104 315 112 c 0,159,160
 300 128 300 128 300 150 c 128,-1,161
 300 172 300 172 315 186 c 0,162,163
 324 196 324 196 336 200 c 1,164,-1
 336 200 l 1,165,166
 324 204 324 204 315 212 c 0,167,168
 306 222 306 222 302 234 c 1,169,170
 298 222 298 222 290 212 c 0,171,172
 275 198 275 198 252 198 c 0,173,174
 230 198 230 198 215 212 c 0,175,176
 206 222 206 222 202 234 c 1,177,178
 198 222 198 222 189 212 c 0,179,180
 174 198 174 198 152 198 c 128,-1,181
 130 198 130 198 115 212 c 0,182,183
 106 222 106 222 103 234 c 1,184,-1
 103 234 l 1,185,186
 99 222 99 222 90 212 c 0,187,188
 74 198 74 198 52 198 c 256,189,190
 30 198 30 198 15 212 c 0,191,192
 0 228 0 228 0 250 c 128,-1,193
 0 272 0 272 15 288 c 0,194,195
 24 298 24 298 36 300 c 1,196,-1
 36 300 l 1,197,198
 24 304 24 304 15 312 c 0,199,200
 0 326 0 326 0 350 c 0,201,202
 0 372 0 372 15 388 c 0,203,204
 31 402 31 402 52 402 c 256,205,206
 74 402 74 402 90 388 c 0,207,208
 104.0625 373 104.0625 373 104.0625 352.7265625 c 0,209,210
 104.0625 328.071428571 104.0625 328.071428571 90 312 c 0,211,212
 81 304 81 304 69 300 c 1,213,-1
 69 300 l 1,214,215
 81 296 81 296 90 288 c 0,216,217
 99 278 99 278 103 266 c 1,218,-1
 103 266 l 1,219,220
 107 278 107 278 115 288 c 0,221,222
 130 302 130 302 152 302 c 128,-1,223
 174 302 174 302 189 288 c 0,224,225
 198 278 198 278 202 266 c 1,226,-1
 202 266 l 1,227,228
 206 278 206 278 215 288 c 0,229,230
 231 302 231 302 252 302 c 0,231,232
 274 302 274 302 290 288 c 0,233,234
 299 278 299 278 302 266 c 1,235,-1
 302 266 l 1,236,237
 306 278 306 278 315 288 c 128,-1,238
 324 298 324 298 336 300 c 1,239,-1
 336 300 l 1,240,241
 324 304 324 304 315 312 c 0,242,243
 300 326 300 326 300 350 c 0,244,245
 300 372 300 372 315 388 c 0,246,247
 324 398 324 398 336 400 c 1,248,-1
 336 400 l 1,249,250
 324 404 324 404 315 412 c 0,251,252
 300 428 300 428 300 450 c 128,-1,253
 300 472 300 472 315 488 c 0,254,255
 324 498 324 498 336 500 c 1,256,-1
 336 500 l 1,257,258
 324 504 324 504 315 512 c 256,259,260
 306 522 306 522 302 534 c 1,261,-1
 302 534 l 1,262,263
 298 522 298 522 290 512 c 0,264,265
 275 498 275 498 252 498 c 0,266,267
 230 498 230 498 215 512 c 128,-1,268
 200 526 200 526 200 550 c 128,-1,269
 200 574 200 574 215 588 c 0,270,271
 231 602 231 602 252 602 c 0,272,273
 254.444444444 602.222222222 254.444444444 602.222222222 256.814814815 602.222222222 c 0,274,275
 275.777777778 602.222222222 275.777777778 602.222222222 290 588 c 0,276,277
 299 578 299 578 302 566 c 1,278,-1
 302 566 l 1,279,280
 306 580 306 580 315 588 c 256,281,282
 324 598 324 598 336 600 c 1,283,-1
 336 600 l 1,284,285
 324 604 324 604 315 614 c 0,286,287
 300 628 300 628 300 650 c 128,-1,288
 300 672 300 672 315 686 c 256,289,290
 330 700 330 700 353 702 c 0,291,292
 375 702 375 702 390 686 c 256,293,294
 405 672 405 672 405 650 c 128,-1,295
 405 628 405 628 390 614 c 0,296,297
 381 606 381 606 369 600 c 1,298,-1
 369 600 l 1,299,300
 381 596 381 596 390 588 c 0,301,302
 405 572 405 572 405 550 c 128,-1,303
 405 528 405 528 390 512 c 0,304,305
 381 504 381 504 369 500 c 1,306,-1
 369 500 l 1,307,308
 381 496 381 496 390 488 c 0,309,310
 405 474 405 474 405 450 c 0,311,312
 405 428 405 428 390 412 c 0,313,314
 381 404 381 404 369 400 c 1,315,-1
 369 400 l 1,316,317
 381 396 381 396 390 388 c 0,318,319
 405 372 405 372 405 350 c 128,-1,320
 405 328 405 328 390 312 c 0,321,322
 381 304 381 304 369 300 c 1,323,-1
 369 300 l 1,324,325
 381 296 381 296 390 288 c 0,326,327
 399 278 399 278 402 266 c 1,328,-1
 402 266 l 1,329,330
 406 278 406 278 415 288 c 0,331,332
 430 302 430 302 452 302 c 128,-1,333
 474 302 474 302 490 288 c 256,334,335
 505 274 505 274 505 250 c 0,336,337
 505 228 505 228 490 212 c 0,338,339
 475 198 475 198 452 198 c 0,340,341
 430 198 430 198 415 212 c 0,342,343
 406 222 406 222 402 234 c 1,344,345
 398 222 398 222 390 212 c 0,346,347
 381 204 381 204 369 200 c 1,348,-1
 369 200 l 1,349,350
 381 196 381 196 390 186 c 0,351,352
 405 172 405 172 405 150 c 128,-1,353
 405 128 405 128 390 112 c 0,354,355
 381 102 381 102 369 100 c 1,356,-1
 369 100 l 1,357,358
 381 96 381 96 390 88 c 0,359,360
 405 72 405 72 405 50 c 256,361,362
 405 28 405 28 390 12 c 0,363,364
 375 -2 375 -2 353 -2 c 1,365,-1
 353 -2 l 1,148,149
EndSplineSet
EndChar

StartChar: five
Encoding: 53 53 21
Width: 600
VWidth: 897
Flags: W
LayerCount: 2
Fore
SplineSet
103 -166 m 1,0,1
 103 -166 l 1,2,-1
 103 -166 l 1,3,4
 103 -166 l 1,5,-1
 103 -166 l 1,0,1
302 -166 m 1,6,7
 302 -166 l 1,8,-1
 302 -166 l 1,9,10
 302 -166 l 1,11,-1
 302 -166 l 1,6,7
502 -166 m 1,12,13
 502 -166 l 1,14,-1
 502 -166 l 1,15,16
 502 -166 l 1,17,-1
 502 -166 l 1,12,13
52 -202 m 1,18,19
 30 -202 30 -202 15 -186 c 128,-1,20
 0 -170 0 -170 0 -150 c 0,21,22
 0 -128 0 -128 15 -114 c 0,23,24
 31 -98 31 -98 52 -96 c 256,25,26
 74 -96 74 -96 90 -114 c 0,27,28
 99 -124 99 -124 103 -134 c 1,29,-1
 103 -134 l 1,30,31
 107 -122 107 -122 115 -114 c 0,32,33
 130 -98 130 -98 152 -96 c 0,34,35
 174 -96 174 -96 189 -114 c 0,36,37
 198 -124 198 -124 202 -134 c 1,38,-1
 202 -134 l 1,39,40
 206 -122 206 -122 215 -114 c 0,41,42
 231 -98 231 -98 252 -96 c 0,43,44
 274 -96 274 -96 290 -114 c 0,45,46
 299 -124 299 -124 302 -134 c 1,47,-1
 302 -134 l 1,48,49
 306 -122 306 -122 315 -114 c 0,50,51
 330 -98 330 -98 353 -96 c 0,52,53
 375 -96 375 -96 390 -114 c 0,54,55
 399 -124 399 -124 402 -134 c 1,56,-1
 402 -134 l 1,57,58
 406 -122 406 -122 415 -114 c 0,59,60
 430 -98 430 -98 452 -96 c 0,61,62
 474 -96 474 -96 490 -114 c 0,63,64
 499 -124 499 -124 502 -134 c 1,65,-1
 502 -134 l 1,66,67
 506 -122 506 -122 515 -114 c 0,68,69
 530 -98 530 -98 553 -96 c 0,70,71
 576 -96 576 -96 590 -114 c 256,72,73
 605.058823529 -128.054901961 605.058823529 -128.054901961 605.058823529 -152.560553633 c 0,74,75
 605.058823529 -172.823529412 605.058823529 -172.823529412 590 -186 c 256,76,77
 575 -200 575 -200 553 -202 c 0,78,79
 531 -202 531 -202 515 -186 c 0,80,81
 506 -176 506 -176 502 -166 c 1,82,83
 498 -178 498 -178 490 -186 c 0,84,85
 475 -200 475 -200 452 -202 c 0,86,87
 430 -202 430 -202 415 -186 c 0,88,89
 406 -176 406 -176 402 -166 c 1,90,91
 398 -178 398 -178 390 -186 c 0,92,93
 375 -200 375 -200 353 -202 c 0,94,95
 331 -202 331 -202 315 -186 c 0,96,97
 306 -176 306 -176 302 -166 c 1,98,99
 298 -178 298 -178 290 -186 c 0,100,101
 275 -200 275 -200 252 -202 c 0,102,103
 230 -202 230 -202 215 -186 c 0,104,105
 206 -176 206 -176 202 -166 c 1,106,-1
 202 -166 l 1,107,108
 198 -178 198 -178 189 -186 c 0,109,110
 174 -200 174 -200 152 -202 c 0,111,112
 130 -202 130 -202 115 -186 c 0,113,114
 106 -176 106 -176 103 -166 c 1,115,-1
 103 -166 l 1,116,117
 99 -178 99 -178 90 -186 c 0,118,119
 74 -200 74 -200 52 -202 c 1,120,-1
 52 -202 l 1,18,19
202 34 m 1,121,-1
 202 34 l 1,122,-1
 202 34 l 1,123,-1
 202 34 l 1,124,-1
 202 34 l 1,121,-1
152 -2 m 1,125,126
 130 -2 130 -2 115 12 c 0,127,128
 100 28 100 28 100 50 c 256,129,130
 100 72 100 72 115 88 c 0,131,132
 128.333333333 102.222222222 128.333333333 102.222222222 147.197530864 102.222222222 c 0,133,134
 149.555555556 102.222222222 149.555555556 102.222222222 152 102 c 0,135,136
 174 102 174 102 189 88 c 0,137,138
 198 78 198 78 202 66 c 1,139,-1
 202 66 l 1,140,141
 206 78 206 78 215 88 c 0,142,143
 229.222222222 102.222222222 229.222222222 102.222222222 247.395061728 102.222222222 c 0,144,145
 249.666666667 102.222222222 249.666666667 102.222222222 252 102 c 0,146,147
 274 102 274 102 290 88 c 0,148,149
 299 78 299 78 302 66 c 1,150,-1
 302 66 l 1,151,152
 306 78 306 78 315 88 c 0,153,154
 328.333333333 102.222222222 328.333333333 102.222222222 347.987654321 102.222222222 c 0,155,156
 350.444444444 102.222222222 350.444444444 102.222222222 353 102 c 0,157,158
 375 102 375 102 390 88 c 0,159,160
 405 72 405 72 405 50 c 256,161,162
 405 28 405 28 390 12 c 0,163,164
 375 -2 375 -2 353 -2 c 128,-1,165
 331 -2 331 -2 315 12 c 0,166,167
 306 22 306 22 302 34 c 1,168,169
 298 22 298 22 290 12 c 0,170,171
 275 -2 275 -2 252 -2 c 0,172,173
 230 -2 230 -2 215 12 c 0,174,175
 206 22 206 22 202 34 c 1,176,177
 198 22 198 22 189 12 c 0,178,179
 174 -2 174 -2 152 -2 c 1,180,-1
 152 -2 l 1,125,126
52 98 m 1,181,182
 30 98 30 98 15 112 c 0,183,184
 0 128 0 128 0 150 c 128,-1,185
 0 172 0 172 15 186 c 0,186,187
 31 200 31 200 52 202 c 256,188,189
 74 202 74 202 90 186 c 0,190,191
 104.0625 172.875 104.0625 172.875 104.0625 152.71875 c 0,192,193
 104.0625 128.071428571 104.0625 128.071428571 90 112 c 0,194,195
 74 98 74 98 52 98 c 1,196,-1
 52 98 l 1,181,182
452 98 m 1,197,198
 430 98 430 98 415 112 c 256,199,200
 400 128 400 128 400 150 c 128,-1,201
 400 172 400 172 415 186 c 0,202,203
 424 196 424 196 436 200 c 1,204,-1
 436 200 l 1,205,206
 424 204 424 204 415 212 c 0,207,208
 400 228 400 228 400 250 c 128,-1,209
 400 272 400 272 415 288 c 0,210,211
 424 298 424 298 436 300 c 1,212,-1
 436 300 l 1,213,214
 424 304 424 304 415 312 c 0,215,216
 400 326 400 326 400 350 c 0,217,218
 400 372 400 372 415 388 c 256,219,220
 430 402 430 402 452 402 c 128,-1,221
 474 402 474 402 490 388 c 256,222,223
 505 372 505 372 505 350 c 128,-1,224
 505 328 505 328 490 312 c 0,225,226
 481 304 481 304 469 300 c 1,227,-1
 469 300 l 1,228,229
 481 296 481 296 490 288 c 0,230,231
 505 274 505 274 505 250 c 0,232,233
 505 228 505 228 490 212 c 0,234,235
 481 204 481 204 469 200 c 1,236,-1
 469 200 l 1,237,238
 481 196 481 196 490 186 c 0,239,240
 505 172 505 172 505 150 c 128,-1,241
 505 128 505 128 490 112 c 256,242,243
 475 98 475 98 452 98 c 1,244,-1
 452 98 l 1,197,198
103 434 m 1,245,-1
 103 434 l 1,246,-1
 103 434 l 1,247,-1
 103 434 l 1,248,-1
 103 434 l 1,245,-1
202 434 m 1,249,-1
 202 434 l 1,250,-1
 202 434 l 1,251,-1
 202 434 l 1,252,-1
 202 434 l 1,249,-1
103 634 m 1,253,-1
 103 634 l 1,254,-1
 103 634 l 1,255,-1
 103 634 l 1,256,-1
 103 634 l 1,253,-1
302 634 m 1,257,-1
 302 634 l 1,258,-1
 302 634 l 1,259,-1
 302 634 l 1,260,-1
 302 634 l 1,257,-1
52 398 m 1,261,262
 30 398 30 398 15 412 c 0,263,264
 0 428 0 428 0 450 c 128,-1,265
 0 472 0 472 15 488 c 0,266,267
 24 498 24 498 36 500 c 1,268,-1
 36 500 l 1,269,270
 24 504 24 504 15 512 c 0,271,272
 0 526 0 526 0 550 c 128,-1,273
 0 574 0 574 15 588 c 0,274,275
 24 598 24 598 36 600 c 1,276,-1
 36 600 l 1,277,278
 24 604 24 604 15 614 c 0,279,280
 0 628 0 628 0 650 c 128,-1,281
 0 672 0 672 15 686 c 0,282,283
 31 700 31 700 52 702 c 256,284,285
 74 702 74 702 90 686 c 0,286,287
 99 676 99 676 103 666 c 1,288,-1
 103 666 l 1,289,290
 107 678 107 678 115 686 c 0,291,292
 130 700 130 700 152 702 c 0,293,294
 174 702 174 702 189 686 c 0,295,296
 198 676 198 676 202 666 c 1,297,-1
 202 666 l 1,298,299
 206 678 206 678 215 686 c 0,300,301
 231 700 231 700 252 702 c 0,302,303
 274 702 274 702 290 686 c 0,304,305
 299 676 299 676 302 666 c 1,306,-1
 302 666 l 1,307,308
 306 678 306 678 315 686 c 0,309,310
 330 700 330 700 353 702 c 0,311,312
 375 702 375 702 390 686 c 0,313,314
 399 676 399 676 402 666 c 1,315,-1
 402 666 l 1,316,317
 406 678 406 678 415 686 c 0,318,319
 430 700 430 700 452 702 c 0,320,321
 474 702 474 702 490 686 c 256,322,323
 505 672 505 672 505 650 c 128,-1,324
 505 628 505 628 490 614 c 256,325,326
 475 600 475 600 452 598 c 0,327,328
 430 598 430 598 415 614 c 0,329,330
 406 624 406 624 402 634 c 1,331,332
 398 622 398 622 390 614 c 0,333,334
 375 600 375 600 353 598 c 0,335,336
 331 598 331 598 315 614 c 0,337,338
 306 624 306 624 302 634 c 1,339,340
 298 622 298 622 290 614 c 0,341,342
 275 600 275 600 252 598 c 0,343,344
 230 598 230 598 215 614 c 0,345,346
 206 624 206 624 202 634 c 1,347,348
 198 622 198 622 189 614 c 0,349,350
 174 600 174 600 152 598 c 0,351,352
 130 598 130 598 115 614 c 0,353,354
 106 624 106 624 103 634 c 1,355,-1
 103 634 l 1,356,357
 99 622 99 622 90 614 c 128,-1,358
 81 606 81 606 69 600 c 1,359,-1
 69 600 l 1,360,361
 81 596 81 596 90 588 c 0,362,363
 104.0625 573 104.0625 573 104.0625 552.7265625 c 0,364,365
 104.0625 528.071428571 104.0625 528.071428571 90 512 c 0,366,367
 81 504 81 504 69 500 c 1,368,-1
 69 500 l 1,369,370
 81 496 81 496 90 488 c 0,371,372
 99 478 99 478 103 466 c 1,373,-1
 103 466 l 1,374,375
 107 478 107 478 115 488 c 0,376,377
 130 502 130 502 152 502 c 128,-1,378
 174 502 174 502 189 488 c 0,379,380
 198 478 198 478 202 466 c 1,381,-1
 202 466 l 1,382,383
 206 478 206 478 215 488 c 0,384,385
 231 502 231 502 252 502 c 0,386,387
 274 502 274 502 290 488 c 0,388,389
 299 478 299 478 302 466 c 1,390,-1
 302 466 l 1,391,392
 306 478 306 478 315 488 c 0,393,394
 330 502 330 502 353 502 c 0,395,396
 375 502 375 502 390 488 c 256,397,398
 405 474 405 474 405 450 c 0,399,400
 405 428 405 428 390 412 c 256,401,402
 375 398 375 398 353 398 c 128,-1,403
 331 398 331 398 315 412 c 0,404,405
 306 422 306 422 302 434 c 1,406,-1
 302 434 l 1,407,408
 298 422 298 422 290 412 c 0,409,410
 275 398 275 398 252 398 c 0,411,412
 230 398 230 398 215 412 c 0,413,414
 206 422 206 422 202 434 c 1,415,416
 198 422 198 422 189 412 c 0,417,418
 174 398 174 398 152 398 c 128,-1,419
 130 398 130 398 115 412 c 0,420,421
 106 422 106 422 103 434 c 1,422,-1
 103 434 l 1,423,424
 99 422 99 422 90 412 c 0,425,426
 74 398 74 398 52 398 c 1,427,-1
 52 398 l 1,261,262
EndSplineSet
EndChar

StartChar: six
Encoding: 54 54 22
Width: 600
VWidth: 897
Flags: W
LayerCount: 2
Fore
SplineSet
103 -166 m 1,0,1
 103 -166 l 1,2,-1
 103 -166 l 1,3,4
 103 -166 l 1,5,-1
 103 -166 l 1,0,1
302 -166 m 1,6,7
 302 -166 l 1,8,-1
 302 -166 l 1,9,10
 302 -166 l 1,11,-1
 302 -166 l 1,6,7
502 -166 m 1,12,13
 502 -166 l 1,14,-1
 502 -166 l 1,15,16
 502 -166 l 1,17,-1
 502 -166 l 1,12,13
52 -202 m 1,18,19
 30 -202 30 -202 15 -186 c 128,-1,20
 0 -170 0 -170 0 -150 c 0,21,22
 0 -128 0 -128 15 -114 c 0,23,24
 31 -98 31 -98 52 -96 c 256,25,26
 74 -96 74 -96 90 -114 c 0,27,28
 99 -124 99 -124 103 -134 c 1,29,-1
 103 -134 l 1,30,31
 107 -122 107 -122 115 -114 c 0,32,33
 130 -98 130 -98 152 -96 c 0,34,35
 174 -96 174 -96 189 -114 c 0,36,37
 198 -124 198 -124 202 -134 c 1,38,-1
 202 -134 l 1,39,40
 206 -122 206 -122 215 -114 c 0,41,42
 231 -98 231 -98 252 -96 c 0,43,44
 274 -96 274 -96 290 -114 c 0,45,46
 299 -124 299 -124 302 -134 c 1,47,-1
 302 -134 l 1,48,49
 306 -122 306 -122 315 -114 c 0,50,51
 330 -98 330 -98 353 -96 c 0,52,53
 375 -96 375 -96 390 -114 c 0,54,55
 399 -124 399 -124 402 -134 c 1,56,-1
 402 -134 l 1,57,58
 406 -122 406 -122 415 -114 c 0,59,60
 430 -98 430 -98 452 -96 c 0,61,62
 474 -96 474 -96 490 -114 c 0,63,64
 499 -124 499 -124 502 -134 c 1,65,-1
 502 -134 l 1,66,67
 506 -122 506 -122 515 -114 c 0,68,69
 530 -98 530 -98 553 -96 c 0,70,71
 576 -96 576 -96 590 -114 c 256,72,73
 605.058823529 -128.054901961 605.058823529 -128.054901961 605.058823529 -152.560553633 c 0,74,75
 605.058823529 -172.823529412 605.058823529 -172.823529412 590 -186 c 256,76,77
 575 -200 575 -200 553 -202 c 0,78,79
 531 -202 531 -202 515 -186 c 0,80,81
 506 -176 506 -176 502 -166 c 1,82,83
 498 -178 498 -178 490 -186 c 0,84,85
 475 -200 475 -200 452 -202 c 0,86,87
 430 -202 430 -202 415 -186 c 0,88,89
 406 -176 406 -176 402 -166 c 1,90,91
 398 -178 398 -178 390 -186 c 0,92,93
 375 -200 375 -200 353 -202 c 0,94,95
 331 -202 331 -202 315 -186 c 0,96,97
 306 -176 306 -176 302 -166 c 1,98,99
 298 -178 298 -178 290 -186 c 0,100,101
 275 -200 275 -200 252 -202 c 0,102,103
 230 -202 230 -202 215 -186 c 0,104,105
 206 -176 206 -176 202 -166 c 1,106,-1
 202 -166 l 1,107,108
 198 -178 198 -178 189 -186 c 0,109,110
 174 -200 174 -200 152 -202 c 0,111,112
 130 -202 130 -202 115 -186 c 0,113,114
 106 -176 106 -176 103 -166 c 1,115,-1
 103 -166 l 1,116,117
 99 -178 99 -178 90 -186 c 0,118,119
 74 -200 74 -200 52 -202 c 1,120,-1
 52 -202 l 1,18,19
202 34 m 1,121,-1
 202 34 l 1,122,-1
 202 34 l 1,123,-1
 202 34 l 1,124,-1
 202 34 l 1,121,-1
152 -2 m 1,125,126
 130 -2 130 -2 115 12 c 0,127,128
 100 28 100 28 100 50 c 256,129,130
 100 72 100 72 115 88 c 0,131,132
 128.333333333 102.222222222 128.333333333 102.222222222 147.197530864 102.222222222 c 0,133,134
 149.555555556 102.222222222 149.555555556 102.222222222 152 102 c 0,135,136
 174 102 174 102 189 88 c 0,137,138
 198 78 198 78 202 66 c 1,139,-1
 202 66 l 1,140,141
 206 78 206 78 215 88 c 0,142,143
 229.222222222 102.222222222 229.222222222 102.222222222 247.395061728 102.222222222 c 0,144,145
 249.666666667 102.222222222 249.666666667 102.222222222 252 102 c 0,146,147
 274 102 274 102 290 88 c 0,148,149
 299 78 299 78 302 66 c 1,150,-1
 302 66 l 1,151,152
 306 78 306 78 315 88 c 0,153,154
 328.333333333 102.222222222 328.333333333 102.222222222 347.987654321 102.222222222 c 0,155,156
 350.444444444 102.222222222 350.444444444 102.222222222 353 102 c 0,157,158
 375 102 375 102 390 88 c 0,159,160
 405 72 405 72 405 50 c 256,161,162
 405 28 405 28 390 12 c 0,163,164
 375 -2 375 -2 353 -2 c 128,-1,165
 331 -2 331 -2 315 12 c 0,166,167
 306 22 306 22 302 34 c 1,168,169
 298 22 298 22 290 12 c 0,170,171
 275 -2 275 -2 252 -2 c 0,172,173
 230 -2 230 -2 215 12 c 0,174,175
 206 22 206 22 202 34 c 1,176,177
 198 22 198 22 189 12 c 0,178,179
 174 -2 174 -2 152 -2 c 1,180,-1
 152 -2 l 1,125,126
452 98 m 1,181,182
 430 98 430 98 415 112 c 256,183,184
 400 128 400 128 400 150 c 128,-1,185
 400 172 400 172 415 186 c 0,186,187
 424 196 424 196 436 200 c 1,188,-1
 436 200 l 1,189,190
 424 204 424 204 415 212 c 0,191,192
 400 228 400 228 400 250 c 128,-1,193
 400 272 400 272 415 288 c 256,194,195
 430 302 430 302 452 302 c 128,-1,196
 474 302 474 302 490 288 c 256,197,198
 505 274 505 274 505 250 c 0,199,200
 505 228 505 228 490 212 c 0,201,202
 481 204 481 204 469 200 c 1,203,-1
 469 200 l 1,204,205
 481 196 481 196 490 186 c 0,206,207
 505 172 505 172 505 150 c 128,-1,208
 505 128 505 128 490 112 c 256,209,210
 475 98 475 98 452 98 c 1,211,-1
 452 98 l 1,181,182
103 334 m 1,212,-1
 103 334 l 1,213,-1
 103 334 l 1,214,-1
 103 334 l 1,215,-1
 103 334 l 1,212,-1
202 334 m 1,216,-1
 202 334 l 1,217,-1
 202 334 l 1,218,-1
 202 334 l 1,219,-1
 202 334 l 1,216,-1
52 98 m 1,220,221
 30 98 30 98 15 112 c 0,222,223
 0 128 0 128 0 150 c 128,-1,224
 0 172 0 172 15 186 c 0,225,226
 24 196 24 196 36 200 c 1,227,-1
 36 200 l 1,228,229
 24 204 24 204 15 212 c 0,230,231
 0 228 0 228 0 250 c 128,-1,232
 0 272 0 272 15 288 c 0,233,234
 24 298 24 298 36 300 c 1,235,-1
 36 300 l 1,236,237
 24 304 24 304 15 312 c 0,238,239
 0 326 0 326 0 350 c 0,240,241
 0 372 0 372 15 388 c 0,242,243
 24 398 24 398 36 400 c 1,244,-1
 36 400 l 1,245,246
 24 404 24 404 15 412 c 0,247,248
 0 428 0 428 0 450 c 128,-1,249
 0 472 0 472 15 488 c 0,250,251
 24 498 24 498 36 500 c 1,252,-1
 36 500 l 1,253,254
 24 504 24 504 15 512 c 0,255,256
 0 526 0 526 0 550 c 128,-1,257
 0 574 0 574 15 588 c 0,258,259
 31 602 31 602 52 602 c 256,260,261
 54.4444444444 602.222222222 54.4444444444 602.222222222 56.8148148148 602.222222222 c 0,262,263
 75.7777777778 602.222222222 75.7777777778 602.222222222 90 588 c 0,264,265
 104.0625 573 104.0625 573 104.0625 552.7265625 c 0,266,267
 104.0625 528.071428571 104.0625 528.071428571 90 512 c 0,268,269
 81 504 81 504 69 500 c 1,270,-1
 69 500 l 1,271,272
 81 496 81 496 90 488 c 0,273,274
 104.0625 474.875 104.0625 474.875 104.0625 452.9609375 c 0,275,276
 104.0625 428.071428571 104.0625 428.071428571 90 412 c 0,277,278
 81 404 81 404 69 400 c 1,279,-1
 69 400 l 1,280,281
 81 396 81 396 90 388 c 0,282,283
 99 378 99 378 103 366 c 1,284,-1
 103 366 l 1,285,286
 107 378 107 378 115 388 c 0,287,288
 130 402 130 402 152 402 c 128,-1,289
 174 402 174 402 189 388 c 0,290,291
 198 378 198 378 202 366 c 1,292,-1
 202 366 l 1,293,294
 206 378 206 378 215 388 c 0,295,296
 231 402 231 402 252 402 c 0,297,298
 274 402 274 402 290 388 c 0,299,300
 299 378 299 378 302 366 c 1,301,-1
 302 366 l 1,302,303
 306 378 306 378 315 388 c 0,304,305
 330 402 330 402 353 402 c 0,306,307
 375 402 375 402 390 388 c 256,308,309
 405 372 405 372 405 350 c 128,-1,310
 405 328 405 328 390 312 c 256,311,312
 375 298 375 298 353 298 c 128,-1,313
 331 298 331 298 315 312 c 0,314,315
 306 322 306 322 302 334 c 1,316,317
 298 322 298 322 290 312 c 0,318,319
 275 298 275 298 252 298 c 0,320,321
 230 298 230 298 215 312 c 0,322,323
 206 322 206 322 202 334 c 1,324,325
 198 322 198 322 189 312 c 0,326,327
 174 298 174 298 152 298 c 128,-1,328
 130 298 130 298 115 312 c 0,329,330
 106 322 106 322 103 334 c 1,331,-1
 103 334 l 1,332,333
 99 322 99 322 90 312 c 0,334,335
 81 304 81 304 69 300 c 1,336,-1
 69 300 l 1,337,338
 81 296 81 296 90 288 c 0,339,340
 104.0625 274.875 104.0625 274.875 104.0625 252.9609375 c 0,341,342
 104.0625 228.071428571 104.0625 228.071428571 90 212 c 0,343,344
 81 204 81 204 69 200 c 1,345,-1
 69 200 l 1,346,347
 81 196 81 196 90 186 c 0,348,349
 104.0625 172.875 104.0625 172.875 104.0625 152.71875 c 0,350,351
 104.0625 128.071428571 104.0625 128.071428571 90 112 c 0,352,353
 74 98 74 98 52 98 c 1,354,-1
 52 98 l 1,220,221
302 634 m 1,355,-1
 302 634 l 1,356,-1
 302 634 l 1,357,-1
 302 634 l 1,358,-1
 302 634 l 1,355,-1
152 598 m 1,359,360
 130 598 130 598 115 614 c 256,361,362
 100 628 100 628 100 650 c 128,-1,363
 100 672 100 672 115 686 c 256,364,365
 130 700 130 700 152 702 c 0,366,367
 174 702 174 702 189 686 c 0,368,369
 198 676 198 676 202 666 c 1,370,-1
 202 666 l 1,371,372
 206 678 206 678 215 686 c 0,373,374
 231 700 231 700 252 702 c 0,375,376
 274 702 274 702 290 686 c 0,377,378
 299 676 299 676 302 666 c 1,379,-1
 302 666 l 1,380,381
 306 678 306 678 315 686 c 0,382,383
 330 700 330 700 353 702 c 0,384,385
 375 702 375 702 390 686 c 0,386,387
 399 676 399 676 402 666 c 1,388,-1
 402 666 l 1,389,390
 406 678 406 678 415 686 c 0,391,392
 430 700 430 700 452 702 c 0,393,394
 474 702 474 702 490 686 c 256,395,396
 505 672 505 672 505 650 c 128,-1,397
 505 628 505 628 490 614 c 256,398,399
 475 600 475 600 452 598 c 0,400,401
 430 598 430 598 415 614 c 0,402,403
 406 624 406 624 402 634 c 1,404,405
 398 622 398 622 390 614 c 0,406,407
 375 600 375 600 353 598 c 0,408,409
 331 598 331 598 315 614 c 0,410,411
 306 624 306 624 302 634 c 1,412,413
 298 622 298 622 290 614 c 0,414,415
 275 600 275 600 252 598 c 0,416,417
 230 598 230 598 215 614 c 0,418,419
 206 624 206 624 202 634 c 1,420,-1
 202 634 l 1,421,422
 198 622 198 622 189 614 c 0,423,424
 174 600 174 600 152 598 c 1,425,-1
 152 598 l 1,359,360
EndSplineSet
EndChar

StartChar: seven
Encoding: 55 55 23
Width: 600
VWidth: 897
Flags: W
LayerCount: 2
Fore
SplineSet
103 -166 m 1,0,1
 103 -166 l 1,2,-1
 103 -166 l 1,3,4
 103 -166 l 1,5,-1
 103 -166 l 1,0,1
302 -166 m 1,6,7
 302 -166 l 1,8,-1
 302 -166 l 1,9,10
 302 -166 l 1,11,-1
 302 -166 l 1,6,7
502 -166 m 1,12,13
 502 -166 l 1,14,-1
 502 -166 l 1,15,16
 502 -166 l 1,17,-1
 502 -166 l 1,12,13
52 -202 m 1,18,19
 30 -202 30 -202 15 -186 c 128,-1,20
 0 -170 0 -170 0 -150 c 0,21,22
 0 -128 0 -128 15 -114 c 0,23,24
 31 -98 31 -98 52 -96 c 256,25,26
 74 -96 74 -96 90 -114 c 0,27,28
 99 -124 99 -124 103 -134 c 1,29,-1
 103 -134 l 1,30,31
 107 -122 107 -122 115 -114 c 0,32,33
 130 -98 130 -98 152 -96 c 0,34,35
 174 -96 174 -96 189 -114 c 0,36,37
 198 -124 198 -124 202 -134 c 1,38,-1
 202 -134 l 1,39,40
 206 -122 206 -122 215 -114 c 0,41,42
 231 -98 231 -98 252 -96 c 0,43,44
 274 -96 274 -96 290 -114 c 0,45,46
 299 -124 299 -124 302 -134 c 1,47,-1
 302 -134 l 1,48,49
 306 -122 306 -122 315 -114 c 0,50,51
 330 -98 330 -98 353 -96 c 0,52,53
 375 -96 375 -96 390 -114 c 0,54,55
 399 -124 399 -124 402 -134 c 1,56,-1
 402 -134 l 1,57,58
 406 -122 406 -122 415 -114 c 0,59,60
 430 -98 430 -98 452 -96 c 0,61,62
 474 -96 474 -96 490 -114 c 0,63,64
 499 -124 499 -124 502 -134 c 1,65,-1
 502 -134 l 1,66,67
 506 -122 506 -122 515 -114 c 0,68,69
 530 -98 530 -98 553 -96 c 0,70,71
 576 -96 576 -96 590 -114 c 256,72,73
 605.058823529 -128.054901961 605.058823529 -128.054901961 605.058823529 -152.560553633 c 0,74,75
 605.058823529 -172.823529412 605.058823529 -172.823529412 590 -186 c 256,76,77
 575 -200 575 -200 553 -202 c 0,78,79
 531 -202 531 -202 515 -186 c 0,80,81
 506 -176 506 -176 502 -166 c 1,82,83
 498 -178 498 -178 490 -186 c 0,84,85
 475 -200 475 -200 452 -202 c 0,86,87
 430 -202 430 -202 415 -186 c 0,88,89
 406 -176 406 -176 402 -166 c 1,90,91
 398 -178 398 -178 390 -186 c 0,92,93
 375 -200 375 -200 353 -202 c 0,94,95
 331 -202 331 -202 315 -186 c 0,96,97
 306 -176 306 -176 302 -166 c 1,98,99
 298 -178 298 -178 290 -186 c 0,100,101
 275 -200 275 -200 252 -202 c 0,102,103
 230 -202 230 -202 215 -186 c 0,104,105
 206 -176 206 -176 202 -166 c 1,106,-1
 202 -166 l 1,107,108
 198 -178 198 -178 189 -186 c 0,109,110
 174 -200 174 -200 152 -202 c 0,111,112
 130 -202 130 -202 115 -186 c 0,113,114
 106 -176 106 -176 103 -166 c 1,115,-1
 103 -166 l 1,116,117
 99 -178 99 -178 90 -186 c 0,118,119
 74 -200 74 -200 52 -202 c 1,120,-1
 52 -202 l 1,18,19
152 -2 m 1,121,122
 130 -2 130 -2 115 12 c 0,123,124
 100 28 100 28 100 50 c 256,125,126
 100 72 100 72 115 88 c 0,127,128
 124 96 124 96 136 100 c 1,129,-1
 136 100 l 1,130,131
 124 104 124 104 115 112 c 0,132,133
 100 128 100 128 100 150 c 128,-1,134
 100 172 100 172 115 186 c 0,135,136
 124 196 124 196 136 200 c 1,137,-1
 136 200 l 1,138,139
 124 204 124 204 115 212 c 0,140,141
 100 228 100 228 100 250 c 128,-1,142
 100 272 100 272 115 288 c 256,143,144
 130 302 130 302 152 302 c 128,-1,145
 174 302 174 302 189 288 c 256,146,147
 204 274 204 274 205 250 c 0,148,149
 205 228 205 228 189 212 c 0,150,151
 180 204 180 204 169 200 c 1,152,-1
 169 200 l 1,153,154
 181 196 181 196 189 186 c 0,155,156
 204 172 204 172 205 150 c 0,157,158
 205 128 205 128 189 112 c 0,159,160
 180 102 180 102 169 100 c 1,161,-1
 169 100 l 1,162,163
 181 96 181 96 189 88 c 0,164,165
 204 72 204 72 205 50 c 256,166,167
 205 28 205 28 189 12 c 0,168,169
 174 -2 174 -2 152 -2 c 1,170,-1
 152 -2 l 1,121,122
252 298 m 1,171,172
 230 298 230 298 215 312 c 128,-1,173
 200 326 200 326 200 350 c 0,174,175
 200 372 200 372 215 388 c 0,176,177
 231 402 231 402 252 402 c 0,178,179
 274 402 274 402 290 388 c 256,180,181
 305 372 305 372 305 350 c 128,-1,182
 305 328 305 328 290 312 c 256,183,184
 275 298 275 298 252 298 c 1,185,-1
 252 298 l 1,171,172
353 398 m 1,186,187
 331 398 331 398 315 412 c 256,188,189
 300 428 300 428 300 450 c 128,-1,190
 300 472 300 472 315 488 c 256,191,192
 330 502 330 502 353 502 c 0,193,194
 375 502 375 502 390 488 c 256,195,196
 405 474 405 474 405 450 c 0,197,198
 405 428 405 428 390 412 c 256,199,200
 375 398 375 398 353 398 c 1,201,-1
 353 398 l 1,186,187
103 634 m 1,202,-1
 103 634 l 1,203,-1
 103 634 l 1,204,-1
 103 634 l 1,205,-1
 103 634 l 1,202,-1
302 634 m 1,206,-1
 302 634 l 1,207,-1
 302 634 l 1,208,-1
 302 634 l 1,209,-1
 302 634 l 1,206,-1
452 498 m 1,210,211
 430 498 430 498 415 512 c 256,212,213
 400 526 400 526 400 550 c 128,-1,214
 400 574 400 574 415 588 c 0,215,216
 424 598 424 598 436 600 c 1,217,-1
 436 600 l 1,218,219
 424 604 424 604 415 614 c 256,220,221
 406 624 406 624 402 634 c 1,222,223
 398 622 398 622 390 614 c 0,224,225
 375 600 375 600 353 598 c 0,226,227
 331 598 331 598 315 614 c 0,228,229
 306 624 306 624 302 634 c 1,230,231
 298 622 298 622 290 614 c 0,232,233
 275 600 275 600 252 598 c 0,234,235
 230 598 230 598 215 614 c 0,236,237
 206 624 206 624 202 634 c 1,238,239
 198 622 198 622 189 614 c 0,240,241
 174 600 174 600 152 598 c 0,242,243
 130 598 130 598 115 614 c 0,244,245
 106 624 106 624 103 634 c 1,246,-1
 103 634 l 1,247,248
 99 622 99 622 90 614 c 0,249,250
 74 600 74 600 52 598 c 256,251,252
 30 598 30 598 15 614 c 0,253,254
 0 628 0 628 0 650 c 128,-1,255
 0 672 0 672 15 686 c 0,256,257
 31 700 31 700 52 702 c 256,258,259
 74 702 74 702 90 686 c 0,260,261
 99 676 99 676 103 666 c 1,262,-1
 103 666 l 1,263,264
 107 678 107 678 115 686 c 0,265,266
 130 700 130 700 152 702 c 0,267,268
 174 702 174 702 189 686 c 0,269,270
 198 676 198 676 202 666 c 1,271,-1
 202 666 l 1,272,273
 206 678 206 678 215 686 c 0,274,275
 231 700 231 700 252 702 c 0,276,277
 274 702 274 702 290 686 c 0,278,279
 299 676 299 676 302 666 c 1,280,-1
 302 666 l 1,281,282
 306 678 306 678 315 686 c 0,283,284
 330 700 330 700 353 702 c 0,285,286
 375 702 375 702 390 686 c 0,287,288
 399 676 399 676 402 666 c 1,289,-1
 402 666 l 1,290,291
 406 678 406 678 415 686 c 0,292,293
 430 700 430 700 452 702 c 0,294,295
 474 702 474 702 490 686 c 256,296,297
 505 672 505 672 505 650 c 128,-1,298
 505 628 505 628 490 614 c 0,299,300
 481 606 481 606 469 600 c 1,301,-1
 469 600 l 1,302,303
 481 596 481 596 490 588 c 0,304,305
 505 572 505 572 505 550 c 128,-1,306
 505 528 505 528 490 512 c 256,307,308
 475 498 475 498 452 498 c 1,309,-1
 452 498 l 1,210,211
EndSplineSet
EndChar

StartChar: eight
Encoding: 56 56 24
Width: 600
VWidth: 897
Flags: W
LayerCount: 2
Fore
SplineSet
103 -166 m 1,0,1
 103 -166 l 1,2,-1
 103 -166 l 1,3,4
 103 -166 l 1,5,-1
 103 -166 l 1,0,1
302 -166 m 1,6,7
 302 -166 l 1,8,-1
 302 -166 l 1,9,10
 302 -166 l 1,11,-1
 302 -166 l 1,6,7
502 -166 m 1,12,13
 502 -166 l 1,14,-1
 502 -166 l 1,15,16
 502 -166 l 1,17,-1
 502 -166 l 1,12,13
52 -202 m 1,18,19
 30 -202 30 -202 15 -186 c 128,-1,20
 0 -170 0 -170 0 -150 c 0,21,22
 0 -128 0 -128 15 -114 c 0,23,24
 31 -98 31 -98 52 -96 c 256,25,26
 74 -96 74 -96 90 -114 c 0,27,28
 99 -124 99 -124 103 -134 c 1,29,-1
 103 -134 l 1,30,31
 107 -122 107 -122 115 -114 c 0,32,33
 130 -98 130 -98 152 -96 c 0,34,35
 174 -96 174 -96 189 -114 c 0,36,37
 198 -124 198 -124 202 -134 c 1,38,-1
 202 -134 l 1,39,40
 206 -122 206 -122 215 -114 c 0,41,42
 231 -98 231 -98 252 -96 c 0,43,44
 274 -96 274 -96 290 -114 c 0,45,46
 299 -124 299 -124 302 -134 c 1,47,-1
 302 -134 l 1,48,49
 306 -122 306 -122 315 -114 c 0,50,51
 330 -98 330 -98 353 -96 c 0,52,53
 375 -96 375 -96 390 -114 c 0,54,55
 399 -124 399 -124 402 -134 c 1,56,-1
 402 -134 l 1,57,58
 406 -122 406 -122 415 -114 c 0,59,60
 430 -98 430 -98 452 -96 c 0,61,62
 474 -96 474 -96 490 -114 c 0,63,64
 499 -124 499 -124 502 -134 c 1,65,-1
 502 -134 l 1,66,67
 506 -122 506 -122 515 -114 c 0,68,69
 530 -98 530 -98 553 -96 c 0,70,71
 576 -96 576 -96 590 -114 c 256,72,73
 605.058823529 -128.054901961 605.058823529 -128.054901961 605.058823529 -152.560553633 c 0,74,75
 605.058823529 -172.823529412 605.058823529 -172.823529412 590 -186 c 256,76,77
 575 -200 575 -200 553 -202 c 0,78,79
 531 -202 531 -202 515 -186 c 0,80,81
 506 -176 506 -176 502 -166 c 1,82,83
 498 -178 498 -178 490 -186 c 0,84,85
 475 -200 475 -200 452 -202 c 0,86,87
 430 -202 430 -202 415 -186 c 0,88,89
 406 -176 406 -176 402 -166 c 1,90,91
 398 -178 398 -178 390 -186 c 0,92,93
 375 -200 375 -200 353 -202 c 0,94,95
 331 -202 331 -202 315 -186 c 0,96,97
 306 -176 306 -176 302 -166 c 1,98,99
 298 -178 298 -178 290 -186 c 0,100,101
 275 -200 275 -200 252 -202 c 0,102,103
 230 -202 230 -202 215 -186 c 0,104,105
 206 -176 206 -176 202 -166 c 1,106,-1
 202 -166 l 1,107,108
 198 -178 198 -178 189 -186 c 0,109,110
 174 -200 174 -200 152 -202 c 0,111,112
 130 -202 130 -202 115 -186 c 0,113,114
 106 -176 106 -176 103 -166 c 1,115,-1
 103 -166 l 1,116,117
 99 -178 99 -178 90 -186 c 0,118,119
 74 -200 74 -200 52 -202 c 1,120,-1
 52 -202 l 1,18,19
202 34 m 1,121,-1
 202 34 l 1,122,-1
 202 34 l 1,123,-1
 202 34 l 1,124,-1
 202 34 l 1,121,-1
152 -2 m 1,125,126
 130 -2 130 -2 115 12 c 0,127,128
 100 28 100 28 100 50 c 256,129,130
 100 72 100 72 115 88 c 0,131,132
 128.333333333 102.222222222 128.333333333 102.222222222 147.197530864 102.222222222 c 0,133,134
 149.555555556 102.222222222 149.555555556 102.222222222 152 102 c 0,135,136
 174 102 174 102 189 88 c 0,137,138
 198 78 198 78 202 66 c 1,139,-1
 202 66 l 1,140,141
 206 78 206 78 215 88 c 0,142,143
 229.222222222 102.222222222 229.222222222 102.222222222 247.395061728 102.222222222 c 0,144,145
 249.666666667 102.222222222 249.666666667 102.222222222 252 102 c 0,146,147
 274 102 274 102 290 88 c 0,148,149
 299 78 299 78 302 66 c 1,150,-1
 302 66 l 1,151,152
 306 78 306 78 315 88 c 0,153,154
 328.333333333 102.222222222 328.333333333 102.222222222 347.987654321 102.222222222 c 0,155,156
 350.444444444 102.222222222 350.444444444 102.222222222 353 102 c 0,157,158
 375 102 375 102 390 88 c 0,159,160
 405 72 405 72 405 50 c 256,161,162
 405 28 405 28 390 12 c 0,163,164
 375 -2 375 -2 353 -2 c 128,-1,165
 331 -2 331 -2 315 12 c 0,166,167
 306 22 306 22 302 34 c 1,168,169
 298 22 298 22 290 12 c 0,170,171
 275 -2 275 -2 252 -2 c 0,172,173
 230 -2 230 -2 215 12 c 0,174,175
 206 22 206 22 202 34 c 1,176,177
 198 22 198 22 189 12 c 0,178,179
 174 -2 174 -2 152 -2 c 1,180,-1
 152 -2 l 1,125,126
52 98 m 1,181,182
 30 98 30 98 15 112 c 0,183,184
 0 128 0 128 0 150 c 128,-1,185
 0 172 0 172 15 186 c 0,186,187
 24 196 24 196 36 200 c 1,188,-1
 36 200 l 1,189,190
 24 204 24 204 15 212 c 0,191,192
 0 228 0 228 0 250 c 128,-1,193
 0 272 0 272 15 288 c 0,194,195
 31 302 31 302 52 302 c 256,196,197
 74 302 74 302 90 288 c 0,198,199
 104.0625 274.875 104.0625 274.875 104.0625 252.9609375 c 0,200,201
 104.0625 228.071428571 104.0625 228.071428571 90 212 c 0,202,203
 81 204 81 204 69 200 c 1,204,-1
 69 200 l 1,205,206
 81 196 81 196 90 186 c 0,207,208
 104.0625 172.875 104.0625 172.875 104.0625 152.71875 c 0,209,210
 104.0625 128.071428571 104.0625 128.071428571 90 112 c 0,211,212
 74 98 74 98 52 98 c 1,213,-1
 52 98 l 1,181,182
452 98 m 1,214,215
 430 98 430 98 415 112 c 256,216,217
 400 128 400 128 400 150 c 128,-1,218
 400 172 400 172 415 186 c 0,219,220
 424 196 424 196 436 200 c 1,221,-1
 436 200 l 1,222,223
 424 204 424 204 415 212 c 0,224,225
 400 228 400 228 400 250 c 128,-1,226
 400 272 400 272 415 288 c 256,227,228
 430 302 430 302 452 302 c 128,-1,229
 474 302 474 302 490 288 c 256,230,231
 505 274 505 274 505 250 c 0,232,233
 505 228 505 228 490 212 c 0,234,235
 481 204 481 204 469 200 c 1,236,-1
 469 200 l 1,237,238
 481 196 481 196 490 186 c 0,239,240
 505 172 505 172 505 150 c 128,-1,241
 505 128 505 128 490 112 c 256,242,243
 475 98 475 98 452 98 c 1,244,-1
 452 98 l 1,214,215
202 334 m 1,245,-1
 202 334 l 1,246,-1
 202 334 l 1,247,-1
 202 334 l 1,248,-1
 202 334 l 1,245,-1
302 334 m 1,249,-1
 302 334 l 1,250,-1
 302 334 l 1,251,-1
 302 334 l 1,252,-1
 302 334 l 1,249,-1
152 298 m 1,253,254
 130 298 130 298 115 312 c 256,255,256
 100 326 100 326 100 350 c 0,257,258
 100 372 100 372 115 388 c 256,259,260
 130 402 130 402 152 402 c 128,-1,261
 174 402 174 402 189 388 c 0,262,263
 198 378 198 378 202 366 c 1,264,-1
 202 366 l 1,265,266
 206 378 206 378 215 388 c 0,267,268
 231 402 231 402 252 402 c 0,269,270
 274 402 274 402 290 388 c 0,271,272
 299 378 299 378 302 366 c 1,273,-1
 302 366 l 1,274,275
 306 378 306 378 315 388 c 0,276,277
 330 402 330 402 353 402 c 0,278,279
 375 402 375 402 390 388 c 256,280,281
 405 372 405 372 405 350 c 128,-1,282
 405 328 405 328 390 312 c 256,283,284
 375 298 375 298 353 298 c 128,-1,285
 331 298 331 298 315 312 c 0,286,287
 306 322 306 322 302 334 c 1,288,289
 298 322 298 322 290 312 c 0,290,291
 275 298 275 298 252 298 c 0,292,293
 230 298 230 298 215 312 c 0,294,295
 206 322 206 322 202 334 c 1,296,-1
 202 334 l 1,297,298
 198 322 198 322 189 312 c 0,299,300
 174 298 174 298 152 298 c 1,301,-1
 152 298 l 1,253,254
52 398 m 1,302,303
 30 398 30 398 15 412 c 0,304,305
 0 428 0 428 0 450 c 128,-1,306
 0 472 0 472 15 488 c 0,307,308
 24 498 24 498 36 500 c 1,309,-1
 36 500 l 1,310,311
 24 504 24 504 15 512 c 0,312,313
 0 526 0 526 0 550 c 128,-1,314
 0 574 0 574 15 588 c 0,315,316
 31 602 31 602 52 602 c 256,317,318
 54.4444444444 602.222222222 54.4444444444 602.222222222 56.8148148148 602.222222222 c 0,319,320
 75.7777777778 602.222222222 75.7777777778 602.222222222 90 588 c 0,321,322
 104.0625 573 104.0625 573 104.0625 552.7265625 c 0,323,324
 104.0625 528.071428571 104.0625 528.071428571 90 512 c 0,325,326
 81 504 81 504 69 500 c 1,327,-1
 69 500 l 1,328,329
 81 496 81 496 90 488 c 0,330,331
 104.0625 474.875 104.0625 474.875 104.0625 452.9609375 c 0,332,333
 104.0625 428.071428571 104.0625 428.071428571 90 412 c 0,334,335
 74 398 74 398 52 398 c 1,336,-1
 52 398 l 1,302,303
452 398 m 1,337,338
 430 398 430 398 415 412 c 256,339,340
 400 428 400 428 400 450 c 128,-1,341
 400 472 400 472 415 488 c 0,342,343
 424 498 424 498 436 500 c 1,344,-1
 436 500 l 1,345,346
 424 504 424 504 415 512 c 0,347,348
 400 526 400 526 400 550 c 128,-1,349
 400 574 400 574 415 588 c 256,350,351
 430 602 430 602 452 602 c 0,352,353
 454.444444444 602.222222222 454.444444444 602.222222222 456.814814815 602.222222222 c 0,354,355
 475.777777778 602.222222222 475.777777778 602.222222222 490 588 c 256,356,357
 505 572 505 572 505 550 c 128,-1,358
 505 528 505 528 490 512 c 0,359,360
 481 504 481 504 469 500 c 1,361,-1
 469 500 l 1,362,363
 481 496 481 496 490 488 c 0,364,365
 505 474 505 474 505 450 c 0,366,367
 505 428 505 428 490 412 c 256,368,369
 475 398 475 398 452 398 c 1,370,-1
 452 398 l 1,337,338
202 634 m 1,371,-1
 202 634 l 1,372,-1
 202 634 l 1,373,-1
 202 634 l 1,374,-1
 202 634 l 1,371,-1
152 598 m 1,375,376
 130 598 130 598 115 614 c 256,377,378
 100 628 100 628 100 650 c 128,-1,379
 100 672 100 672 115 686 c 256,380,381
 130 700 130 700 152 702 c 0,382,383
 174 702 174 702 189 686 c 0,384,385
 198 676 198 676 202 666 c 1,386,-1
 202 666 l 1,387,388
 206 678 206 678 215 686 c 0,389,390
 231 700 231 700 252 702 c 0,391,392
 274 702 274 702 290 686 c 0,393,394
 299 676 299 676 302 666 c 1,395,-1
 302 666 l 1,396,397
 306 678 306 678 315 686 c 0,398,399
 330 700 330 700 353 702 c 0,400,401
 375 702 375 702 390 686 c 256,402,403
 405 672 405 672 405 650 c 128,-1,404
 405 628 405 628 390 614 c 256,405,406
 375 600 375 600 353 598 c 0,407,408
 331 598 331 598 315 614 c 0,409,410
 306 624 306 624 302 634 c 1,411,412
 298 622 298 622 290 614 c 0,413,414
 275 600 275 600 252 598 c 0,415,416
 230 598 230 598 215 614 c 0,417,418
 206 624 206 624 202 634 c 1,419,420
 198 622 198 622 189 614 c 0,421,422
 174 600 174 600 152 598 c 1,423,-1
 152 598 l 1,375,376
EndSplineSet
EndChar

StartChar: nine
Encoding: 57 57 25
Width: 600
VWidth: 897
Flags: W
LayerCount: 2
Fore
SplineSet
103 -166 m 1,0,1
 103 -166 l 1,2,-1
 103 -166 l 1,3,4
 103 -166 l 1,5,-1
 103 -166 l 1,0,1
302 -166 m 1,6,7
 302 -166 l 1,8,-1
 302 -166 l 1,9,10
 302 -166 l 1,11,-1
 302 -166 l 1,6,7
502 -166 m 1,12,13
 502 -166 l 1,14,-1
 502 -166 l 1,15,16
 502 -166 l 1,17,-1
 502 -166 l 1,12,13
52 -202 m 1,18,19
 30 -202 30 -202 15 -186 c 128,-1,20
 0 -170 0 -170 0 -150 c 0,21,22
 0 -128 0 -128 15 -114 c 0,23,24
 31 -98 31 -98 52 -96 c 256,25,26
 74 -96 74 -96 90 -114 c 0,27,28
 99 -124 99 -124 103 -134 c 1,29,-1
 103 -134 l 1,30,31
 107 -122 107 -122 115 -114 c 0,32,33
 130 -98 130 -98 152 -96 c 0,34,35
 174 -96 174 -96 189 -114 c 0,36,37
 198 -124 198 -124 202 -134 c 1,38,-1
 202 -134 l 1,39,40
 206 -122 206 -122 215 -114 c 0,41,42
 231 -98 231 -98 252 -96 c 0,43,44
 274 -96 274 -96 290 -114 c 0,45,46
 299 -124 299 -124 302 -134 c 1,47,-1
 302 -134 l 1,48,49
 306 -122 306 -122 315 -114 c 0,50,51
 330 -98 330 -98 353 -96 c 0,52,53
 375 -96 375 -96 390 -114 c 0,54,55
 399 -124 399 -124 402 -134 c 1,56,-1
 402 -134 l 1,57,58
 406 -122 406 -122 415 -114 c 0,59,60
 430 -98 430 -98 452 -96 c 0,61,62
 474 -96 474 -96 490 -114 c 0,63,64
 499 -124 499 -124 502 -134 c 1,65,-1
 502 -134 l 1,66,67
 506 -122 506 -122 515 -114 c 0,68,69
 530 -98 530 -98 553 -96 c 0,70,71
 576 -96 576 -96 590 -114 c 256,72,73
 605.058823529 -128.054901961 605.058823529 -128.054901961 605.058823529 -152.560553633 c 0,74,75
 605.058823529 -172.823529412 605.058823529 -172.823529412 590 -186 c 256,76,77
 575 -200 575 -200 553 -202 c 0,78,79
 531 -202 531 -202 515 -186 c 0,80,81
 506 -176 506 -176 502 -166 c 1,82,83
 498 -178 498 -178 490 -186 c 0,84,85
 475 -200 475 -200 452 -202 c 0,86,87
 430 -202 430 -202 415 -186 c 0,88,89
 406 -176 406 -176 402 -166 c 1,90,91
 398 -178 398 -178 390 -186 c 0,92,93
 375 -200 375 -200 353 -202 c 0,94,95
 331 -202 331 -202 315 -186 c 0,96,97
 306 -176 306 -176 302 -166 c 1,98,99
 298 -178 298 -178 290 -186 c 0,100,101
 275 -200 275 -200 252 -202 c 0,102,103
 230 -202 230 -202 215 -186 c 0,104,105
 206 -176 206 -176 202 -166 c 1,106,-1
 202 -166 l 1,107,108
 198 -178 198 -178 189 -186 c 0,109,110
 174 -200 174 -200 152 -202 c 0,111,112
 130 -202 130 -202 115 -186 c 0,113,114
 106 -176 106 -176 103 -166 c 1,115,-1
 103 -166 l 1,116,117
 99 -178 99 -178 90 -186 c 0,118,119
 74 -200 74 -200 52 -202 c 1,120,-1
 52 -202 l 1,18,19
103 34 m 1,121,-1
 103 34 l 1,122,-1
 103 34 l 1,123,-1
 103 34 l 1,124,-1
 103 34 l 1,121,-1
302 34 m 1,125,-1
 302 34 l 1,126,-1
 302 34 l 1,127,-1
 302 34 l 1,128,-1
 302 34 l 1,125,-1
52 -2 m 1,129,130
 30 -2 30 -2 15 12 c 0,131,132
 0 28 0 28 0 50 c 256,133,134
 0 72 0 72 15 88 c 0,135,136
 29.2222222222 102.222222222 29.2222222222 102.222222222 47.3950617284 102.222222222 c 0,137,138
 49.6666666667 102.222222222 49.6666666667 102.222222222 52 102 c 256,139,140
 74 102 74 102 90 88 c 0,141,142
 99 78 99 78 103 66 c 1,143,-1
 103 66 l 1,144,145
 107 78 107 78 115 88 c 0,146,147
 128.333333333 102.222222222 128.333333333 102.222222222 147.197530864 102.222222222 c 0,148,149
 149.555555556 102.222222222 149.555555556 102.222222222 152 102 c 0,150,151
 174 102 174 102 189 88 c 0,152,153
 198 78 198 78 202 66 c 1,154,-1
 202 66 l 1,155,156
 206 78 206 78 215 88 c 0,157,158
 229.222222222 102.222222222 229.222222222 102.222222222 247.395061728 102.222222222 c 0,159,160
 249.666666667 102.222222222 249.666666667 102.222222222 252 102 c 0,161,162
 274 102 274 102 290 88 c 0,163,164
 299 78 299 78 302 66 c 1,165,-1
 302 66 l 1,166,167
 306 78 306 78 315 88 c 0,168,169
 328.333333333 102.222222222 328.333333333 102.222222222 347.987654321 102.222222222 c 0,170,171
 350.444444444 102.222222222 350.444444444 102.222222222 353 102 c 0,172,173
 375 102 375 102 390 88 c 0,174,175
 405 72 405 72 405 50 c 256,176,177
 405 28 405 28 390 12 c 0,178,179
 375 -2 375 -2 353 -2 c 128,-1,180
 331 -2 331 -2 315 12 c 0,181,182
 306 22 306 22 302 34 c 1,183,184
 298 22 298 22 290 12 c 0,185,186
 275 -2 275 -2 252 -2 c 0,187,188
 230 -2 230 -2 215 12 c 0,189,190
 206 22 206 22 202 34 c 1,191,192
 198 22 198 22 189 12 c 0,193,194
 174 -2 174 -2 152 -2 c 128,-1,195
 130 -2 130 -2 115 12 c 0,196,197
 106 22 106 22 103 34 c 1,198,-1
 103 34 l 1,199,200
 99 22 99 22 90 12 c 0,201,202
 74 -2 74 -2 52 -2 c 1,203,-1
 52 -2 l 1,129,130
202 334 m 1,204,-1
 202 334 l 1,205,-1
 202 334 l 1,206,207
 202 334 l 1,208,-1
 202 334 l 1,204,-1
402 334 m 1,209,210
 402 334 l 1,211,-1
 402 334 l 1,212,213
 402 334 l 1,214,-1
 402 334 l 1,209,210
52 398 m 1,215,216
 30 398 30 398 15 412 c 0,217,218
 0 428 0 428 0 450 c 128,-1,219
 0 472 0 472 15 488 c 0,220,221
 24 498 24 498 36 500 c 1,222,-1
 36 500 l 1,223,224
 24 504 24 504 15 512 c 0,225,226
 0 526 0 526 0 550 c 128,-1,227
 0 574 0 574 15 588 c 0,228,229
 31 602 31 602 52 602 c 256,230,231
 54.4444444444 602.222222222 54.4444444444 602.222222222 56.8148148148 602.222222222 c 0,232,233
 75.7777777778 602.222222222 75.7777777778 602.222222222 90 588 c 0,234,235
 104.0625 573 104.0625 573 104.0625 552.7265625 c 0,236,237
 104.0625 528.071428571 104.0625 528.071428571 90 512 c 0,238,239
 81 504 81 504 69 500 c 1,240,-1
 69 500 l 1,241,242
 81 496 81 496 90 488 c 0,243,244
 104.0625 474.875 104.0625 474.875 104.0625 452.9609375 c 0,245,246
 104.0625 428.071428571 104.0625 428.071428571 90 412 c 0,247,248
 74 398 74 398 52 398 c 1,249,-1
 52 398 l 1,215,216
452 98 m 1,250,251
 430 98 430 98 415 112 c 256,252,253
 400 128 400 128 400 150 c 128,-1,254
 400 172 400 172 415 186 c 0,255,256
 424 196 424 196 436 200 c 1,257,-1
 436 200 l 1,258,259
 424 204 424 204 415 212 c 0,260,261
 400 228 400 228 400 250 c 128,-1,262
 400 272 400 272 415 288 c 0,263,264
 424 298 424 298 436 300 c 1,265,-1
 436 300 l 1,266,267
 424 304 424 304 415 312 c 256,268,269
 406 322 406 322 402 334 c 1,270,271
 398 322 398 322 390 312 c 0,272,273
 375 298 375 298 353 298 c 128,-1,274
 331 298 331 298 315 312 c 0,275,276
 306 322 306 322 302 334 c 1,277,278
 298 322 298 322 290 312 c 0,279,280
 275 298 275 298 252 298 c 0,281,282
 230 298 230 298 215 312 c 0,283,284
 206 322 206 322 202 334 c 1,285,286
 198 322 198 322 189 312 c 0,287,288
 174 298 174 298 152 298 c 128,-1,289
 130 298 130 298 115 312 c 256,290,291
 100 326 100 326 100 350 c 0,292,293
 100 372 100 372 115 388 c 256,294,295
 130 402 130 402 152 402 c 128,-1,296
 174 402 174 402 189 388 c 0,297,298
 198 378 198 378 202 366 c 1,299,-1
 202 366 l 1,300,301
 206 378 206 378 215 388 c 0,302,303
 231 402 231 402 252 402 c 0,304,305
 274 402 274 402 290 388 c 0,306,307
 299 378 299 378 302 366 c 1,308,-1
 302 366 l 1,309,310
 306 378 306 378 315 388 c 0,311,312
 330 402 330 402 353 402 c 0,313,314
 375 402 375 402 390 388 c 0,315,316
 399 378 399 378 402 366 c 1,317,-1
 402 366 l 1,318,319
 406 378 406 378 415 388 c 256,320,321
 424 398 424 398 436 400 c 1,322,-1
 436 400 l 1,323,324
 424 404 424 404 415 412 c 0,325,326
 400 428 400 428 400 450 c 128,-1,327
 400 472 400 472 415 488 c 0,328,329
 424 498 424 498 436 500 c 1,330,-1
 436 500 l 1,331,332
 424 504 424 504 415 512 c 0,333,334
 400 526 400 526 400 550 c 128,-1,335
 400 574 400 574 415 588 c 256,336,337
 430 602 430 602 452 602 c 0,338,339
 454.444444444 602.222222222 454.444444444 602.222222222 456.814814815 602.222222222 c 0,340,341
 475.777777778 602.222222222 475.777777778 602.222222222 490 588 c 256,342,343
 505 572 505 572 505 550 c 128,-1,344
 505 528 505 528 490 512 c 0,345,346
 481 504 481 504 469 500 c 1,347,-1
 469 500 l 1,348,349
 481 496 481 496 490 488 c 0,350,351
 505 474 505 474 505 450 c 0,352,353
 505 428 505 428 490 412 c 0,354,355
 481 404 481 404 469 400 c 1,356,-1
 469 400 l 1,357,358
 481 396 481 396 490 388 c 0,359,360
 505 372 505 372 505 350 c 128,-1,361
 505 328 505 328 490 312 c 0,362,363
 481 304 481 304 469 300 c 1,364,-1
 469 300 l 1,365,366
 481 296 481 296 490 288 c 0,367,368
 505 274 505 274 505 250 c 0,369,370
 505 228 505 228 490 212 c 0,371,372
 481 204 481 204 469 200 c 1,373,-1
 469 200 l 1,374,375
 481 196 481 196 490 186 c 0,376,377
 505 172 505 172 505 150 c 128,-1,378
 505 128 505 128 490 112 c 256,379,380
 475 98 475 98 452 98 c 1,381,-1
 452 98 l 1,250,251
202 634 m 1,382,-1
 202 634 l 1,383,-1
 202 634 l 1,384,-1
 202 634 l 1,385,-1
 202 634 l 1,382,-1
152 598 m 1,386,387
 130 598 130 598 115 614 c 256,388,389
 100 628 100 628 100 650 c 128,-1,390
 100 672 100 672 115 686 c 256,391,392
 130 700 130 700 152 702 c 0,393,394
 174 702 174 702 189 686 c 0,395,396
 198 676 198 676 202 666 c 1,397,-1
 202 666 l 1,398,399
 206 678 206 678 215 686 c 0,400,401
 231 700 231 700 252 702 c 0,402,403
 274 702 274 702 290 686 c 0,404,405
 299 676 299 676 302 666 c 1,406,-1
 302 666 l 1,407,408
 306 678 306 678 315 686 c 0,409,410
 330 700 330 700 353 702 c 0,411,412
 375 702 375 702 390 686 c 256,413,414
 405 672 405 672 405 650 c 128,-1,415
 405 628 405 628 390 614 c 256,416,417
 375 600 375 600 353 598 c 0,418,419
 331 598 331 598 315 614 c 0,420,421
 306 624 306 624 302 634 c 1,422,423
 298 622 298 622 290 614 c 0,424,425
 275 600 275 600 252 598 c 0,426,427
 230 598 230 598 215 614 c 0,428,429
 206 624 206 624 202 634 c 1,430,431
 198 622 198 622 189 614 c 0,432,433
 174 600 174 600 152 598 c 1,434,-1
 152 598 l 1,386,387
EndSplineSet
EndChar

StartChar: colon
Encoding: 58 58 26
Width: 600
VWidth: 897
Flags: W
LayerCount: 2
Fore
SplineSet
103 -166 m 1,0,1
 103 -166 l 1,2,-1
 103 -166 l 1,3,4
 103 -166 l 1,5,-1
 103 -166 l 1,0,1
302 -166 m 1,6,7
 302 -166 l 1,8,-1
 302 -166 l 1,9,10
 302 -166 l 1,11,-1
 302 -166 l 1,6,7
502 -166 m 1,12,13
 502 -166 l 1,14,-1
 502 -166 l 1,15,16
 502 -166 l 1,17,-1
 502 -166 l 1,12,13
52 -202 m 1,18,19
 30 -202 30 -202 15 -186 c 128,-1,20
 0 -170 0 -170 0 -150 c 0,21,22
 0 -128 0 -128 15 -114 c 0,23,24
 31 -98 31 -98 52 -96 c 256,25,26
 74 -96 74 -96 90 -114 c 0,27,28
 99 -124 99 -124 103 -134 c 1,29,-1
 103 -134 l 1,30,31
 107 -122 107 -122 115 -114 c 0,32,33
 130 -98 130 -98 152 -96 c 0,34,35
 174 -96 174 -96 189 -114 c 0,36,37
 198 -124 198 -124 202 -134 c 1,38,-1
 202 -134 l 1,39,40
 206 -122 206 -122 215 -114 c 0,41,42
 231 -98 231 -98 252 -96 c 0,43,44
 274 -96 274 -96 290 -114 c 0,45,46
 299 -124 299 -124 302 -134 c 1,47,-1
 302 -134 l 1,48,49
 306 -122 306 -122 315 -114 c 0,50,51
 330 -98 330 -98 353 -96 c 0,52,53
 375 -96 375 -96 390 -114 c 0,54,55
 399 -124 399 -124 402 -134 c 1,56,-1
 402 -134 l 1,57,58
 406 -122 406 -122 415 -114 c 0,59,60
 430 -98 430 -98 452 -96 c 0,61,62
 474 -96 474 -96 490 -114 c 0,63,64
 499 -124 499 -124 502 -134 c 1,65,-1
 502 -134 l 1,66,67
 506 -122 506 -122 515 -114 c 0,68,69
 530 -98 530 -98 553 -96 c 0,70,71
 576 -96 576 -96 590 -114 c 256,72,73
 605.058823529 -128.054901961 605.058823529 -128.054901961 605.058823529 -152.560553633 c 0,74,75
 605.058823529 -172.823529412 605.058823529 -172.823529412 590 -186 c 256,76,77
 575 -200 575 -200 553 -202 c 0,78,79
 531 -202 531 -202 515 -186 c 0,80,81
 506 -176 506 -176 502 -166 c 1,82,83
 498 -178 498 -178 490 -186 c 0,84,85
 475 -200 475 -200 452 -202 c 0,86,87
 430 -202 430 -202 415 -186 c 0,88,89
 406 -176 406 -176 402 -166 c 1,90,91
 398 -178 398 -178 390 -186 c 0,92,93
 375 -200 375 -200 353 -202 c 0,94,95
 331 -202 331 -202 315 -186 c 0,96,97
 306 -176 306 -176 302 -166 c 1,98,99
 298 -178 298 -178 290 -186 c 0,100,101
 275 -200 275 -200 252 -202 c 0,102,103
 230 -202 230 -202 215 -186 c 0,104,105
 206 -176 206 -176 202 -166 c 1,106,-1
 202 -166 l 1,107,108
 198 -178 198 -178 189 -186 c 0,109,110
 174 -200 174 -200 152 -202 c 0,111,112
 130 -202 130 -202 115 -186 c 0,113,114
 106 -176 106 -176 103 -166 c 1,115,116
 99 -178 99 -178 90 -186 c 0,117,118
 74 -200 74 -200 52 -202 c 1,119,-1
 52 -202 l 1,18,19
252 198 m 1,120,121
 230 198 230 198 215 212 c 0,122,123
 200 228 200 228 200 250 c 128,-1,124
 200 272 200 272 215 288 c 0,125,126
 231 302 231 302 252 302 c 0,127,128
 274 302 274 302 290 288 c 256,129,130
 305 274 305 274 305 250 c 0,131,132
 305 228 305 228 290 212 c 0,133,134
 275 198 275 198 252 198 c 1,135,-1
 252 198 l 1,120,121
252 398 m 1,136,137
 230 398 230 398 215 412 c 0,138,139
 200 428 200 428 200 450 c 128,-1,140
 200 472 200 472 215 488 c 0,141,142
 231 502 231 502 252 502 c 0,143,144
 274 502 274 502 290 488 c 256,145,146
 305 474 305 474 305 450 c 0,147,148
 305 428 305 428 290 412 c 256,149,150
 275 398 275 398 252 398 c 1,151,-1
 252 398 l 1,136,137
EndSplineSet
EndChar

StartChar: semicolon
Encoding: 59 59 27
Width: 600
VWidth: 897
Flags: W
LayerCount: 2
Fore
SplineSet
103 -166 m 1,0,1
 103 -166 l 1,2,-1
 103 -166 l 1,3,4
 103 -166 l 1,5,-1
 103 -166 l 1,0,1
302 -166 m 1,6,7
 302 -166 l 1,8,-1
 302 -166 l 1,9,10
 302 -166 l 1,11,-1
 302 -166 l 1,6,7
502 -166 m 1,12,13
 502 -166 l 1,14,-1
 502 -166 l 1,15,16
 502 -166 l 1,17,-1
 502 -166 l 1,12,13
52 -202 m 1,18,19
 30 -202 30 -202 15 -186 c 128,-1,20
 0 -170 0 -170 0 -150 c 0,21,22
 0 -128 0 -128 15 -114 c 0,23,24
 31 -98 31 -98 52 -96 c 256,25,26
 74 -96 74 -96 90 -114 c 0,27,28
 99 -124 99 -124 103 -134 c 1,29,-1
 103 -134 l 1,30,31
 107 -122 107 -122 115 -114 c 0,32,33
 130 -98 130 -98 152 -96 c 0,34,35
 174 -96 174 -96 189 -114 c 0,36,37
 198 -124 198 -124 202 -134 c 1,38,-1
 202 -134 l 1,39,40
 206 -122 206 -122 215 -114 c 0,41,42
 231 -98 231 -98 252 -96 c 0,43,44
 274 -96 274 -96 290 -114 c 0,45,46
 299 -124 299 -124 302 -134 c 1,47,-1
 302 -134 l 1,48,49
 306 -122 306 -122 315 -114 c 0,50,51
 330 -98 330 -98 353 -96 c 0,52,53
 375 -96 375 -96 390 -114 c 0,54,55
 399 -124 399 -124 402 -134 c 1,56,-1
 402 -134 l 1,57,58
 406 -122 406 -122 415 -114 c 0,59,60
 430 -98 430 -98 452 -96 c 0,61,62
 474 -96 474 -96 490 -114 c 0,63,64
 499 -124 499 -124 502 -134 c 1,65,-1
 502 -134 l 1,66,67
 506 -122 506 -122 515 -114 c 0,68,69
 530 -98 530 -98 553 -96 c 0,70,71
 576 -96 576 -96 590 -114 c 256,72,73
 605.058823529 -128.054901961 605.058823529 -128.054901961 605.058823529 -152.560553633 c 0,74,75
 605.058823529 -172.823529412 605.058823529 -172.823529412 590 -186 c 256,76,77
 575 -200 575 -200 553 -202 c 0,78,79
 531 -202 531 -202 515 -186 c 0,80,81
 506 -176 506 -176 502 -166 c 1,82,83
 498 -178 498 -178 490 -186 c 0,84,85
 475 -200 475 -200 452 -202 c 0,86,87
 430 -202 430 -202 415 -186 c 0,88,89
 406 -176 406 -176 402 -166 c 1,90,91
 398 -178 398 -178 390 -186 c 0,92,93
 375 -200 375 -200 353 -202 c 0,94,95
 331 -202 331 -202 315 -186 c 0,96,97
 306 -176 306 -176 302 -166 c 1,98,99
 298 -178 298 -178 290 -186 c 0,100,101
 275 -200 275 -200 252 -202 c 0,102,103
 230 -202 230 -202 215 -186 c 0,104,105
 206 -176 206 -176 202 -166 c 1,106,-1
 202 -166 l 1,107,108
 198 -178 198 -178 189 -186 c 0,109,110
 174 -200 174 -200 152 -202 c 0,111,112
 130 -202 130 -202 115 -186 c 0,113,114
 106 -176 106 -176 103 -166 c 1,115,-1
 103 -166 l 1,116,117
 99 -178 99 -178 90 -186 c 0,118,119
 74 -200 74 -200 52 -202 c 1,120,-1
 52 -202 l 1,18,19
152 -2 m 1,121,122
 130 -2 130 -2 115 12 c 0,123,124
 100 28 100 28 100 50 c 256,125,126
 100 72 100 72 115 88 c 0,127,128
 128.333333333 102.222222222 128.333333333 102.222222222 147.197530864 102.222222222 c 0,129,130
 149.555555556 102.222222222 149.555555556 102.222222222 152 102 c 0,131,132
 174 102 174 102 189 88 c 0,133,134
 204 72 204 72 205 50 c 256,135,136
 205 28 205 28 189 12 c 0,137,138
 174 -2 174 -2 152 -2 c 1,139,-1
 152 -2 l 1,121,122
252 98 m 1,140,141
 230 98 230 98 215 112 c 0,142,143
 200 128 200 128 200 150 c 128,-1,144
 200 172 200 172 215 186 c 0,145,146
 224 196 224 196 236 200 c 1,147,-1
 236 200 l 1,148,149
 224 204 224 204 215 212 c 0,150,151
 200 228 200 228 200 250 c 128,-1,152
 200 272 200 272 215 288 c 0,153,154
 231 302 231 302 252 302 c 0,155,156
 274 302 274 302 290 288 c 256,157,158
 305 274 305 274 305 250 c 0,159,160
 305 228 305 228 290 212 c 0,161,162
 281 204 281 204 269 200 c 1,163,-1
 269 200 l 1,164,165
 281 196 281 196 290 186 c 0,166,167
 305 172 305 172 305 150 c 128,-1,168
 305 128 305 128 290 112 c 256,169,170
 275 98 275 98 252 98 c 1,171,-1
 252 98 l 1,140,141
252 398 m 1,172,173
 230 398 230 398 215 412 c 0,174,175
 200 428 200 428 200 450 c 128,-1,176
 200 472 200 472 215 488 c 0,177,178
 231 502 231 502 252 502 c 0,179,180
 274 502 274 502 290 488 c 256,181,182
 305 474 305 474 305 450 c 0,183,184
 305 428 305 428 290 412 c 256,185,186
 275 398 275 398 252 398 c 1,187,-1
 252 398 l 1,172,173
EndSplineSet
EndChar

StartChar: less
Encoding: 60 60 28
Width: 600
VWidth: 897
Flags: W
LayerCount: 2
Fore
SplineSet
103 -166 m 1,0,1
 103 -166 l 1,2,-1
 103 -166 l 1,3,4
 103 -166 l 1,5,-1
 103 -166 l 1,0,1
302 -166 m 1,6,7
 302 -166 l 1,8,-1
 302 -166 l 1,9,10
 302 -166 l 1,11,-1
 302 -166 l 1,6,7
502 -166 m 1,12,13
 502 -166 l 1,14,-1
 502 -166 l 1,15,16
 502 -166 l 1,17,-1
 502 -166 l 1,12,13
52 -202 m 1,18,19
 30 -202 30 -202 15 -186 c 128,-1,20
 0 -170 0 -170 0 -150 c 0,21,22
 0 -128 0 -128 15 -114 c 0,23,24
 31 -98 31 -98 52 -96 c 256,25,26
 74 -96 74 -96 90 -114 c 0,27,28
 99 -124 99 -124 103 -134 c 1,29,-1
 103 -134 l 1,30,31
 107 -122 107 -122 115 -114 c 0,32,33
 130 -98 130 -98 152 -96 c 0,34,35
 174 -96 174 -96 189 -114 c 0,36,37
 198 -124 198 -124 202 -134 c 1,38,-1
 202 -134 l 1,39,40
 206 -122 206 -122 215 -114 c 0,41,42
 231 -98 231 -98 252 -96 c 0,43,44
 274 -96 274 -96 290 -114 c 0,45,46
 299 -124 299 -124 302 -134 c 1,47,-1
 302 -134 l 1,48,49
 306 -122 306 -122 315 -114 c 0,50,51
 330 -98 330 -98 353 -96 c 0,52,53
 375 -96 375 -96 390 -114 c 0,54,55
 399 -124 399 -124 402 -134 c 1,56,-1
 402 -134 l 1,57,58
 406 -122 406 -122 415 -114 c 0,59,60
 430 -98 430 -98 452 -96 c 0,61,62
 474 -96 474 -96 490 -114 c 0,63,64
 499 -124 499 -124 502 -134 c 1,65,-1
 502 -134 l 1,66,67
 506 -122 506 -122 515 -114 c 0,68,69
 530 -98 530 -98 553 -96 c 0,70,71
 576 -96 576 -96 590 -114 c 256,72,73
 605.058823529 -128.054901961 605.058823529 -128.054901961 605.058823529 -152.560553633 c 0,74,75
 605.058823529 -172.823529412 605.058823529 -172.823529412 590 -186 c 256,76,77
 575 -200 575 -200 553 -202 c 0,78,79
 531 -202 531 -202 515 -186 c 0,80,81
 506 -176 506 -176 502 -166 c 1,82,83
 498 -178 498 -178 490 -186 c 0,84,85
 475 -200 475 -200 452 -202 c 0,86,87
 430 -202 430 -202 415 -186 c 0,88,89
 406 -176 406 -176 402 -166 c 1,90,91
 398 -178 398 -178 390 -186 c 0,92,93
 375 -200 375 -200 353 -202 c 0,94,95
 331 -202 331 -202 315 -186 c 0,96,97
 306 -176 306 -176 302 -166 c 1,98,99
 298 -178 298 -178 290 -186 c 0,100,101
 275 -200 275 -200 252 -202 c 0,102,103
 230 -202 230 -202 215 -186 c 0,104,105
 206 -176 206 -176 202 -166 c 1,106,-1
 202 -166 l 1,107,108
 198 -178 198 -178 189 -186 c 0,109,110
 174 -200 174 -200 152 -202 c 0,111,112
 130 -202 130 -202 115 -186 c 0,113,114
 106 -176 106 -176 103 -166 c 1,115,-1
 103 -166 l 1,116,117
 99 -178 99 -178 90 -186 c 0,118,119
 74 -200 74 -200 52 -202 c 1,120,-1
 52 -202 l 1,18,19
452 -2 m 1,121,122
 430 -2 430 -2 415 12 c 0,123,124
 400 28 400 28 400 50 c 256,125,126
 400 72 400 72 415 88 c 0,127,128
 428.333333333 102.222222222 428.333333333 102.222222222 447.197530864 102.222222222 c 0,129,130
 449.555555556 102.222222222 449.555555556 102.222222222 452 102 c 0,131,132
 474 102 474 102 490 88 c 0,133,134
 505 72 505 72 505 50 c 256,135,136
 505 28 505 28 490 12 c 0,137,138
 475 -2 475 -2 452 -2 c 1,139,-1
 452 -2 l 1,121,122
353 98 m 1,140,141
 331 98 331 98 315 112 c 256,142,143
 300 128 300 128 300 150 c 128,-1,144
 300 172 300 172 315 186 c 256,145,146
 330 200 330 200 353 202 c 0,147,148
 375 202 375 202 390 186 c 256,149,150
 405 172 405 172 405 150 c 128,-1,151
 405 128 405 128 390 112 c 256,152,153
 375 98 375 98 353 98 c 1,154,-1
 353 98 l 1,140,141
252 198 m 1,155,156
 230 198 230 198 215 212 c 0,157,158
 200 228 200 228 200 250 c 128,-1,159
 200 272 200 272 215 288 c 0,160,161
 231 302 231 302 252 302 c 0,162,163
 274 302 274 302 290 288 c 256,164,165
 305 274 305 274 305 250 c 0,166,167
 305 228 305 228 290 212 c 0,168,169
 275 198 275 198 252 198 c 1,170,-1
 252 198 l 1,155,156
152 298 m 1,171,172
 130 298 130 298 115 312 c 256,173,174
 100 326 100 326 100 350 c 0,175,176
 100 372 100 372 115 388 c 256,177,178
 130 402 130 402 152 402 c 128,-1,179
 174 402 174 402 189 388 c 256,180,181
 204 372 204 372 205 350 c 0,182,183
 205 328 205 328 189 312 c 256,184,185
 174 298 174 298 152 298 c 1,186,-1
 152 298 l 1,171,172
252 398 m 1,187,188
 230 398 230 398 215 412 c 0,189,190
 200 428 200 428 200 450 c 128,-1,191
 200 472 200 472 215 488 c 0,192,193
 231 502 231 502 252 502 c 0,194,195
 274 502 274 502 290 488 c 256,196,197
 305 474 305 474 305 450 c 0,198,199
 305 428 305 428 290 412 c 256,200,201
 275 398 275 398 252 398 c 1,202,-1
 252 398 l 1,187,188
353 498 m 1,203,204
 331 498 331 498 315 512 c 256,205,206
 300 526 300 526 300 550 c 128,-1,207
 300 574 300 574 315 588 c 256,208,209
 330 602 330 602 353 602 c 0,210,211
 355.444444444 602.222222222 355.444444444 602.222222222 357.802469136 602.222222222 c 0,212,213
 376.666666667 602.222222222 376.666666667 602.222222222 390 588 c 256,214,215
 405 572 405 572 405 550 c 128,-1,216
 405 528 405 528 390 512 c 256,217,218
 375 498 375 498 353 498 c 1,219,-1
 353 498 l 1,203,204
452 598 m 1,220,221
 430 598 430 598 415 614 c 256,222,223
 400 628 400 628 400 650 c 128,-1,224
 400 672 400 672 415 686 c 256,225,226
 430 700 430 700 452 702 c 0,227,228
 474 702 474 702 490 686 c 256,229,230
 505 672 505 672 505 650 c 128,-1,231
 505 628 505 628 490 614 c 256,232,233
 475 600 475 600 452 598 c 1,234,-1
 452 598 l 1,220,221
EndSplineSet
EndChar

StartChar: equal
Encoding: 61 61 29
Width: 600
VWidth: 897
Flags: W
LayerCount: 2
Fore
SplineSet
103 -166 m 1,0,1
 103 -166 l 1,2,-1
 103 -166 l 1,3,4
 103 -166 l 1,5,-1
 103 -166 l 1,0,1
302 -166 m 1,6,7
 302 -166 l 1,8,-1
 302 -166 l 1,9,10
 302 -166 l 1,11,-1
 302 -166 l 1,6,7
502 -166 m 1,12,13
 502 -166 l 1,14,-1
 502 -166 l 1,15,16
 502 -166 l 1,17,-1
 502 -166 l 1,12,13
52 -202 m 1,18,19
 30 -202 30 -202 15 -186 c 128,-1,20
 0 -170 0 -170 0 -150 c 0,21,22
 0 -128 0 -128 15 -114 c 0,23,24
 31 -98 31 -98 52 -96 c 256,25,26
 74 -96 74 -96 90 -114 c 0,27,28
 99 -124 99 -124 103 -134 c 1,29,-1
 103 -134 l 1,30,31
 107 -122 107 -122 115 -114 c 0,32,33
 130 -98 130 -98 152 -96 c 0,34,35
 174 -96 174 -96 189 -114 c 0,36,37
 198 -124 198 -124 202 -134 c 1,38,-1
 202 -134 l 1,39,40
 206 -122 206 -122 215 -114 c 0,41,42
 231 -98 231 -98 252 -96 c 0,43,44
 274 -96 274 -96 290 -114 c 0,45,46
 299 -124 299 -124 302 -134 c 1,47,-1
 302 -134 l 1,48,49
 306 -122 306 -122 315 -114 c 0,50,51
 330 -98 330 -98 353 -96 c 0,52,53
 375 -96 375 -96 390 -114 c 0,54,55
 399 -124 399 -124 402 -134 c 1,56,-1
 402 -134 l 1,57,58
 406 -122 406 -122 415 -114 c 0,59,60
 430 -98 430 -98 452 -96 c 0,61,62
 474 -96 474 -96 490 -114 c 0,63,64
 499 -124 499 -124 502 -134 c 1,65,-1
 502 -134 l 1,66,67
 506 -122 506 -122 515 -114 c 0,68,69
 530 -98 530 -98 553 -96 c 0,70,71
 576 -96 576 -96 590 -114 c 256,72,73
 605.058823529 -128.054901961 605.058823529 -128.054901961 605.058823529 -152.560553633 c 0,74,75
 605.058823529 -172.823529412 605.058823529 -172.823529412 590 -186 c 256,76,77
 575 -200 575 -200 553 -202 c 0,78,79
 531 -202 531 -202 515 -186 c 0,80,81
 506 -176 506 -176 502 -166 c 1,82,83
 498 -178 498 -178 490 -186 c 0,84,85
 475 -200 475 -200 452 -202 c 0,86,87
 430 -202 430 -202 415 -186 c 0,88,89
 406 -176 406 -176 402 -166 c 1,90,91
 398 -178 398 -178 390 -186 c 0,92,93
 375 -200 375 -200 353 -202 c 0,94,95
 331 -202 331 -202 315 -186 c 0,96,97
 306 -176 306 -176 302 -166 c 1,98,99
 298 -178 298 -178 290 -186 c 0,100,101
 275 -200 275 -200 252 -202 c 0,102,103
 230 -202 230 -202 215 -186 c 0,104,105
 206 -176 206 -176 202 -166 c 1,106,-1
 202 -166 l 1,107,108
 198 -178 198 -178 189 -186 c 0,109,110
 174 -200 174 -200 152 -202 c 0,111,112
 130 -202 130 -202 115 -186 c 0,113,114
 106 -176 106 -176 103 -166 c 1,115,-1
 103 -166 l 1,116,117
 99 -178 99 -178 90 -186 c 0,118,119
 74 -200 74 -200 52 -202 c 1,120,-1
 52 -202 l 1,18,19
103 234 m 1,121,-1
 103 234 l 1,122,-1
 103 234 l 1,123,-1
 103 234 l 1,124,-1
 103 234 l 1,121,-1
302 234 m 1,125,-1
 302 234 l 1,126,-1
 302 234 l 1,127,-1
 302 234 l 1,128,-1
 302 234 l 1,125,-1
52 198 m 1,129,130
 30 198 30 198 15 212 c 0,131,132
 0 228 0 228 0 250 c 128,-1,133
 0 272 0 272 15 288 c 0,134,135
 31 302 31 302 52 302 c 256,136,137
 74 302 74 302 90 288 c 0,138,139
 99 278 99 278 103 266 c 1,140,-1
 103 266 l 1,141,142
 107 278 107 278 115 288 c 0,143,144
 130 302 130 302 152 302 c 128,-1,145
 174 302 174 302 189 288 c 0,146,147
 198 278 198 278 202 266 c 1,148,-1
 202 266 l 1,149,150
 206 278 206 278 215 288 c 0,151,152
 231 302 231 302 252 302 c 0,153,154
 274 302 274 302 290 288 c 0,155,156
 299 278 299 278 302 266 c 1,157,-1
 302 266 l 1,158,159
 306 278 306 278 315 288 c 0,160,161
 330 302 330 302 353 302 c 0,162,163
 375 302 375 302 390 288 c 0,164,165
 399 278 399 278 402 266 c 1,166,-1
 402 266 l 1,167,168
 406 278 406 278 415 288 c 0,169,170
 430 302 430 302 452 302 c 128,-1,171
 474 302 474 302 490 288 c 256,172,173
 505 274 505 274 505 250 c 0,174,175
 505 228 505 228 490 212 c 0,176,177
 475 198 475 198 452 198 c 0,178,179
 430 198 430 198 415 212 c 0,180,181
 406 222 406 222 402 234 c 1,182,183
 398 222 398 222 390 212 c 0,184,185
 375 198 375 198 353 198 c 128,-1,186
 331 198 331 198 315 212 c 0,187,188
 306 222 306 222 302 234 c 1,189,190
 298 222 298 222 290 212 c 0,191,192
 275 198 275 198 252 198 c 0,193,194
 230 198 230 198 215 212 c 0,195,196
 206 222 206 222 202 234 c 1,197,-1
 202 234 l 1,198,199
 198 222 198 222 189 212 c 0,200,201
 174 198 174 198 152 198 c 128,-1,202
 130 198 130 198 115 212 c 0,203,204
 106 222 106 222 103 234 c 1,205,-1
 103 234 l 1,206,207
 99 222 99 222 90 212 c 0,208,209
 74 198 74 198 52 198 c 1,210,-1
 52 198 l 1,129,130
202 434 m 1,211,-1
 202 434 l 1,212,-1
 202 434 l 1,213,-1
 202 434 l 1,214,-1
 202 434 l 1,211,-1
402 434 m 1,215,-1
 402 434 l 1,216,-1
 402 434 l 1,217,-1
 402 434 l 1,218,-1
 402 434 l 1,215,-1
52 398 m 1,219,220
 30 398 30 398 15 412 c 0,221,222
 0 428 0 428 0 450 c 128,-1,223
 0 472 0 472 15 488 c 0,224,225
 31 502 31 502 52 502 c 256,226,227
 74 502 74 502 90 488 c 0,228,229
 99 478 99 478 103 466 c 1,230,-1
 103 466 l 1,231,232
 107 478 107 478 115 488 c 0,233,234
 130 502 130 502 152 502 c 128,-1,235
 174 502 174 502 189 488 c 0,236,237
 198 478 198 478 202 466 c 1,238,-1
 202 466 l 1,239,240
 206 478 206 478 215 488 c 0,241,242
 231 502 231 502 252 502 c 0,243,244
 274 502 274 502 290 488 c 0,245,246
 299 478 299 478 302 466 c 1,247,-1
 302 466 l 1,248,249
 306 478 306 478 315 488 c 0,250,251
 330 502 330 502 353 502 c 0,252,253
 375 502 375 502 390 488 c 0,254,255
 399 478 399 478 402 466 c 1,256,-1
 402 466 l 1,257,258
 406 478 406 478 415 488 c 0,259,260
 430 502 430 502 452 502 c 128,-1,261
 474 502 474 502 490 488 c 256,262,263
 505 474 505 474 505 450 c 0,264,265
 505 428 505 428 490 412 c 256,266,267
 475 398 475 398 452 398 c 0,268,269
 430 398 430 398 415 412 c 0,270,271
 406 422 406 422 402 434 c 1,272,273
 398 422 398 422 390 412 c 0,274,275
 375 398 375 398 353 398 c 128,-1,276
 331 398 331 398 315 412 c 0,277,278
 306 422 306 422 302 434 c 1,279,280
 298 422 298 422 290 412 c 0,281,282
 275 398 275 398 252 398 c 0,283,284
 230 398 230 398 215 412 c 0,285,286
 206 422 206 422 202 434 c 1,287,288
 198 422 198 422 189 412 c 0,289,290
 174 398 174 398 152 398 c 128,-1,291
 130 398 130 398 115 412 c 0,292,293
 106 422 106 422 103 434 c 1,294,-1
 103 434 l 1,295,296
 99 422 99 422 90 412 c 0,297,298
 74 398 74 398 52 398 c 1,299,-1
 52 398 l 1,219,220
EndSplineSet
EndChar

StartChar: greater
Encoding: 62 62 30
Width: 600
VWidth: 897
Flags: W
LayerCount: 2
Fore
SplineSet
103 -166 m 1,0,1
 103 -166 l 1,2,-1
 103 -166 l 1,3,4
 103 -166 l 1,5,-1
 103 -166 l 1,0,1
302 -166 m 1,6,7
 302 -166 l 1,8,-1
 302 -166 l 1,9,10
 302 -166 l 1,11,-1
 302 -166 l 1,6,7
502 -166 m 1,12,13
 502 -166 l 1,14,-1
 502 -166 l 1,15,16
 502 -166 l 1,17,-1
 502 -166 l 1,12,13
52 -202 m 1,18,19
 30 -202 30 -202 15 -186 c 128,-1,20
 0 -170 0 -170 0 -150 c 0,21,22
 0 -128 0 -128 15 -114 c 0,23,24
 31 -98 31 -98 52 -96 c 256,25,26
 74 -96 74 -96 90 -114 c 0,27,28
 99 -124 99 -124 103 -134 c 1,29,-1
 103 -134 l 1,30,31
 107 -122 107 -122 115 -114 c 0,32,33
 130 -98 130 -98 152 -96 c 0,34,35
 174 -96 174 -96 189 -114 c 0,36,37
 198 -124 198 -124 202 -134 c 1,38,-1
 202 -134 l 1,39,40
 206 -122 206 -122 215 -114 c 0,41,42
 231 -98 231 -98 252 -96 c 0,43,44
 274 -96 274 -96 290 -114 c 0,45,46
 299 -124 299 -124 302 -134 c 1,47,-1
 302 -134 l 1,48,49
 306 -122 306 -122 315 -114 c 0,50,51
 330 -98 330 -98 353 -96 c 0,52,53
 375 -96 375 -96 390 -114 c 0,54,55
 399 -124 399 -124 402 -134 c 1,56,-1
 402 -134 l 1,57,58
 406 -122 406 -122 415 -114 c 0,59,60
 430 -98 430 -98 452 -96 c 0,61,62
 474 -96 474 -96 490 -114 c 0,63,64
 499 -124 499 -124 502 -134 c 1,65,-1
 502 -134 l 1,66,67
 506 -122 506 -122 515 -114 c 0,68,69
 530 -98 530 -98 553 -96 c 0,70,71
 576 -96 576 -96 590 -114 c 256,72,73
 605.058823529 -128.054901961 605.058823529 -128.054901961 605.058823529 -152.560553633 c 0,74,75
 605.058823529 -172.823529412 605.058823529 -172.823529412 590 -186 c 256,76,77
 575 -200 575 -200 553 -202 c 0,78,79
 531 -202 531 -202 515 -186 c 0,80,81
 506 -176 506 -176 502 -166 c 1,82,83
 498 -178 498 -178 490 -186 c 0,84,85
 475 -200 475 -200 452 -202 c 0,86,87
 430 -202 430 -202 415 -186 c 0,88,89
 406 -176 406 -176 402 -166 c 1,90,91
 398 -178 398 -178 390 -186 c 0,92,93
 375 -200 375 -200 353 -202 c 0,94,95
 331 -202 331 -202 315 -186 c 0,96,97
 306 -176 306 -176 302 -166 c 1,98,99
 298 -178 298 -178 290 -186 c 0,100,101
 275 -200 275 -200 252 -202 c 0,102,103
 230 -202 230 -202 215 -186 c 0,104,105
 206 -176 206 -176 202 -166 c 1,106,-1
 202 -166 l 1,107,108
 198 -178 198 -178 189 -186 c 0,109,110
 174 -200 174 -200 152 -202 c 0,111,112
 130 -202 130 -202 115 -186 c 0,113,114
 106 -176 106 -176 103 -166 c 1,115,-1
 103 -166 l 1,116,117
 99 -178 99 -178 90 -186 c 0,118,119
 74 -200 74 -200 52 -202 c 1,120,-1
 52 -202 l 1,18,19
52 -2 m 1,121,122
 30 -2 30 -2 15 12 c 0,123,124
 0 28 0 28 0 50 c 256,125,126
 0 72 0 72 15 88 c 0,127,128
 29.2222222222 102.222222222 29.2222222222 102.222222222 47.3950617284 102.222222222 c 0,129,130
 49.6666666667 102.222222222 49.6666666667 102.222222222 52 102 c 256,131,132
 74 102 74 102 90 88 c 0,133,134
 104.0625 73 104.0625 73 104.0625 52.7265625 c 0,135,136
 104.0625 28.0714285714 104.0625 28.0714285714 90 12 c 0,137,138
 74 -2 74 -2 52 -2 c 1,139,-1
 52 -2 l 1,121,122
152 98 m 1,140,141
 130 98 130 98 115 112 c 256,142,143
 100 128 100 128 100 150 c 128,-1,144
 100 172 100 172 115 186 c 256,145,146
 130 200 130 200 152 202 c 0,147,148
 174 202 174 202 189 186 c 256,149,150
 204 172 204 172 205 150 c 0,151,152
 205 128 205 128 189 112 c 256,153,154
 174 98 174 98 152 98 c 1,155,-1
 152 98 l 1,140,141
252 198 m 1,156,157
 230 198 230 198 215 212 c 0,158,159
 200 228 200 228 200 250 c 128,-1,160
 200 272 200 272 215 288 c 0,161,162
 231 302 231 302 252 302 c 0,163,164
 274 302 274 302 290 288 c 256,165,166
 305 274 305 274 305 250 c 0,167,168
 305 228 305 228 290 212 c 0,169,170
 275 198 275 198 252 198 c 1,171,-1
 252 198 l 1,156,157
353 298 m 1,172,173
 331 298 331 298 315 312 c 256,174,175
 300 326 300 326 300 350 c 0,176,177
 300 372 300 372 315 388 c 256,178,179
 330 402 330 402 353 402 c 0,180,181
 375 402 375 402 390 388 c 256,182,183
 405 372 405 372 405 350 c 128,-1,184
 405 328 405 328 390 312 c 256,185,186
 375 298 375 298 353 298 c 1,187,-1
 353 298 l 1,172,173
252 398 m 1,188,189
 230 398 230 398 215 412 c 0,190,191
 200 428 200 428 200 450 c 128,-1,192
 200 472 200 472 215 488 c 0,193,194
 231 502 231 502 252 502 c 0,195,196
 274 502 274 502 290 488 c 256,197,198
 305 474 305 474 305 450 c 0,199,200
 305 428 305 428 290 412 c 256,201,202
 275 398 275 398 252 398 c 1,203,-1
 252 398 l 1,188,189
152 498 m 1,204,205
 130 498 130 498 115 512 c 256,206,207
 100 526 100 526 100 550 c 128,-1,208
 100 574 100 574 115 588 c 256,209,210
 130 602 130 602 152 602 c 0,211,212
 154.444444444 602.222222222 154.444444444 602.222222222 156.802469136 602.222222222 c 0,213,214
 175.666666667 602.222222222 175.666666667 602.222222222 189 588 c 256,215,216
 204 572 204 572 205 550 c 0,217,218
 205 528 205 528 189 512 c 256,219,220
 174 498 174 498 152 498 c 1,221,-1
 152 498 l 1,204,205
52 598 m 1,222,223
 30 598 30 598 15 614 c 0,224,225
 0 628 0 628 0 650 c 128,-1,226
 0 672 0 672 15 686 c 0,227,228
 31 700 31 700 52 702 c 256,229,230
 74 702 74 702 90 686 c 0,231,232
 104.0625 672.875 104.0625 672.875 104.0625 652.71875 c 0,233,234
 104.0625 628.0625 104.0625 628.0625 90 614 c 0,235,236
 74 600 74 600 52 598 c 1,237,-1
 52 598 l 1,222,223
EndSplineSet
EndChar

